<?xml version="1.0" encoding="UTF-8" standalone="no"?><!DOCTYPE svg PUBLIC "-//W3C//DTD SVG 1.1//EN" "http://www.w3.org/Graphics/SVG/1.1/DTD/svg11.dtd"><svg width="100%" height="100%" viewBox="0 0 100 100" version="1.1" xmlns="http://www.w3.org/2000/svg" xmlns:xlink="http://www.w3.org/1999/xlink" xml:space="preserve" xmlns:serif="http://www.serif.com/" style="fill-rule:evenodd;clip-rule:evenodd;stroke-linejoin:round;stroke-miterlimit:1.41421;"><path id="surface1" d="M77.5,6l-55,0c-9.109,0 -16.5,7.391 -16.5,16.5l0,55c0,9.109 7.391,16.5 16.5,16.5l55,0c9.109,0 16.5,-7.391 16.5,-16.5l0,-55c0,-9.109 -7.391,-16.5 -16.5,-16.5Zm-2.234,47.398l-8.237,0l0,30.475l-13.75,0l0,-30.475l-5.342,0l0,-10.273l5.342,0l0,-6.544c0,-8.568 3.556,-13.658 13.671,-13.658l10.233,0l0,10.233l-5.95,0c-3.927,0 -4.191,1.455 -4.191,4.205l-0.013,5.764l9.36,0l-1.123,10.273Z" style="fill-rule:nonzero;"/><g><path d="M70.15,-100l29.772,0l-49.97,100l-49.967,-100l29.999,0l19.968,40.056l20.198,-40.056Z" style="fill-rule:nonzero;"/><path d="M125.013,-69.943l-15.035,-30.057l-15.001,30.038l15.049,30.038l20.003,39.924l29.971,0l-34.987,-69.943Z" style="fill-rule:nonzero;"/></g></svg>