<?xml version="1.0" encoding="UTF-8" standalone="no"?><!DOCTYPE svg PUBLIC "-//W3C//DTD SVG 1.1//EN" "http://www.w3.org/Graphics/SVG/1.1/DTD/svg11.dtd"><svg width="100%" height="100%" viewBox="0 0 100 100" version="1.1" xmlns="http://www.w3.org/2000/svg" xmlns:xlink="http://www.w3.org/1999/xlink" xml:space="preserve" xmlns:serif="http://www.serif.com/" style="fill-rule:evenodd;clip-rule:evenodd;stroke-linejoin:round;stroke-miterlimit:1.41421;"><path d="M150,0c-27.625,0 -50,22.375 -50,50c0,22.125 14.313,40.813 34.188,47.438c2.5,0.437 3.437,-1.063 3.437,-2.376c0,-1.187 -0.063,-5.124 -0.063,-9.312c-12.562,2.313 -15.812,-3.063 -16.812,-5.875c-0.563,-1.438 -3,-5.875 -5.125,-7.063c-1.75,-0.937 -4.25,-3.249 -0.063,-3.312c3.938,-0.063 6.75,3.625 7.688,5.125c4.5,7.563 11.687,5.438 14.562,4.125c0.438,-3.25 1.75,-5.438 3.188,-6.688c-11.125,-1.249 -22.75,-5.562 -22.75,-24.687c0,-5.438 1.938,-9.938 5.125,-13.438c-0.5,-1.249 -2.25,-6.374 0.5,-13.249c0,0 4.188,-1.313 13.75,5.125c4,-1.125 8.25,-1.688 12.5,-1.688c4.25,0 8.5,0.563 12.5,1.688c9.563,-6.5 13.75,-5.125 13.75,-5.125c2.75,6.875 1,12 0.5,13.25c3.188,3.5 5.125,7.937 5.125,13.437c0,19.188 -11.688,23.438 -22.813,24.688c1.813,1.562 3.375,4.562 3.375,9.249c0,6.688 -0.062,12.063 -0.062,13.751c0,1.312 0.938,2.874 3.438,2.374c19.75,-6.624 34.062,-25.374 34.062,-47.437c0,-27.625 -22.375,-50 -50,-50Z"/><path id="surface1" d="M77.5,6l-55,0c-9.109,0 -16.5,7.391 -16.5,16.5l0,55c0,9.109 7.391,16.5 16.5,16.5l55,0c9.109,0 16.5,-7.391 16.5,-16.5l0,-55c0,-9.109 -7.391,-16.5 -16.5,-16.5Zm-44.291,74.7l-13.671,0l-0.079,-40.933l13.671,0l0.079,40.933Zm-7.179,-46.288l-0.079,0c-4.469,0 -7.351,-3.08 -7.351,-6.914c0,-3.927 2.975,-6.902 7.523,-6.902c4.548,0 7.337,2.975 7.43,6.902c0,3.834 -2.896,6.914 -7.523,6.914Zm54.577,46.288l-13.79,0l0,-22.238c0,-5.381 -1.428,-9.044 -6.24,-9.044c-3.676,0 -5.659,2.473 -6.611,4.866c-0.357,0.859 -0.449,2.036 -0.449,3.239l0,23.177l-13.856,0l-0.079,-40.933l13.855,0l0.08,5.777c1.771,-2.736 4.72,-6.61 11.78,-6.61c8.752,0 15.297,5.711 15.297,17.994l0,23.772l0.013,0Z" style="fill-rule:nonzero;"/></svg>