<?xml version="1.0" encoding="UTF-8" standalone="no"?><!DOCTYPE svg PUBLIC "-//W3C//DTD SVG 1.1//EN" "http://www.w3.org/Graphics/SVG/1.1/DTD/svg11.dtd"><svg width="100%" height="100%" viewBox="0 0 100 100" version="1.1" xmlns="http://www.w3.org/2000/svg" xmlns:xlink="http://www.w3.org/1999/xlink" xml:space="preserve" xmlns:serif="http://www.serif.com/" style="fill-rule:evenodd;clip-rule:evenodd;stroke-linejoin:round;stroke-miterlimit:1.41421;"><path d="M100,50c0,-27.616 -22.384,-50 -50,-50c-27.616,0 -50,22.384 -50,50c0,27.616 22.384,50 50,50c27.616,0 50,-22.384 50,-50Zm-90.625,0c0,-22.438 18.187,-40.625 40.625,-40.625c22.437,0 40.625,18.187 40.625,40.625c0,22.437 -18.188,40.625 -40.625,40.625c-22.438,0 -40.625,-18.188 -40.625,-40.625Z" style="fill-rule:nonzero;"/><path d="M30.981,34.644l-8.84,8.84l27.856,27.857l27.856,-27.857l-8.837,-8.837l-19.019,19.019l-19.016,-19.022Z" style="fill-rule:nonzero;"/></svg>