<?xml version="1.0" encoding="UTF-8" standalone="no"?><!DOCTYPE svg PUBLIC "-//W3C//DTD SVG 1.1//EN" "http://www.w3.org/Graphics/SVG/1.1/DTD/svg11.dtd"><svg width="100%" height="100%" viewBox="0 0 100 100" version="1.1" xmlns="http://www.w3.org/2000/svg" xmlns:xlink="http://www.w3.org/1999/xlink" xml:space="preserve" xmlns:serif="http://www.serif.com/" style="fill-rule:evenodd;clip-rule:evenodd;stroke-linejoin:round;stroke-miterlimit:1.41421;"><g><path d="M49.997,6l0.007,0l-0.014,0l0.007,0c-11.944,0 -13.444,0.052 -18.136,0.266c-4.684,0.214 -7.882,0.956 -10.679,2.044c-2.894,1.124 -5.349,2.627 -7.795,5.074c-2.447,2.445 -3.95,4.9 -5.078,7.793c-1.091,2.799 -1.833,5.997 -2.044,10.679c-0.21,4.694 -0.265,6.194 -0.265,18.144c0,11.95 0.053,13.445 0.266,18.138c0.215,4.684 0.957,7.882 2.044,10.679c1.125,2.894 2.628,5.349 5.075,7.795c2.444,2.447 4.899,3.954 7.791,5.078c2.8,1.088 5.998,1.83 10.681,2.044c4.694,0.214 6.192,0.266 18.141,0.266c11.951,0 13.446,-0.052 18.139,-0.266c4.684,-0.214 7.885,-0.956 10.685,-2.044c2.893,-1.124 5.344,-2.631 7.789,-5.078c2.447,-2.446 3.951,-4.901 5.078,-7.794c1.082,-2.798 1.824,-5.997 2.044,-10.679c0.211,-4.693 0.266,-6.189 0.266,-18.139c0,-11.95 -0.055,-13.449 -0.266,-18.143c-0.22,-4.684 -0.962,-7.881 -2.044,-10.679c-1.127,-2.894 -2.631,-5.349 -5.078,-7.794c-2.448,-2.448 -4.895,-3.951 -7.792,-5.074c-2.805,-1.088 -6.004,-1.83 -10.688,-2.044c-4.693,-0.214 -6.187,-0.266 -18.134,-0.266Zm-3.941,7.929c1.172,-0.002 2.479,0 3.948,0c11.748,0 13.14,0.042 17.779,0.253c4.29,0.196 6.619,0.913 8.17,1.515c2.053,0.798 3.517,1.751 5.056,3.291c1.54,1.54 2.493,3.007 3.293,5.06c0.602,1.549 1.32,3.878 1.515,8.168c0.211,4.638 0.257,6.031 0.257,17.774c0,11.742 -0.046,13.136 -0.257,17.774c-0.196,4.29 -0.913,6.618 -1.515,8.168c-0.798,2.053 -1.753,3.515 -3.293,5.054c-1.54,1.54 -3.002,2.493 -5.056,3.291c-1.55,0.605 -3.88,1.32 -8.17,1.516c-4.638,0.211 -6.031,0.257 -17.779,0.257c-11.749,0 -13.142,-0.046 -17.78,-0.257c-4.29,-0.198 -6.618,-0.915 -8.17,-1.517c-2.054,-0.798 -3.52,-1.751 -5.06,-3.291c-1.54,-1.54 -2.494,-3.003 -3.293,-5.057c-0.602,-1.549 -1.32,-3.878 -1.515,-8.168c-0.211,-4.638 -0.253,-6.031 -0.253,-17.781c0,-11.75 0.042,-13.136 0.253,-17.774c0.196,-4.29 0.913,-6.619 1.515,-8.17c0.798,-2.053 1.753,-3.52 3.293,-5.06c1.54,-1.54 3.006,-2.493 5.06,-3.292c1.551,-0.605 3.88,-1.32 8.17,-1.517c4.059,-0.184 5.632,-0.239 13.832,-0.248l0,0.011Zm3.947,13.475l0.001,0l-0.001,0l0,0c-12.478,0.001 -22.595,10.118 -22.595,22.596c0,12.479 10.117,22.591 22.596,22.591c12.478,0 22.592,-10.112 22.592,-22.591c0,-12.478 -10.114,-22.595 -22.593,-22.596Zm0.001,7.929c8.099,0 14.666,6.566 14.666,14.667c0,8.1 -6.567,14.667 -14.666,14.667c-8.101,0 -14.667,-6.567 -14.667,-14.667c0,-8.101 6.566,-14.667 14.667,-14.667Zm23.486,-14.098c-2.915,0 -5.28,2.362 -5.28,5.278c0,2.915 2.365,5.28 5.28,5.28c2.915,0 5.28,-2.365 5.28,-5.28c0,-2.915 -2.365,-5.28 -5.28,-5.28l0,0.002Z" style="fill-rule:nonzero;"/></g></svg>