<?xml version="1.0" encoding="UTF-8" standalone="no"?><!DOCTYPE svg PUBLIC "-//W3C//DTD SVG 1.1//EN" "http://www.w3.org/Graphics/SVG/1.1/DTD/svg11.dtd"><svg width="100%" height="100%" viewBox="0 0 100 100" version="1.1" xmlns="http://www.w3.org/2000/svg" xmlns:xlink="http://www.w3.org/1999/xlink" xml:space="preserve" xmlns:serif="http://www.serif.com/" style="fill-rule:evenodd;clip-rule:evenodd;stroke-linejoin:round;stroke-miterlimit:1.41421;"><path d="M150,0c-27.625,0 -50,22.375 -50,50c0,22.125 14.313,40.813 34.188,47.438c2.5,0.437 3.437,-1.063 3.437,-2.376c0,-1.187 -0.063,-5.124 -0.063,-9.312c-12.562,2.313 -15.812,-3.063 -16.812,-5.875c-0.563,-1.438 -3,-5.875 -5.125,-7.063c-1.75,-0.937 -4.25,-3.249 -0.063,-3.312c3.938,-0.063 6.75,3.625 7.688,5.125c4.5,7.563 11.687,5.438 14.562,4.125c0.438,-3.25 1.75,-5.438 3.188,-6.688c-11.125,-1.249 -22.75,-5.562 -22.75,-24.687c0,-5.438 1.938,-9.938 5.125,-13.438c-0.5,-1.249 -2.25,-6.374 0.5,-13.249c0,0 4.188,-1.313 13.75,5.125c4,-1.125 8.25,-1.688 12.5,-1.688c4.25,0 8.5,0.563 12.5,1.688c9.563,-6.5 13.75,-5.125 13.75,-5.125c2.75,6.875 1,12 0.5,13.25c3.188,3.5 5.125,7.937 5.125,13.437c0,19.188 -11.688,23.438 -22.813,24.688c1.813,1.562 3.375,4.562 3.375,9.249c0,6.688 -0.062,12.063 -0.062,13.751c0,1.312 0.938,2.874 3.438,2.374c19.75,-6.624 34.062,-25.374 34.062,-47.437c0,-27.625 -22.375,-50 -50,-50Z"/><path d="M9.967,-59.944l20.198,-40.056l29.772,0l-49.97,100l-49.967,-100l29.999,0l19.968,40.056Zm0.714,0.36l-0.096,0.148l-0.127,0.124l-0.15,0.092l-0.168,0.057l-0.175,0.019l-0.176,-0.02l-0.166,-0.058l-0.15,-0.093l-0.126,-0.124l-0.096,-0.148l-19.747,-39.613l-28.21,0l48.673,97.41l48.676,-97.41l-27.985,0l-19.977,39.616Z"/><path d="M85.028,-69.943l34.987,69.943l-29.972,0l-20.002,-39.924l-15.049,-30.038l15.001,-30.038l15.035,30.057Zm-29.142,-0.019l14.87,29.68l19.781,39.482l28.183,0l-34.408,-68.785l-14.319,-28.626l-14.107,28.249Z"/><path id="path14" d="M86.983,94l-74.521,0c-3.569,0 -6.462,-2.822 -6.462,-6.304l0,-75.392c0,-3.481 2.893,-6.304 6.462,-6.304l74.521,0c3.569,0 6.462,2.823 6.462,6.304l0,75.392c0,3.482 -2.893,6.304 -6.462,6.304Zm-47.167,-14.335l13.207,0l0,-22.191c0,-1.187 0.086,-2.374 0.435,-3.223c0.955,-2.373 3.128,-4.83 6.777,-4.83c4.779,0 6.691,3.644 6.691,8.986l0,21.258l13.206,0l0,-22.784c0,-12.206 -6.516,-17.885 -15.205,-17.885c-7.007,0 -10.148,3.851 -11.903,6.558l0,0.137l-0.088,0c0.029,-0.045 0.058,-0.091 0.088,-0.137l0,-5.626l-13.208,0c0.173,3.728 0,39.656 0,39.737l0,0l0,0Zm-7.309,-39.737l-13.207,0l0,39.737l13.207,0l0,-39.737Zm-6.604,-5.425c4.606,0 7.473,-3.052 7.473,-6.865c-0.086,-3.899 -2.867,-6.866 -7.385,-6.866c-4.518,0 -7.472,2.967 -7.472,6.866c0,3.813 2.866,6.865 7.298,6.865l0.086,0Z" style="fill-rule:nonzero;"/></svg>