<?xml version="1.0" encoding="UTF-8" standalone="no"?><!DOCTYPE svg PUBLIC "-//W3C//DTD SVG 1.1//EN" "http://www.w3.org/Graphics/SVG/1.1/DTD/svg11.dtd"><svg width="100%" height="100%" viewBox="0 0 100 100" version="1.1" xmlns="http://www.w3.org/2000/svg" xmlns:xlink="http://www.w3.org/1999/xlink" xml:space="preserve" xmlns:serif="http://www.serif.com/" style="fill-rule:evenodd;clip-rule:evenodd;stroke-linejoin:round;stroke-miterlimit:1.41421;"><g><path d="M54.51,41.405l-13.342,4.469l4.316,12.887l13.342,-4.469l-4.316,-12.887Z"/><path d="M95.808,36.249c-10.313,-34.376 -25.182,-42.37 -59.559,-32.057c-34.376,10.313 -42.37,25.182 -32.057,59.559c10.313,34.376 25.182,42.37 59.559,32.057c34.376,-10.313 42.37,-25.182 32.057,-59.559Zm-17.348,22.305l-6.475,2.159l2.238,6.715c0.88,2.718 -0.559,5.676 -3.277,6.555c-0.56,0.16 -1.2,0.32 -1.759,0.24c-2.079,-0.08 -4.077,-1.439 -4.797,-3.517l-2.238,-6.716l-13.351,4.477l2.238,6.716c0.88,2.718 -0.559,5.676 -3.277,6.555c-0.56,0.16 -1.2,0.32 -1.759,0.24c-2.079,-0.08 -4.077,-1.439 -4.797,-3.518l-2.238,-6.715l-6.476,2.158c-0.56,0.16 -1.199,0.32 -1.759,0.24c-2.078,-0.08 -4.077,-1.439 -4.796,-3.517c-0.88,-2.718 0.559,-5.676 3.277,-6.556l6.476,-2.158l-4.317,-12.871l-6.476,2.158c-0.559,0.16 -1.199,0.32 -1.758,0.24c-2.079,-0.08 -4.078,-1.439 -4.797,-3.518c-0.88,-2.718 0.559,-5.676 3.278,-6.555l6.475,-2.159l-2.238,-6.715c-0.88,-2.718 0.559,-5.676 3.277,-6.555c2.719,-0.88 5.676,0.559 6.556,3.277l2.238,6.716l13.351,-4.477l-2.238,-6.716c-0.88,-2.718 0.559,-5.676 3.277,-6.555c2.719,-0.879 5.676,0.56 6.556,3.278l2.238,6.715l6.476,-2.158c2.718,-0.88 5.676,0.559 6.555,3.277c0.88,2.718 -0.559,5.676 -3.277,6.556l-6.476,2.158l4.317,12.871l6.476,-2.158c2.718,-0.88 5.676,0.559 6.555,3.278c0.879,2.718 -0.56,5.676 -3.278,6.555Z" style="fill-rule:nonzero;"/></g><path id="path4156" d="M-50.031,15c0,0 -31.254,0 -39.098,2.038c-4.201,1.174 -7.659,4.632 -8.833,8.894c-2.038,7.845 -2.038,24.09 -2.038,24.09c0,0 0,16.306 2.038,24.027c1.174,4.262 4.571,7.659 8.833,8.833c7.906,2.1 39.098,2.1 39.098,2.1c0,0 31.316,0 39.16,-2.039c4.262,-1.173 7.659,-4.508 8.771,-8.832c2.1,-7.783 2.1,-24.027 2.1,-24.027c0,0 0.062,-16.307 -2.1,-24.152c-1.112,-4.262 -4.509,-7.658 -8.771,-8.77c-7.844,-2.162 -39.16,-2.162 -39.16,-2.162Zm-9.945,20.013l26.005,15.009l-26.005,14.947l0,-29.956Z" style="fill-rule:nonzero;"/></svg>