<?xml version="1.0" encoding="UTF-8" standalone="no"?><!DOCTYPE svg PUBLIC "-//W3C//DTD SVG 1.1//EN" "http://www.w3.org/Graphics/SVG/1.1/DTD/svg11.dtd"><svg width="100%" height="100%" viewBox="0 0 160 100" version="1.1" xmlns="http://www.w3.org/2000/svg" xmlns:xlink="http://www.w3.org/1999/xlink" xml:space="preserve" xmlns:serif="http://www.serif.com/" style="fill-rule:evenodd;clip-rule:evenodd;stroke-linejoin:round;stroke-miterlimit:1.41421;"><path d="M190,100c-27.625,0 -50,22.375 -50,50c0,22.125 14.313,40.813 34.188,47.438c2.5,0.437 3.437,-1.063 3.437,-2.375c0,-1.188 -0.063,-5.125 -0.063,-9.313c-12.562,2.313 -15.812,-3.063 -16.812,-5.875c-0.563,-1.438 -3,-5.875 -5.125,-7.063c-1.75,-0.937 -4.25,-3.25 -0.063,-3.312c3.938,-0.063 6.75,3.625 7.688,5.125c4.5,7.563 11.688,5.438 14.563,4.125c0.437,-3.25 1.75,-5.438 3.187,-6.688c-11.125,-1.25 -22.75,-5.562 -22.75,-24.687c0,-5.438 1.938,-9.938 5.125,-13.438c-0.5,-1.25 -2.25,-6.375 0.5,-13.25c0,0 4.188,-1.312 13.75,5.125c4,-1.125 8.25,-1.687 12.5,-1.687c4.25,0 8.5,0.562 12.5,1.687c9.563,-6.5 13.75,-5.125 13.75,-5.125c2.75,6.875 1,12 0.5,13.25c3.188,3.5 5.125,7.938 5.125,13.438c0,19.188 -11.688,23.438 -22.813,24.688c1.813,1.562 3.375,4.562 3.375,9.25c0,6.687 -0.062,12.062 -0.062,13.75c0,1.312 0.938,2.875 3.438,2.375c19.75,-6.625 34.062,-25.375 34.062,-47.438c0,-27.625 -22.375,-50 -50,-50Z"/><g><path d="M-34.987,30.057l-15.035,-30.057l-15.001,30.038l15.049,30.038l20.003,39.924l29.971,0l-34.987,-69.943Z" style="fill-rule:nonzero;"/></g><path d="M49.967,40.056l20.198,-40.056l29.772,0l-49.97,100l-49.967,-100l29.999,0l19.968,40.056Zm0.714,0.36l-0.096,0.148l-0.127,0.124l-0.15,0.092l-0.168,0.057l-0.175,0.019l-0.176,-0.02l-0.166,-0.058l-0.15,-0.093l-0.126,-0.124l-0.096,-0.148l-19.747,-39.613l-28.21,0l48.673,97.41l48.676,-97.41l-27.985,0l-19.977,39.616Z"/><path d="M125.028,30.057l34.987,69.943l-29.972,0l-20.002,-39.924l-15.049,-30.038l15.001,-30.038l15.035,30.057Zm-29.142,-0.019l14.87,29.68l19.781,39.482l28.183,0l-34.408,-68.785l-14.319,-28.626l-14.107,28.249Z"/></svg>