<?xml version="1.0" encoding="UTF-8" standalone="no"?><!DOCTYPE svg PUBLIC "-//W3C//DTD SVG 1.1//EN" "http://www.w3.org/Graphics/SVG/1.1/DTD/svg11.dtd"><svg width="100%" height="100%" viewBox="0 0 240 180" version="1.1" xmlns="http://www.w3.org/2000/svg" xmlns:xlink="http://www.w3.org/1999/xlink" xml:space="preserve" xmlns:serif="http://www.serif.com/" style="fill-rule:evenodd;clip-rule:evenodd;stroke-linecap:round;stroke-linejoin:round;stroke-miterlimit:2;"><rect id="_3D-stripes-2" serif:id="3D stripes 2" x="0" y="0" width="240" height="180" style="fill:none;"/><g id="Original-shape" serif:id="Original shape"><path d="M40,40l50,99.999l50,-99.999" style="fill:none;fill-rule:nonzero;stroke:#000;stroke-width:2px;"/><path d="M150,40l50,99.999" style="fill:none;stroke:#000;stroke-width:2px;"/></g><g id="Original-shape1" serif:id="Original shape"><path d="M45,43.125l46.875,93.749l46.875,-93.749" style="fill:none;fill-rule:nonzero;stroke:#000;stroke-width:2px;"/><path d="M148.125,43.125l46.875,93.749" style="fill:none;stroke:#000;stroke-width:2px;"/></g><g id="Original-shape2" serif:id="Original shape"><path d="M50,46.25l43.75,87.499l43.75,-87.499" style="fill:none;fill-rule:nonzero;stroke:#000;stroke-width:2px;"/><path d="M146.25,46.25l43.75,87.499" style="fill:none;stroke:#000;stroke-width:2px;"/></g><g id="Original-shape3" serif:id="Original shape"><path d="M55,49.375l40.625,81.249l40.625,-81.249" style="fill:none;fill-rule:nonzero;stroke:#000;stroke-width:2px;"/><path d="M144.375,49.375l40.625,81.249" style="fill:none;stroke:#000;stroke-width:2px;"/></g><g id="Original-shape4" serif:id="Original shape"><path d="M60,52.5l37.5,74.999l37.5,-74.999" style="fill:none;fill-rule:nonzero;stroke:#000;stroke-width:2px;"/><path d="M142.5,52.5l37.5,74.999" style="fill:none;stroke:#000;stroke-width:2px;"/></g><g id="Original-shape5" serif:id="Original shape"><path d="M65,55.625l34.375,68.749l34.375,-68.749" style="fill:none;fill-rule:nonzero;stroke:#000;stroke-width:2px;"/><path d="M140.625,55.625l34.375,68.749" style="fill:none;stroke:#000;stroke-width:2px;"/></g></svg>