<?xml version="1.0" encoding="UTF-8" standalone="no"?><!DOCTYPE svg PUBLIC "-//W3C//DTD SVG 1.1//EN" "http://www.w3.org/Graphics/SVG/1.1/DTD/svg11.dtd"><svg width="100%" height="100%" viewBox="0 0 240 180" version="1.1" xmlns="http://www.w3.org/2000/svg" xmlns:xlink="http://www.w3.org/1999/xlink" xml:space="preserve" xmlns:serif="http://www.serif.com/" style="fill-rule:evenodd;clip-rule:evenodd;stroke-linejoin:round;stroke-miterlimit:2;"><rect id="Pixelated" x="0" y="0" width="240" height="180" style="fill:none;"/><g><g id="Alt-V" serif:id="Alt V"><rect x="85" y="110" width="10" height="10"/><rect x="85" y="100" width="10" height="10"/><rect x="75" y="100" width="10" height="10"/><rect x="95" y="100" width="10" height="10"/><rect x="95" y="90" width="10" height="10"/><rect x="85" y="90" width="10" height="10"/><rect x="75" y="90" width="10" height="10"/><rect x="75" y="80" width="10" height="10"/><rect x="65" y="80" width="10" height="10"/><rect x="65" y="70" width="10" height="10"/><rect x="55" y="70" width="10" height="10"/><rect x="45" y="50" width="10" height="10"/><rect x="75" y="69.999" width="10" height="10"/><rect x="65" y="60" width="10" height="10"/><rect x="55" y="60" width="10" height="10"/><rect x="55" y="50" width="10" height="10"/><rect x="65" y="50" width="10" height="10"/><rect x="55" y="40" width="10" height="10"/><rect x="45" y="40" width="10" height="10"/><rect x="95" y="80" width="10" height="10"/><rect x="85" y="80" width="10" height="10"/><rect x="75" y="61" width="10" height="10"/><rect x="65" y="40" width="10" height="10"/><rect x="95" y="60" width="10" height="10"/><rect x="105" y="40" width="10" height="10"/><rect x="105" y="80" width="10" height="10"/><rect x="105" y="70" width="10" height="10"/><rect x="95" y="70" width="10" height="10"/><rect x="115" y="70" width="10" height="10"/><rect x="125" y="50" width="10" height="10"/><rect x="105" y="60" width="10" height="10"/><rect x="115" y="60" width="10" height="10"/><rect x="115" y="49.999" width="10" height="10"/><rect x="105" y="50" width="10" height="10"/><rect x="115" y="40" width="10" height="10"/><rect x="125" y="39.999" width="10" height="10"/><rect x="85" y="120" width="10" height="10"/><rect x="85" y="130" width="10" height="10"/><rect x="95" y="110" width="10" height="10"/><rect x="75" y="110" width="10" height="10"/><rect x="65" y="90" width="10" height="10"/><rect x="105" y="90" width="10" height="10"/></g><g id="Alt-A" serif:id="Alt A"><rect x="165" y="110" width="10" height="10"/><rect x="175" y="110" width="10" height="10"/><rect x="165" y="120" width="10" height="10"/><rect x="175" y="120" width="10" height="10"/><rect x="175" y="130" width="10" height="10"/><rect x="185" y="130" width="10" height="10"/><rect x="165" y="100" width="10" height="10"/><rect x="155" y="100" width="10" height="10"/><rect x="155" y="90" width="10" height="10"/><rect x="165" y="90" width="10" height="10"/><rect x="155" y="80" width="10" height="10"/><rect x="145" y="80" width="10" height="10"/><rect x="145" y="70" width="10" height="10"/><rect x="155" y="70" width="10" height="10"/><rect x="145" y="60" width="10" height="10"/><rect x="145" y="50" width="10" height="10"/><rect x="165" y="130" width="10" height="10"/><rect x="155" y="110" width="10" height="10"/><rect x="145" y="90" width="10" height="10"/><rect x="135" y="70" width="10" height="10"/><rect x="135" y="60" width="10" height="10"/><rect x="155" y="60" width="10" height="10"/><rect x="165" y="80" width="10" height="10"/><rect x="175" y="100" width="10" height="10"/><rect x="185" y="120" width="10" height="10"/><rect x="145" y="40" width="10" height="10"/></g></g></svg>