<?xml version="1.0" encoding="UTF-8" standalone="no"?><!DOCTYPE svg PUBLIC "-//W3C//DTD SVG 1.1//EN" "http://www.w3.org/Graphics/SVG/1.1/DTD/svg11.dtd"><svg width="100%" height="100%" viewBox="0 0 240 150" version="1.1" xmlns="http://www.w3.org/2000/svg" xmlns:xlink="http://www.w3.org/1999/xlink" xml:space="preserve" xmlns:serif="http://www.serif.com/" style="fill-rule:evenodd;clip-rule:evenodd;stroke-linejoin:round;stroke-miterlimit:2;"><rect id="_3d-sheet" serif:id="3d-sheet" x="0.179" y="0.692" width="240" height="150" style="fill:none;"/><g><path d="M140.178,41.791c0,0 26.684,53.367 41.065,82.128c1.692,3.385 5.151,5.523 8.935,5.523l20,-20c-3.784,0 -7.243,-2.138 -8.935,-5.523c-14.381,-28.761 -41.065,-82.128 -41.065,-82.128l-20,20"/><path d="M130.179,41.942l19.999,-20c0,0 -26.683,53.366 -41.064,82.128c-0.461,0.922 -1.053,1.751 -1.747,2.47l-20.059,20.06c-1.849,1.884 -4.405,2.992 -7.129,2.992c-3.784,0 -7.244,-2.138 -8.936,-5.522c-14.381,-28.762 -41.064,-82.128 -41.064,-82.128c0,0 19.999,-20 19.999,-20c0,0 26.684,53.366 41.065,82.128c1.147,2.294 3.106,4.016 5.428,4.887c14.566,-29.133 33.508,-67.015 33.508,-67.015"/></g></svg>