<?xml version="1.0" encoding="UTF-8" standalone="no"?><!DOCTYPE svg PUBLIC "-//W3C//DTD SVG 1.1//EN" "http://www.w3.org/Graphics/SVG/1.1/DTD/svg11.dtd"><svg width="100%" height="100%" viewBox="0 0 240 150" version="1.1" xmlns="http://www.w3.org/2000/svg" xmlns:xlink="http://www.w3.org/1999/xlink" xml:space="preserve" xmlns:serif="http://www.serif.com/" style="fill-rule:evenodd;clip-rule:evenodd;stroke-linejoin:round;stroke-miterlimit:2;"><rect id="Ascii" x="0.34" y="0.929" width="240" height="150" style="fill:none;"/><g id="Art-logo" serif:id="Art logo"></g><g><rect x="21.817" y="22.645" width="5.497" height="0.892" style="fill-rule:nonzero;stroke:#000;stroke-width:0.6px;"/><rect x="27.314" y="22.645" width="5.497" height="0.892" style="fill-rule:nonzero;stroke:#000;stroke-width:0.6px;"/><rect x="32.811" y="22.645" width="5.497" height="0.892" style="fill-rule:nonzero;stroke:#000;stroke-width:0.6px;"/><rect x="38.308" y="22.645" width="5.497" height="0.892" style="fill-rule:nonzero;stroke:#000;stroke-width:0.6px;"/><rect x="43.805" y="22.645" width="5.497" height="0.892" style="fill-rule:nonzero;stroke:#000;stroke-width:0.6px;"/><rect x="93.277" y="22.645" width="5.497" height="0.892" style="fill-rule:nonzero;stroke:#000;stroke-width:0.6px;"/><rect x="98.774" y="22.645" width="5.497" height="0.892" style="fill-rule:nonzero;stroke:#000;stroke-width:0.6px;"/><rect x="104.271" y="22.645" width="5.497" height="0.892" style="fill-rule:nonzero;stroke:#000;stroke-width:0.6px;"/><rect x="109.768" y="22.645" width="5.497" height="0.892" style="fill-rule:nonzero;stroke:#000;stroke-width:0.6px;"/><rect x="115.265" y="22.645" width="5.497" height="0.892" style="fill-rule:nonzero;stroke:#000;stroke-width:0.6px;"/><rect x="126.259" y="22.645" width="5.497" height="0.892" style="fill-rule:nonzero;stroke:#000;stroke-width:0.6px;"/><rect x="137.252" y="22.645" width="5.497" height="0.892" style="fill-rule:nonzero;stroke:#000;stroke-width:0.6px;"/><rect x="148.246" y="22.645" width="5.497" height="0.892" style="fill-rule:nonzero;stroke:#000;stroke-width:0.6px;"/><rect x="153.743" y="22.645" width="5.497" height="0.892" style="fill-rule:nonzero;stroke:#000;stroke-width:0.6px;"/><rect x="159.24" y="22.645" width="5.497" height="0.892" style="fill-rule:nonzero;stroke:#000;stroke-width:0.6px;"/><rect x="164.737" y="22.645" width="5.497" height="0.892" style="fill-rule:nonzero;stroke:#000;stroke-width:0.6px;"/><path d="M23.306,26.098l3.505,7.503l-0.995,0l-3.504,-7.503l0.994,0Z" style="fill-rule:nonzero;stroke:#000;stroke-width:0.6px;"/><path d="M50.791,26.098l3.504,7.503l-0.994,0l-3.504,-7.503l0.994,0Z" style="fill-rule:nonzero;stroke:#000;stroke-width:0.6px;"/><path d="M91.788,26.098l0.985,0l-3.504,7.503l-0.985,0l3.504,-7.503Z" style="fill-rule:nonzero;stroke:#000;stroke-width:0.6px;"/><path d="M119.273,26.098l0.985,0l-3.504,7.503l-0.985,0l3.504,-7.503Z" style="fill-rule:nonzero;stroke:#000;stroke-width:0.6px;"/><path d="M130.422,35.036l0,-1.163l0.714,0l0,1.163l-0.714,0Zm-2.835,0l0,-1.163l0.709,0l0,1.163l-0.709,0Zm1.418,-1.627l0,-1.163l0.709,0l0,1.163l-0.709,0Zm-2.836,0l0,-1.163l0.705,0l0,1.163l-0.705,0Zm4.253,-1.631l0,-1.164l0.714,0l0,1.164l-0.714,0Zm-2.835,0l0,-1.164l0.709,0l0,1.164l-0.709,0Zm1.418,-1.628l0,-1.163l0.709,0l0,1.163l-0.709,0Zm-2.836,0l0,-1.163l0.705,0l0,1.163l-0.705,0Zm4.253,-1.631l0,-1.164l0.714,0l0,1.164l-0.714,0Zm-2.835,0l0,-1.164l0.709,0l0,1.164l-0.709,0Zm1.418,-1.628l0,-1.163l0.709,0l0,1.163l-0.709,0Zm-2.836,0l0,-1.163l0.705,0l0,1.163l-0.705,0Z" style="fill-rule:nonzero;"/><path d="M135.763,26.098l0.986,0l-3.505,7.503l-0.985,0l3.504,-7.503Z" style="fill-rule:nonzero;stroke:#000;stroke-width:0.6px;"/><path d="M144.238,26.098l3.504,7.503l-0.994,0l-3.504,-7.503l0.994,0Z" style="fill-rule:nonzero;stroke:#000;stroke-width:0.6px;"/><path d="M157.907,35.036l0,-1.163l0.713,0l0,1.163l-0.713,0Zm-2.835,0l0,-1.163l0.708,0l0,1.163l-0.708,0Zm1.417,-1.627l0,-1.163l0.709,0l0,1.163l-0.709,0Zm-2.835,0l0,-1.163l0.704,0l0,1.163l-0.704,0Zm4.253,-1.631l0,-1.164l0.713,0l0,1.164l-0.713,0Zm-2.835,0l0,-1.164l0.708,0l0,1.164l-0.708,0Zm1.417,-1.628l0,-1.163l0.709,0l0,1.163l-0.709,0Zm-2.835,0l0,-1.163l0.704,0l0,1.163l-0.704,0Zm4.253,-1.631l0,-1.164l0.713,0l0,1.164l-0.713,0Zm-2.835,0l0,-1.164l0.708,0l0,1.164l-0.708,0Zm1.417,-1.628l0,-1.163l0.709,0l0,1.163l-0.709,0Zm-2.835,0l0,-1.163l0.704,0l0,1.163l-0.704,0Z" style="fill-rule:nonzero;"/><path d="M164.826,35.036l0,-1.163l-1.422,0l0,-1.164l1.422,0l0,-1.163l-1.422,0l0,-1.164l1.422,0l0,-1.163l-1.422,0l0,-1.164l1.422,0l0,-1.164l-1.422,0l0,-1.163l0.713,0l0,9.308l0.709,0Zm-2.131,0l0,-9.308l-0.709,0l0,1.163l1.418,0l0,1.164l-1.418,0l0,1.164l1.418,0l0,1.163l-1.418,0l0,1.164l1.418,0l0,1.163l-1.418,0l0,1.164l1.418,0l0,1.163l-0.709,0Zm-1.418,0l0,-9.308l-0.709,0l0,1.163l1.418,0l0,1.164l-1.418,0l0,1.164l1.418,0l0,1.163l-1.418,0l0,1.164l1.418,0l0,1.163l-1.418,0l0,1.164l1.418,0l0,1.163l-0.709,0Zm-1.422,0l0,-9.308l-0.704,0l0,1.163l1.417,0l0,1.164l-1.417,0l0,1.164l1.417,0l0,1.163l-1.417,0l0,1.164l1.417,0l0,1.163l-1.417,0l0,1.164l1.417,0l0,1.163l-0.713,0Z" style="fill-rule:nonzero;"/><path d="M164.648,35.036l0,-1.627l0.704,0l0,-1.163l-0.704,0l0,-2.096l0.704,0l0,-1.163l-0.704,0l0,-2.096l0.704,0l0,-1.163l2.131,0l0,1.163l0.709,0l0,-1.163l2.131,0l0,9.308l-0.709,0l0,-1.163l-0.713,0l0,1.163l-2.127,0l0,-1.163l-0.709,0l0,1.163l-1.417,0Zm1.417,-6.517l0.709,0l0,-1.164l-0.709,0l0,1.164Zm2.836,0l0.713,0l0,-1.164l-0.713,0l0,1.164Zm-1.418,1.631l0.709,0l0,-1.163l-0.709,0l0,1.163Zm-1.418,1.628l0.709,0l0,-1.164l-0.709,0l0,1.164Zm2.836,0l0.713,0l0,-1.164l-0.713,0l0,1.164Zm-1.418,1.631l0.709,0l0,-1.163l-0.709,0l0,1.163Z" style="fill-rule:nonzero;"/><path d="M171.723,26.098l3.504,7.503l-0.994,0l-3.504,-7.503l0.994,0Z" style="fill-rule:nonzero;stroke:#000;stroke-width:0.6px;"/><path d="M28.803,37.054l3.504,7.503l-0.994,0l-3.504,-7.503l0.994,0Z" style="fill-rule:nonzero;stroke:#000;stroke-width:0.6px;"/><path d="M56.288,37.054l3.504,7.503l-0.994,0l-3.504,-7.503l0.994,0Z" style="fill-rule:nonzero;stroke:#000;stroke-width:0.6px;"/><path d="M86.291,37.054l0.985,0l-3.504,7.503l-0.985,0l3.504,-7.503Z" style="fill-rule:nonzero;stroke:#000;stroke-width:0.6px;"/><path d="M113.776,37.054l0.985,0l-3.504,7.503l-0.985,0l3.504,-7.503Z" style="fill-rule:nonzero;stroke:#000;stroke-width:0.6px;"/><path d="M124.926,45.993l0,-1.164l0.713,0l0,1.164l-0.713,0Zm-2.836,0l0,-1.164l0.709,0l0,1.164l-0.709,0Zm1.418,-1.627l0,-1.164l0.709,0l0,1.164l-0.709,0Zm-2.836,0l0,-1.164l0.705,0l0,1.164l-0.705,0Zm4.254,-1.632l0,-1.164l0.713,0l0,1.164l-0.713,0Zm-2.836,0l0,-1.164l0.709,0l0,1.164l-0.709,0Zm1.418,-1.627l0,-1.164l0.709,0l0,1.164l-0.709,0Zm-2.836,0l0,-1.164l0.705,0l0,1.164l-0.705,0Zm4.254,-1.632l0,-1.164l0.713,0l0,1.164l-0.713,0Zm-2.836,0l0,-1.164l0.709,0l0,1.164l-0.709,0Zm1.418,-1.627l0,-1.164l0.709,0l0,1.164l-0.709,0Zm-2.836,0l0,-1.164l0.705,0l0,1.164l-0.705,0Z" style="fill-rule:nonzero;"/><path d="M130.266,37.054l0.986,0l-3.504,7.503l-0.986,0l3.504,-7.503Z" style="fill-rule:nonzero;stroke:#000;stroke-width:0.6px;"/><path d="M149.735,37.054l3.504,7.503l-0.994,0l-3.504,-7.503l0.994,0Z" style="fill-rule:nonzero;stroke:#000;stroke-width:0.6px;"/><path d="M163.404,45.993l0,-1.164l0.713,0l0,1.164l-0.713,0Zm-2.836,0l0,-1.164l0.709,0l0,1.164l-0.709,0Zm1.418,-1.627l0,-1.164l0.709,0l0,1.164l-0.709,0Zm-2.835,0l0,-1.164l0.704,0l0,1.164l-0.704,0Zm4.253,-1.632l0,-1.164l0.713,0l0,1.164l-0.713,0Zm-2.836,0l0,-1.164l0.709,0l0,1.164l-0.709,0Zm1.418,-1.627l0,-1.164l0.709,0l0,1.164l-0.709,0Zm-2.835,0l0,-1.164l0.704,0l0,1.164l-0.704,0Zm4.253,-1.632l0,-1.164l0.713,0l0,1.164l-0.713,0Zm-2.836,0l0,-1.164l0.709,0l0,1.164l-0.709,0Zm1.418,-1.627l0,-1.164l0.709,0l0,1.164l-0.709,0Zm-2.835,0l0,-1.164l0.704,0l0,1.164l-0.704,0Z" style="fill-rule:nonzero;"/><path d="M170.323,45.993l0,-1.164l-1.422,0l0,-1.163l1.422,0l0,-1.164l-1.422,0l0,-1.163l1.422,0l0,-1.164l-1.422,0l0,-1.164l1.422,0l0,-1.163l-1.422,0l0,-1.164l0.713,0l0,9.309l0.709,0Zm-2.131,0l0,-9.309l-0.709,0l0,1.164l1.418,0l0,1.163l-1.418,0l0,1.164l1.418,0l0,1.164l-1.418,0l0,1.163l1.418,0l0,1.164l-1.418,0l0,1.163l1.418,0l0,1.164l-0.709,0Zm-1.418,0l0,-9.309l-0.709,0l0,1.164l1.418,0l0,1.163l-1.418,0l0,1.164l1.418,0l0,1.164l-1.418,0l0,1.163l1.418,0l0,1.164l-1.418,0l0,1.163l1.418,0l0,1.164l-0.709,0Zm-1.422,0l0,-9.309l-0.704,0l0,1.164l1.417,0l0,1.163l-1.417,0l0,1.164l1.417,0l0,1.164l-1.417,0l0,1.163l1.417,0l0,1.164l-1.417,0l0,1.163l1.417,0l0,1.164l-0.713,0Z" style="fill-rule:nonzero;"/><path d="M170.145,45.993l0,-1.627l0.704,0l0,-1.164l-0.704,0l0,-2.095l0.704,0l0,-1.164l-0.704,0l0,-2.095l0.704,0l0,-1.164l2.131,0l0,1.164l0.709,0l0,-1.164l2.131,0l0,9.309l-0.709,0l0,-1.164l-0.713,0l0,1.164l-2.127,0l0,-1.164l-0.709,0l0,1.164l-1.417,0Zm1.417,-6.518l0.709,0l0,-1.164l-0.709,0l0,1.164Zm2.836,0l0.713,0l0,-1.164l-0.713,0l0,1.164Zm-1.418,1.632l0.709,0l0,-1.164l-0.709,0l0,1.164Zm-1.418,1.627l0.709,0l0,-1.164l-0.709,0l0,1.164Zm2.836,0l0.713,0l0,-1.164l-0.713,0l0,1.164Zm-1.418,1.632l0.709,0l0,-1.164l-0.709,0l0,1.164Z" style="fill-rule:nonzero;"/><path d="M177.22,37.054l3.504,7.503l-0.994,0l-3.505,-7.503l0.995,0Z" style="fill-rule:nonzero;stroke:#000;stroke-width:0.6px;"/><path d="M34.3,48.011l3.504,7.503l-0.994,0l-3.504,-7.503l0.994,0Z" style="fill-rule:nonzero;stroke:#000;stroke-width:0.6px;"/><path d="M61.785,48.011l3.504,7.503l-0.994,0l-3.504,-7.503l0.994,0Z" style="fill-rule:nonzero;stroke:#000;stroke-width:0.6px;"/><path d="M80.794,48.011l0.986,0l-3.505,7.503l-0.985,0l3.504,-7.503Z" style="fill-rule:nonzero;stroke:#000;stroke-width:0.6px;"/><path d="M108.279,48.011l0.985,0l-3.504,7.503l-0.985,0l3.504,-7.503Z" style="fill-rule:nonzero;stroke:#000;stroke-width:0.6px;"/><path d="M119.429,56.949l0,-1.163l0.713,0l0,1.163l-0.713,0Zm-2.836,0l0,-1.163l0.709,0l0,1.163l-0.709,0Zm1.418,-1.627l0,-1.164l0.709,0l0,1.164l-0.709,0Zm-2.835,0l0,-1.164l0.704,0l0,1.164l-0.704,0Zm4.253,-1.632l0,-1.163l0.713,0l0,1.163l-0.713,0Zm-2.836,0l0,-1.163l0.709,0l0,1.163l-0.709,0Zm1.418,-1.627l0,-1.164l0.709,0l0,1.164l-0.709,0Zm-2.835,0l0,-1.164l0.704,0l0,1.164l-0.704,0Zm4.253,-1.632l0,-1.163l0.713,0l0,1.163l-0.713,0Zm-2.836,0l0,-1.163l0.709,0l0,1.163l-0.709,0Zm1.418,-1.627l0,-1.163l0.709,0l0,1.163l-0.709,0Zm-2.835,0l0,-1.163l0.704,0l0,1.163l-0.704,0Z" style="fill-rule:nonzero;"/><path d="M126.348,56.949l0,-1.163l-1.422,0l0,-1.164l1.422,0l0,-1.164l-1.422,0l0,-1.163l1.422,0l0,-1.164l-1.422,0l0,-1.163l1.422,0l0,-1.164l-1.422,0l0,-1.163l0.713,0l0,9.308l0.709,0Zm-2.131,0l0,-9.308l-0.709,0l0,1.163l1.418,0l0,1.164l-1.418,0l0,1.163l1.418,0l0,1.164l-1.418,0l0,1.163l1.418,0l0,1.164l-1.418,0l0,1.164l1.418,0l0,1.163l-0.709,0Zm-1.418,0l0,-9.308l-0.709,0l0,1.163l1.418,0l0,1.164l-1.418,0l0,1.163l1.418,0l0,1.164l-1.418,0l0,1.163l1.418,0l0,1.164l-1.418,0l0,1.164l1.418,0l0,1.163l-0.709,0Zm-1.422,0l0,-9.308l-0.705,0l0,1.163l1.418,0l0,1.164l-1.418,0l0,1.163l1.418,0l0,1.164l-1.418,0l0,1.163l1.418,0l0,1.164l-1.418,0l0,1.164l1.418,0l0,1.163l-0.713,0Z" style="fill-rule:nonzero;"/><path d="M127.748,48.011l3.504,7.503l-0.995,0l-3.504,-7.503l0.995,0Z" style="fill-rule:nonzero;stroke:#000;stroke-width:0.6px;"/><path d="M155.232,48.011l3.504,7.503l-0.994,0l-3.504,-7.503l0.994,0Z" style="fill-rule:nonzero;stroke:#000;stroke-width:0.6px;"/><path d="M168.901,56.949l0,-1.163l0.713,0l0,1.163l-0.713,0Zm-2.836,0l0,-1.163l0.709,0l0,1.163l-0.709,0Zm1.418,-1.627l0,-1.164l0.709,0l0,1.164l-0.709,0Zm-2.835,0l0,-1.164l0.704,0l0,1.164l-0.704,0Zm4.253,-1.632l0,-1.163l0.713,0l0,1.163l-0.713,0Zm-2.836,0l0,-1.163l0.709,0l0,1.163l-0.709,0Zm1.418,-1.627l0,-1.164l0.709,0l0,1.164l-0.709,0Zm-2.835,0l0,-1.164l0.704,0l0,1.164l-0.704,0Zm4.253,-1.632l0,-1.163l0.713,0l0,1.163l-0.713,0Zm-2.836,0l0,-1.163l0.709,0l0,1.163l-0.709,0Zm1.418,-1.627l0,-1.163l0.709,0l0,1.163l-0.709,0Zm-2.835,0l0,-1.163l0.704,0l0,1.163l-0.704,0Z" style="fill-rule:nonzero;"/><path d="M175.82,56.949l0,-1.163l-1.422,0l0,-1.164l1.422,0l0,-1.164l-1.422,0l0,-1.163l1.422,0l0,-1.164l-1.422,0l0,-1.163l1.422,0l0,-1.164l-1.422,0l0,-1.163l0.713,0l0,9.308l0.709,0Zm-2.131,0l0,-9.308l-0.709,0l0,1.163l1.418,0l0,1.164l-1.418,0l0,1.163l1.418,0l0,1.164l-1.418,0l0,1.163l1.418,0l0,1.164l-1.418,0l0,1.164l1.418,0l0,1.163l-0.709,0Zm-1.418,0l0,-9.308l-0.709,0l0,1.163l1.418,0l0,1.164l-1.418,0l0,1.163l1.418,0l0,1.164l-1.418,0l0,1.163l1.418,0l0,1.164l-1.418,0l0,1.164l1.418,0l0,1.163l-0.709,0Zm-1.422,0l0,-9.308l-0.704,0l0,1.163l1.417,0l0,1.164l-1.417,0l0,1.163l1.417,0l0,1.164l-1.417,0l0,1.163l1.417,0l0,1.164l-1.417,0l0,1.164l1.417,0l0,1.163l-0.713,0Z" style="fill-rule:nonzero;"/><path d="M175.641,56.949l0,-1.627l0.705,0l0,-1.164l-0.705,0l0,-2.095l0.705,0l0,-1.164l-0.705,0l0,-2.095l0.705,0l0,-1.163l2.131,0l0,1.163l0.709,0l0,-1.163l2.131,0l0,9.308l-0.709,0l0,-1.163l-0.713,0l0,1.163l-2.127,0l0,-1.163l-0.709,0l0,1.163l-1.418,0Zm1.418,-6.518l0.709,0l0,-1.163l-0.709,0l0,1.163Zm2.836,0l0.713,0l0,-1.163l-0.713,0l0,1.163Zm-1.418,1.632l0.709,0l0,-1.164l-0.709,0l0,1.164Zm-1.418,1.627l0.709,0l0,-1.163l-0.709,0l0,1.163Zm2.836,0l0.713,0l0,-1.163l-0.713,0l0,1.163Zm-1.418,1.632l0.709,0l0,-1.164l-0.709,0l0,1.164Z" style="fill-rule:nonzero;"/><path d="M182.717,48.011l3.504,7.503l-0.995,0l-3.504,-7.503l0.995,0Z" style="fill-rule:nonzero;stroke:#000;stroke-width:0.6px;"/><path d="M39.797,58.967l3.504,7.503l-0.994,0l-3.504,-7.503l0.994,0Z" style="fill-rule:nonzero;stroke:#000;stroke-width:0.6px;"/><path d="M67.282,58.967l3.504,7.503l-0.994,0l-3.504,-7.503l0.994,0Z" style="fill-rule:nonzero;stroke:#000;stroke-width:0.6px;"/><path d="M75.297,58.967l0.986,0l-3.504,7.503l-0.986,0l3.504,-7.503Z" style="fill-rule:nonzero;stroke:#000;stroke-width:0.6px;"/><path d="M102.782,58.967l0.985,0l-3.504,7.503l-0.985,0l3.504,-7.503Z" style="fill-rule:nonzero;stroke:#000;stroke-width:0.6px;"/><path d="M113.932,67.906l0,-1.164l0.713,0l0,1.164l-0.713,0Zm-2.836,0l0,-1.164l0.709,0l0,1.164l-0.709,0Zm1.418,-1.628l0,-1.163l0.709,0l0,1.163l-0.709,0Zm-2.835,0l0,-1.163l0.704,0l0,1.163l-0.704,0Zm4.253,-1.631l0,-1.164l0.713,0l0,1.164l-0.713,0Zm-2.836,0l0,-1.164l0.709,0l0,1.164l-0.709,0Zm1.418,-1.628l0,-1.163l0.709,0l0,1.163l-0.709,0Zm-2.835,0l0,-1.163l0.704,0l0,1.163l-0.704,0Zm4.253,-1.631l0,-1.164l0.713,0l0,1.164l-0.713,0Zm-2.836,0l0,-1.164l0.709,0l0,1.164l-0.709,0Zm1.418,-1.627l0,-1.164l0.709,0l0,1.164l-0.709,0Zm-2.835,0l0,-1.164l0.704,0l0,1.164l-0.704,0Z" style="fill-rule:nonzero;"/><path d="M120.851,67.906l0,-1.164l-1.422,0l0,-1.164l1.422,0l0,-1.163l-1.422,0l0,-1.164l1.422,0l0,-1.163l-1.422,0l0,-1.164l1.422,0l0,-1.163l-1.422,0l0,-1.164l0.713,0l0,9.309l0.709,0Zm-2.131,0l0,-9.309l-0.709,0l0,1.164l1.418,0l0,1.163l-1.418,0l0,1.164l1.418,0l0,1.163l-1.418,0l0,1.164l1.418,0l0,1.163l-1.418,0l0,1.164l1.418,0l0,1.164l-0.709,0Zm-1.418,0l0,-9.309l-0.709,0l0,1.164l1.418,0l0,1.163l-1.418,0l0,1.164l1.418,0l0,1.163l-1.418,0l0,1.164l1.418,0l0,1.163l-1.418,0l0,1.164l1.418,0l0,1.164l-0.709,0Zm-1.422,0l0,-9.309l-0.704,0l0,1.164l1.417,0l0,1.163l-1.417,0l0,1.164l1.417,0l0,1.163l-1.417,0l0,1.164l1.417,0l0,1.163l-1.417,0l0,1.164l1.417,0l0,1.164l-0.713,0Z" style="fill-rule:nonzero;"/><path d="M120.672,67.906l0,-1.628l0.705,0l0,-1.163l-0.705,0l0,-2.096l0.705,0l0,-1.163l-0.705,0l0,-2.095l0.705,0l0,-1.164l2.131,0l0,1.164l0.709,0l0,-1.164l2.131,0l0,9.309l-0.709,0l0,-1.164l-0.713,0l0,1.164l-2.127,0l0,-1.164l-0.709,0l0,1.164l-1.418,0Zm1.418,-6.518l0.709,0l0,-1.164l-0.709,0l0,1.164Zm2.836,0l0.713,0l0,-1.164l-0.713,0l0,1.164Zm-1.418,1.631l0.709,0l0,-1.163l-0.709,0l0,1.163Zm-1.418,1.628l0.709,0l0,-1.164l-0.709,0l0,1.164Zm2.836,0l0.713,0l0,-1.164l-0.713,0l0,1.164Zm-1.418,1.631l0.709,0l0,-1.163l-0.709,0l0,1.163Z" style="fill-rule:nonzero;"/><path d="M130.266,58.967l0.986,0l-3.504,7.503l-0.986,0l3.504,-7.503Z" style="fill-rule:nonzero;stroke:#000;stroke-width:0.6px;"/><path d="M133.244,58.967l3.505,7.503l-0.995,0l-3.504,-7.503l0.994,0Z" style="fill-rule:nonzero;stroke:#000;stroke-width:0.6px;"/><path d="M160.729,58.967l3.504,7.503l-0.994,0l-3.504,-7.503l0.994,0Z" style="fill-rule:nonzero;stroke:#000;stroke-width:0.6px;"/><path d="M174.398,67.906l0,-1.164l0.713,0l0,1.164l-0.713,0Zm-2.836,0l0,-1.164l0.709,0l0,1.164l-0.709,0Zm1.418,-1.628l0,-1.163l0.709,0l0,1.163l-0.709,0Zm-2.835,0l0,-1.163l0.704,0l0,1.163l-0.704,0Zm4.253,-1.631l0,-1.164l0.713,0l0,1.164l-0.713,0Zm-2.836,0l0,-1.164l0.709,0l0,1.164l-0.709,0Zm1.418,-1.628l0,-1.163l0.709,0l0,1.163l-0.709,0Zm-2.835,0l0,-1.163l0.704,0l0,1.163l-0.704,0Zm4.253,-1.631l0,-1.164l0.713,0l0,1.164l-0.713,0Zm-2.836,0l0,-1.164l0.709,0l0,1.164l-0.709,0Zm1.418,-1.627l0,-1.164l0.709,0l0,1.164l-0.709,0Zm-2.835,0l0,-1.164l0.704,0l0,1.164l-0.704,0Z" style="fill-rule:nonzero;"/><path d="M181.317,67.906l0,-1.164l-1.422,0l0,-1.164l1.422,0l0,-1.163l-1.422,0l0,-1.164l1.422,0l0,-1.163l-1.422,0l0,-1.164l1.422,0l0,-1.163l-1.422,0l0,-1.164l0.713,0l0,9.309l0.709,0Zm-2.131,0l0,-9.309l-0.709,0l0,1.164l1.418,0l0,1.163l-1.418,0l0,1.164l1.418,0l0,1.163l-1.418,0l0,1.164l1.418,0l0,1.163l-1.418,0l0,1.164l1.418,0l0,1.164l-0.709,0Zm-1.418,0l0,-9.309l-0.709,0l0,1.164l1.418,0l0,1.163l-1.418,0l0,1.164l1.418,0l0,1.163l-1.418,0l0,1.164l1.418,0l0,1.163l-1.418,0l0,1.164l1.418,0l0,1.164l-0.709,0Zm-1.422,0l0,-9.309l-0.705,0l0,1.164l1.418,0l0,1.163l-1.418,0l0,1.164l1.418,0l0,1.163l-1.418,0l0,1.164l1.418,0l0,1.163l-1.418,0l0,1.164l1.418,0l0,1.164l-0.713,0Z" style="fill-rule:nonzero;"/><path d="M181.138,67.906l0,-1.628l0.705,0l0,-1.163l-0.705,0l0,-2.096l0.705,0l0,-1.163l-0.705,0l0,-2.095l0.705,0l0,-1.164l2.131,0l0,1.164l0.709,0l0,-1.164l2.131,0l0,9.309l-0.709,0l0,-1.164l-0.714,0l0,1.164l-2.126,0l0,-1.164l-0.709,0l0,1.164l-1.418,0Zm1.418,-6.518l0.709,0l0,-1.164l-0.709,0l0,1.164Zm2.835,0l0.714,0l0,-1.164l-0.714,0l0,1.164Zm-1.417,1.631l0.709,0l0,-1.163l-0.709,0l0,1.163Zm-1.418,1.628l0.709,0l0,-1.164l-0.709,0l0,1.164Zm2.835,0l0.714,0l0,-1.164l-0.714,0l0,1.164Zm-1.417,1.631l0.709,0l0,-1.163l-0.709,0l0,1.163Z" style="fill-rule:nonzero;"/><path d="M188.213,58.967l3.505,7.503l-0.995,0l-3.504,-7.503l0.994,0Z" style="fill-rule:nonzero;stroke:#000;stroke-width:0.6px;"/><path d="M45.294,69.923l3.504,7.503l-0.994,0l-3.504,-7.503l0.994,0Z" style="fill-rule:nonzero;stroke:#000;stroke-width:0.6px;"/><path d="M97.285,69.923l0.985,0l-3.504,7.503l-0.985,0l3.504,-7.503Z" style="fill-rule:nonzero;stroke:#000;stroke-width:0.6px;"/><path d="M108.435,78.862l0,-1.164l0.713,0l0,1.164l-0.713,0Zm-2.836,0l0,-1.164l0.709,0l0,1.164l-0.709,0Zm1.418,-1.627l0,-1.164l0.709,0l0,1.164l-0.709,0Zm-2.835,0l0,-1.164l0.704,0l0,1.164l-0.704,0Zm4.253,-1.632l0,-1.164l0.713,0l0,1.164l-0.713,0Zm-2.836,0l0,-1.164l0.709,0l0,1.164l-0.709,0Zm1.418,-1.627l0,-1.164l0.709,0l0,1.164l-0.709,0Zm-2.835,0l0,-1.164l0.704,0l0,1.164l-0.704,0Zm4.253,-1.632l0,-1.164l0.713,0l0,1.164l-0.713,0Zm-2.836,0l0,-1.164l0.709,0l0,1.164l-0.709,0Zm1.418,-1.627l0,-1.164l0.709,0l0,1.164l-0.709,0Zm-2.835,0l0,-1.164l0.704,0l0,1.164l-0.704,0Z" style="fill-rule:nonzero;"/><path d="M115.354,78.862l0,-1.164l-1.422,0l0,-1.163l1.422,0l0,-1.164l-1.422,0l0,-1.163l1.422,0l0,-1.164l-1.422,0l0,-1.164l1.422,0l0,-1.163l-1.422,0l0,-1.164l0.713,0l0,9.309l0.709,0Zm-2.131,0l0,-9.309l-0.709,0l0,1.164l1.418,0l0,1.163l-1.418,0l0,1.164l1.418,0l0,1.164l-1.418,0l0,1.163l1.418,0l0,1.164l-1.418,0l0,1.163l1.418,0l0,1.164l-0.709,0Zm-1.418,0l0,-9.309l-0.709,0l0,1.164l1.418,0l0,1.163l-1.418,0l0,1.164l1.418,0l0,1.164l-1.418,0l0,1.163l1.418,0l0,1.164l-1.418,0l0,1.163l1.418,0l0,1.164l-0.709,0Zm-1.422,0l0,-9.309l-0.704,0l0,1.164l1.417,0l0,1.163l-1.417,0l0,1.164l1.417,0l0,1.164l-1.417,0l0,1.163l1.417,0l0,1.164l-1.417,0l0,1.163l1.417,0l0,1.164l-0.713,0Z" style="fill-rule:nonzero;"/><path d="M115.176,78.862l0,-1.627l0.704,0l0,-1.164l-0.704,0l0,-2.095l0.704,0l0,-1.164l-0.704,0l0,-2.095l0.704,0l0,-1.164l2.131,0l0,1.164l0.709,0l0,-1.164l2.131,0l0,9.309l-0.709,0l0,-1.164l-0.713,0l0,1.164l-2.127,0l0,-1.164l-0.709,0l0,1.164l-1.417,0Zm1.417,-6.518l0.709,0l0,-1.164l-0.709,0l0,1.164Zm2.836,0l0.713,0l0,-1.164l-0.713,0l0,1.164Zm-1.418,1.632l0.709,0l0,-1.164l-0.709,0l0,1.164Zm-1.418,1.627l0.709,0l0,-1.164l-0.709,0l0,1.164Zm2.836,0l0.713,0l0,-1.164l-0.713,0l0,1.164Zm-1.418,1.632l0.709,0l0,-1.164l-0.709,0l0,1.164Z" style="fill-rule:nonzero;"/><path d="M124.77,69.923l0.985,0l-3.504,7.503l-0.986,0l3.505,-7.503Z" style="fill-rule:nonzero;stroke:#000;stroke-width:0.6px;"/><path d="M138.741,69.923l3.504,7.503l-0.994,0l-3.504,-7.503l0.994,0Z" style="fill-rule:nonzero;stroke:#000;stroke-width:0.6px;"/><path d="M166.226,69.923l3.504,7.503l-0.994,0l-3.504,-7.503l0.994,0Z" style="fill-rule:nonzero;stroke:#000;stroke-width:0.6px;"/><path d="M179.895,78.862l0,-1.164l0.713,0l0,1.164l-0.713,0Zm-2.836,0l0,-1.164l0.709,0l0,1.164l-0.709,0Zm1.418,-1.627l0,-1.164l0.709,0l0,1.164l-0.709,0Zm-2.836,0l0,-1.164l0.705,0l0,1.164l-0.705,0Zm4.254,-1.632l0,-1.164l0.713,0l0,1.164l-0.713,0Zm-2.836,0l0,-1.164l0.709,0l0,1.164l-0.709,0Zm1.418,-1.627l0,-1.164l0.709,0l0,1.164l-0.709,0Zm-2.836,0l0,-1.164l0.705,0l0,1.164l-0.705,0Zm4.254,-1.632l0,-1.164l0.713,0l0,1.164l-0.713,0Zm-2.836,0l0,-1.164l0.709,0l0,1.164l-0.709,0Zm1.418,-1.627l0,-1.164l0.709,0l0,1.164l-0.709,0Zm-2.836,0l0,-1.164l0.705,0l0,1.164l-0.705,0Z" style="fill-rule:nonzero;"/><path d="M186.814,78.862l0,-1.164l-1.423,0l0,-1.163l1.423,0l0,-1.164l-1.423,0l0,-1.163l1.423,0l0,-1.164l-1.423,0l0,-1.164l1.423,0l0,-1.163l-1.423,0l0,-1.164l0.714,0l0,9.309l0.709,0Zm-2.131,0l0,-9.309l-0.709,0l0,1.164l1.417,0l0,1.163l-1.417,0l0,1.164l1.417,0l0,1.164l-1.417,0l0,1.163l1.417,0l0,1.164l-1.417,0l0,1.163l1.417,0l0,1.164l-0.708,0Zm-1.418,0l0,-9.309l-0.709,0l0,1.164l1.418,0l0,1.163l-1.418,0l0,1.164l1.418,0l0,1.164l-1.418,0l0,1.163l1.418,0l0,1.164l-1.418,0l0,1.163l1.418,0l0,1.164l-0.709,0Zm-1.422,0l0,-9.309l-0.705,0l0,1.164l1.418,0l0,1.163l-1.418,0l0,1.164l1.418,0l0,1.164l-1.418,0l0,1.163l1.418,0l0,1.164l-1.418,0l0,1.163l1.418,0l0,1.164l-0.713,0Z" style="fill-rule:nonzero;"/><path d="M186.635,78.862l0,-1.627l0.705,0l0,-1.164l-0.705,0l0,-2.095l0.705,0l0,-1.164l-0.705,0l0,-2.095l0.705,0l0,-1.164l2.131,0l0,1.164l0.708,0l0,-1.164l2.131,0l0,9.309l-0.708,0l0,-1.164l-0.714,0l0,1.164l-2.126,0l0,-1.164l-0.709,0l0,1.164l-1.418,0Zm1.418,-6.518l0.709,0l0,-1.164l-0.709,0l0,1.164Zm2.835,0l0.714,0l0,-1.164l-0.714,0l0,1.164Zm-1.417,1.632l0.708,0l0,-1.164l-0.708,0l0,1.164Zm-1.418,1.627l0.709,0l0,-1.164l-0.709,0l0,1.164Zm2.835,0l0.714,0l0,-1.164l-0.714,0l0,1.164Zm-1.417,1.632l0.708,0l0,-1.164l-0.708,0l0,1.164Z" style="fill-rule:nonzero;"/><path d="M193.71,69.923l3.504,7.503l-0.994,0l-3.504,-7.503l0.994,0Z" style="fill-rule:nonzero;stroke:#000;stroke-width:0.6px;"/><path d="M50.791,80.88l3.504,7.503l-0.994,0l-3.504,-7.503l0.994,0Z" style="fill-rule:nonzero;stroke:#000;stroke-width:0.6px;"/><path d="M91.788,80.88l0.985,0l-3.504,7.503l-0.985,0l3.504,-7.503Z" style="fill-rule:nonzero;stroke:#000;stroke-width:0.6px;"/><path d="M102.938,89.818l0,-1.163l0.713,0l0,1.163l-0.713,0Zm-2.835,0l0,-1.163l0.708,0l0,1.163l-0.708,0Zm1.417,-1.627l0,-1.164l0.709,0l0,1.164l-0.709,0Zm-2.835,0l0,-1.164l0.704,0l0,1.164l-0.704,0Zm4.253,-1.632l0,-1.163l0.713,0l0,1.163l-0.713,0Zm-2.835,0l0,-1.163l0.708,0l0,1.163l-0.708,0Zm1.417,-1.627l0,-1.163l0.709,0l0,1.163l-0.709,0Zm-2.835,0l0,-1.163l0.704,0l0,1.163l-0.704,0Zm4.253,-1.632l0,-1.163l0.713,0l0,1.163l-0.713,0Zm-2.835,0l0,-1.163l0.708,0l0,1.163l-0.708,0Zm1.417,-1.627l0,-1.163l0.709,0l0,1.163l-0.709,0Zm-2.835,0l0,-1.163l0.704,0l0,1.163l-0.704,0Z" style="fill-rule:nonzero;"/><path d="M109.857,89.818l0,-1.163l-1.422,0l0,-1.164l1.422,0l0,-1.163l-1.422,0l0,-1.164l1.422,0l0,-1.164l-1.422,0l0,-1.163l1.422,0l0,-1.164l-1.422,0l0,-1.163l0.713,0l0,9.308l0.709,0Zm-2.131,0l0,-9.308l-0.709,0l0,1.163l1.418,0l0,1.164l-1.418,0l0,1.163l1.418,0l0,1.164l-1.418,0l0,1.164l1.418,0l0,1.163l-1.418,0l0,1.164l1.418,0l0,1.163l-0.709,0Zm-1.418,0l0,-9.308l-0.709,0l0,1.163l1.418,0l0,1.164l-1.418,0l0,1.163l1.418,0l0,1.164l-1.418,0l0,1.164l1.418,0l0,1.163l-1.418,0l0,1.164l1.418,0l0,1.163l-0.709,0Zm-1.422,0l0,-9.308l-0.704,0l0,1.163l1.417,0l0,1.164l-1.417,0l0,1.163l1.417,0l0,1.164l-1.417,0l0,1.164l1.417,0l0,1.163l-1.417,0l0,1.164l1.417,0l0,1.163l-0.713,0Z" style="fill-rule:nonzero;"/><path d="M109.679,89.818l0,-1.627l0.704,0l0,-1.164l-0.704,0l0,-2.095l0.704,0l0,-1.163l-0.704,0l0,-2.096l0.704,0l0,-1.163l2.131,0l0,1.163l0.709,0l0,-1.163l2.131,0l0,9.308l-0.709,0l0,-1.163l-0.713,0l0,1.163l-2.127,0l0,-1.163l-0.709,0l0,1.163l-1.417,0Zm1.417,-6.518l0.709,0l0,-1.163l-0.709,0l0,1.163Zm2.836,0l0.713,0l0,-1.163l-0.713,0l0,1.163Zm-1.418,1.632l0.709,0l0,-1.163l-0.709,0l0,1.163Zm-1.418,1.627l0.709,0l0,-1.163l-0.709,0l0,1.163Zm2.836,0l0.713,0l0,-1.163l-0.713,0l0,1.163Zm-1.418,1.632l0.709,0l0,-1.164l-0.709,0l0,1.164Z" style="fill-rule:nonzero;"/><path d="M119.273,80.88l0.985,0l-3.504,7.503l-0.985,0l3.504,-7.503Z" style="fill-rule:nonzero;stroke:#000;stroke-width:0.6px;"/><path d="M144.238,80.88l3.504,7.503l-0.994,0l-3.504,-7.503l0.994,0Z" style="fill-rule:nonzero;stroke:#000;stroke-width:0.6px;"/><path d="M171.723,80.88l3.504,7.503l-0.994,0l-3.504,-7.503l0.994,0Z" style="fill-rule:nonzero;stroke:#000;stroke-width:0.6px;"/><path d="M185.391,89.818l0,-1.163l0.714,0l0,1.163l-0.714,0Zm-2.835,0l0,-1.163l0.709,0l0,1.163l-0.709,0Zm1.418,-1.627l0,-1.164l0.709,0l0,1.164l-0.709,0Zm-2.836,0l0,-1.164l0.705,0l0,1.164l-0.705,0Zm4.253,-1.632l0,-1.163l0.714,0l0,1.163l-0.714,0Zm-2.835,0l0,-1.163l0.709,0l0,1.163l-0.709,0Zm1.418,-1.627l0,-1.163l0.709,0l0,1.163l-0.709,0Zm-2.836,0l0,-1.163l0.705,0l0,1.163l-0.705,0Zm4.253,-1.632l0,-1.163l0.714,0l0,1.163l-0.714,0Zm-2.835,0l0,-1.163l0.709,0l0,1.163l-0.709,0Zm1.418,-1.627l0,-1.163l0.709,0l0,1.163l-0.709,0Zm-2.836,0l0,-1.163l0.705,0l0,1.163l-0.705,0Z" style="fill-rule:nonzero;"/><path d="M192.31,89.818l0,-1.163l-1.422,0l0,-1.164l1.422,0l0,-1.163l-1.422,0l0,-1.164l1.422,0l0,-1.164l-1.422,0l0,-1.163l1.422,0l0,-1.164l-1.422,0l0,-1.163l0.714,0l0,9.308l0.708,0Zm-2.131,0l0,-9.308l-0.708,0l0,1.163l1.417,0l0,1.164l-1.417,0l0,1.163l1.417,0l0,1.164l-1.417,0l0,1.164l1.417,0l0,1.163l-1.417,0l0,1.164l1.417,0l0,1.163l-0.709,0Zm-1.417,0l0,-9.308l-0.709,0l0,1.163l1.418,0l0,1.164l-1.418,0l0,1.163l1.418,0l0,1.164l-1.418,0l0,1.164l1.418,0l0,1.163l-1.418,0l0,1.164l1.418,0l0,1.163l-0.709,0Zm-1.422,0l0,-9.308l-0.705,0l0,1.163l1.418,0l0,1.164l-1.418,0l0,1.163l1.418,0l0,1.164l-1.418,0l0,1.164l1.418,0l0,1.163l-1.418,0l0,1.164l1.418,0l0,1.163l-0.713,0Z" style="fill-rule:nonzero;"/><path d="M192.132,89.818l0,-1.627l0.705,0l0,-1.164l-0.705,0l0,-2.095l0.705,0l0,-1.163l-0.705,0l0,-2.096l0.705,0l0,-1.163l2.131,0l0,1.163l0.708,0l0,-1.163l2.131,0l0,9.308l-0.708,0l0,-1.163l-0.714,0l0,1.163l-2.126,0l0,-1.163l-0.709,0l0,1.163l-1.418,0Zm1.418,-6.518l0.709,0l0,-1.163l-0.709,0l0,1.163Zm2.835,0l0.714,0l0,-1.163l-0.714,0l0,1.163Zm-1.417,1.632l0.708,0l0,-1.163l-0.708,0l0,1.163Zm-1.418,1.627l0.709,0l0,-1.163l-0.709,0l0,1.163Zm2.835,0l0.714,0l0,-1.163l-0.714,0l0,1.163Zm-1.417,1.632l0.708,0l0,-1.164l-0.708,0l0,1.164Z" style="fill-rule:nonzero;"/><path d="M199.207,80.88l3.504,7.503l-0.994,0l-3.504,-7.503l0.994,0Z" style="fill-rule:nonzero;stroke:#000;stroke-width:0.6px;"/><path d="M56.288,91.836l3.504,7.503l-0.994,0l-3.504,-7.503l0.994,0Z" style="fill-rule:nonzero;stroke:#000;stroke-width:0.6px;"/><path d="M86.291,91.836l0.985,0l-3.504,7.503l-0.985,0l3.504,-7.503Z" style="fill-rule:nonzero;stroke:#000;stroke-width:0.6px;"/><path d="M97.441,100.775l0,-1.164l0.713,0l0,1.164l-0.713,0Zm-2.835,0l0,-1.164l0.709,0l0,1.164l-0.709,0Zm1.417,-1.628l0,-1.163l0.709,0l0,1.163l-0.709,0Zm-2.835,0l0,-1.163l0.704,0l0,1.163l-0.704,0Zm4.253,-1.631l0,-1.164l0.713,0l0,1.164l-0.713,0Zm-2.835,0l0,-1.164l0.709,0l0,1.164l-0.709,0Zm1.417,-1.628l0,-1.163l0.709,0l0,1.163l-0.709,0Zm-2.835,0l0,-1.163l0.704,0l0,1.163l-0.704,0Zm4.253,-1.631l0,-1.164l0.713,0l0,1.164l-0.713,0Zm-2.835,0l0,-1.164l0.709,0l0,1.164l-0.709,0Zm1.417,-1.627l0,-1.164l0.709,0l0,1.164l-0.709,0Zm-2.835,0l0,-1.164l0.704,0l0,1.164l-0.704,0Z" style="fill-rule:nonzero;"/><path d="M104.36,100.775l0,-1.164l-1.422,0l0,-1.164l1.422,0l0,-1.163l-1.422,0l0,-1.164l1.422,0l0,-1.163l-1.422,0l0,-1.164l1.422,0l0,-1.163l-1.422,0l0,-1.164l0.713,0l0,9.309l0.709,0Zm-2.131,0l0,-9.309l-0.709,0l0,1.164l1.418,0l0,1.163l-1.418,0l0,1.164l1.418,0l0,1.163l-1.418,0l0,1.164l1.418,0l0,1.163l-1.418,0l0,1.164l1.418,0l0,1.164l-0.709,0Zm-1.418,0l0,-9.309l-0.708,0l0,1.164l1.417,0l0,1.163l-1.417,0l0,1.164l1.417,0l0,1.163l-1.417,0l0,1.164l1.417,0l0,1.163l-1.417,0l0,1.164l1.417,0l0,1.164l-0.709,0Zm-1.422,0l0,-9.309l-0.704,0l0,1.164l1.418,0l0,1.163l-1.418,0l0,1.164l1.418,0l0,1.163l-1.418,0l0,1.164l1.418,0l0,1.163l-1.418,0l0,1.164l1.418,0l0,1.164l-0.714,0Z" style="fill-rule:nonzero;"/><path d="M104.182,100.775l0,-1.628l0.704,0l0,-1.163l-0.704,0l0,-2.096l0.704,0l0,-1.163l-0.704,0l0,-2.095l0.704,0l0,-1.164l2.131,0l0,1.164l0.709,0l0,-1.164l2.131,0l0,9.309l-0.709,0l0,-1.164l-0.713,0l0,1.164l-2.127,0l0,-1.164l-0.709,0l0,1.164l-1.417,0Zm1.417,-6.518l0.709,0l0,-1.164l-0.709,0l0,1.164Zm2.836,0l0.713,0l0,-1.164l-0.713,0l0,1.164Zm-1.418,1.631l0.709,0l0,-1.163l-0.709,0l0,1.163Zm-1.418,1.628l0.709,0l0,-1.164l-0.709,0l0,1.164Zm2.836,0l0.713,0l0,-1.164l-0.713,0l0,1.164Zm-1.418,1.631l0.709,0l0,-1.163l-0.709,0l0,1.163Z" style="fill-rule:nonzero;"/><path d="M113.776,91.836l0.985,0l-3.504,7.503l-0.985,0l3.504,-7.503Z" style="fill-rule:nonzero;stroke:#000;stroke-width:0.6px;"/><path d="M149.735,91.836l3.504,7.503l-0.994,0l-3.504,-7.503l0.994,0Z" style="fill-rule:nonzero;stroke:#000;stroke-width:0.6px;"/><path d="M177.22,91.836l3.504,7.503l-0.994,0l-3.505,-7.503l0.995,0Z" style="fill-rule:nonzero;stroke:#000;stroke-width:0.6px;"/><path d="M190.888,100.775l0,-1.164l0.714,0l0,1.164l-0.714,0Zm-2.835,0l0,-1.164l0.709,0l0,1.164l-0.709,0Zm1.418,-1.628l0,-1.163l0.708,0l0,1.163l-0.708,0Zm-2.836,0l0,-1.163l0.705,0l0,1.163l-0.705,0Zm4.253,-1.631l0,-1.164l0.714,0l0,1.164l-0.714,0Zm-2.835,0l0,-1.164l0.709,0l0,1.164l-0.709,0Zm1.418,-1.628l0,-1.163l0.708,0l0,1.163l-0.708,0Zm-2.836,0l0,-1.163l0.705,0l0,1.163l-0.705,0Zm4.253,-1.631l0,-1.164l0.714,0l0,1.164l-0.714,0Zm-2.835,0l0,-1.164l0.709,0l0,1.164l-0.709,0Zm1.418,-1.627l0,-1.164l0.708,0l0,1.164l-0.708,0Zm-2.836,0l0,-1.164l0.705,0l0,1.164l-0.705,0Z" style="fill-rule:nonzero;"/><path d="M197.807,100.775l0,-1.164l-1.422,0l0,-1.164l1.422,0l0,-1.163l-1.422,0l0,-1.164l1.422,0l0,-1.163l-1.422,0l0,-1.164l1.422,0l0,-1.163l-1.422,0l0,-1.164l0.714,0l0,9.309l0.708,0Zm-2.131,0l0,-9.309l-0.708,0l0,1.164l1.417,0l0,1.163l-1.417,0l0,1.164l1.417,0l0,1.163l-1.417,0l0,1.164l1.417,0l0,1.163l-1.417,0l0,1.164l1.417,0l0,1.164l-0.709,0Zm-1.417,0l0,-9.309l-0.709,0l0,1.164l1.418,0l0,1.163l-1.418,0l0,1.164l1.418,0l0,1.163l-1.418,0l0,1.164l1.418,0l0,1.163l-1.418,0l0,1.164l1.418,0l0,1.164l-0.709,0Zm-1.422,0l0,-9.309l-0.705,0l0,1.164l1.418,0l0,1.163l-1.418,0l0,1.164l1.418,0l0,1.163l-1.418,0l0,1.164l1.418,0l0,1.163l-1.418,0l0,1.164l1.418,0l0,1.164l-0.713,0Z" style="fill-rule:nonzero;"/><path d="M197.629,100.775l0,-1.628l0.704,0l0,-1.163l-0.704,0l0,-2.096l0.704,0l0,-1.163l-0.704,0l0,-2.095l0.704,0l0,-1.164l2.131,0l0,1.164l0.709,0l0,-1.164l2.131,0l0,9.309l-0.709,0l0,-1.164l-0.713,0l0,1.164l-2.126,0l0,-1.164l-0.709,0l0,1.164l-1.418,0Zm1.418,-6.518l0.709,0l0,-1.164l-0.709,0l0,1.164Zm2.835,0l0.713,0l0,-1.164l-0.713,0l0,1.164Zm-1.418,1.631l0.709,0l0,-1.163l-0.709,0l0,1.163Zm-1.417,1.628l0.709,0l0,-1.164l-0.709,0l0,1.164Zm2.835,0l0.713,0l0,-1.164l-0.713,0l0,1.164Zm-1.418,1.631l0.709,0l0,-1.163l-0.709,0l0,1.163Z" style="fill-rule:nonzero;"/><path d="M204.704,91.836l3.504,7.503l-0.994,0l-3.504,-7.503l0.994,0Z" style="fill-rule:nonzero;stroke:#000;stroke-width:0.6px;"/><path d="M61.785,102.792l3.504,7.503l-0.994,0l-3.504,-7.503l0.994,0Z" style="fill-rule:nonzero;stroke:#000;stroke-width:0.6px;"/><path d="M80.794,102.792l0.986,0l-3.505,7.503l-0.985,0l3.504,-7.503Z" style="fill-rule:nonzero;stroke:#000;stroke-width:0.6px;"/><path d="M91.944,111.731l0,-1.164l0.713,0l0,1.164l-0.713,0Zm-2.835,0l0,-1.164l0.709,0l0,1.164l-0.709,0Zm1.417,-1.627l0,-1.164l0.709,0l0,1.164l-0.709,0Zm-2.835,0l0,-1.164l0.704,0l0,1.164l-0.704,0Zm4.253,-1.632l0,-1.164l0.713,0l0,1.164l-0.713,0Zm-2.835,0l0,-1.164l0.709,0l0,1.164l-0.709,0Zm1.417,-1.627l0,-1.164l0.709,0l0,1.164l-0.709,0Zm-2.835,0l0,-1.164l0.704,0l0,1.164l-0.704,0Zm4.253,-1.632l0,-1.163l0.713,0l0,1.163l-0.713,0Zm-2.835,0l0,-1.163l0.709,0l0,1.163l-0.709,0Zm1.417,-1.627l0,-1.164l0.709,0l0,1.164l-0.709,0Zm-2.835,0l0,-1.164l0.704,0l0,1.164l-0.704,0Z" style="fill-rule:nonzero;"/><path d="M98.863,111.731l0,-1.164l-1.422,0l0,-1.163l1.422,0l0,-1.164l-1.422,0l0,-1.163l1.422,0l0,-1.164l-1.422,0l0,-1.164l1.422,0l0,-1.163l-1.422,0l0,-1.164l0.713,0l0,9.309l0.709,0Zm-2.131,0l0,-9.309l-0.709,0l0,1.164l1.418,0l0,1.163l-1.418,0l0,1.164l1.418,0l0,1.164l-1.418,0l0,1.163l1.418,0l0,1.164l-1.418,0l0,1.163l1.418,0l0,1.164l-0.709,0Zm-1.417,0l0,-9.309l-0.709,0l0,1.164l1.417,0l0,1.163l-1.417,0l0,1.164l1.417,0l0,1.164l-1.417,0l0,1.163l1.417,0l0,1.164l-1.417,0l0,1.163l1.417,0l0,1.164l-0.708,0Zm-1.423,0l0,-9.309l-0.704,0l0,1.164l1.418,0l0,1.163l-1.418,0l0,1.164l1.418,0l0,1.164l-1.418,0l0,1.163l1.418,0l0,1.164l-1.418,0l0,1.163l1.418,0l0,1.164l-0.714,0Z" style="fill-rule:nonzero;"/><path d="M98.685,111.731l0,-1.627l0.704,0l0,-1.164l-0.704,0l0,-2.095l0.704,0l0,-1.164l-0.704,0l0,-2.095l0.704,0l0,-1.164l2.131,0l0,1.164l0.709,0l0,-1.164l2.131,0l0,9.309l-0.709,0l0,-1.164l-0.713,0l0,1.164l-2.127,0l0,-1.164l-0.708,0l0,1.164l-1.418,0Zm1.418,-6.518l0.708,0l0,-1.163l-0.708,0l0,1.163Zm2.835,0l0.713,0l0,-1.163l-0.713,0l0,1.163Zm-1.418,1.632l0.709,0l0,-1.164l-0.709,0l0,1.164Zm-1.417,1.627l0.708,0l0,-1.164l-0.708,0l0,1.164Zm2.835,0l0.713,0l0,-1.164l-0.713,0l0,1.164Zm-1.418,1.632l0.709,0l0,-1.164l-0.709,0l0,1.164Z" style="fill-rule:nonzero;"/><path d="M108.279,102.792l0.985,0l-3.504,7.503l-0.985,0l3.504,-7.503Z" style="fill-rule:nonzero;stroke:#000;stroke-width:0.6px;"/><path d="M155.232,102.792l3.504,7.503l-0.994,0l-3.504,-7.503l0.994,0Z" style="fill-rule:nonzero;stroke:#000;stroke-width:0.6px;"/><path d="M182.717,102.792l3.504,7.503l-0.995,0l-3.504,-7.503l0.995,0Z" style="fill-rule:nonzero;stroke:#000;stroke-width:0.6px;"/><path d="M196.385,111.731l0,-1.164l0.714,0l0,1.164l-0.714,0Zm-2.835,0l0,-1.164l0.709,0l0,1.164l-0.709,0Zm1.418,-1.627l0,-1.164l0.708,0l0,1.164l-0.708,0Zm-2.836,0l0,-1.164l0.705,0l0,1.164l-0.705,0Zm4.253,-1.632l0,-1.164l0.714,0l0,1.164l-0.714,0Zm-2.835,0l0,-1.164l0.709,0l0,1.164l-0.709,0Zm1.418,-1.627l0,-1.164l0.708,0l0,1.164l-0.708,0Zm-2.836,0l0,-1.164l0.705,0l0,1.164l-0.705,0Zm4.253,-1.632l0,-1.163l0.714,0l0,1.163l-0.714,0Zm-2.835,0l0,-1.163l0.709,0l0,1.163l-0.709,0Zm1.418,-1.627l0,-1.164l0.708,0l0,1.164l-0.708,0Zm-2.836,0l0,-1.164l0.705,0l0,1.164l-0.705,0Z" style="fill-rule:nonzero;"/><path d="M203.304,111.731l0,-1.164l-1.422,0l0,-1.163l1.422,0l0,-1.164l-1.422,0l0,-1.163l1.422,0l0,-1.164l-1.422,0l0,-1.164l1.422,0l0,-1.163l-1.422,0l0,-1.164l0.713,0l0,9.309l0.709,0Zm-2.131,0l0,-9.309l-0.709,0l0,1.164l1.418,0l0,1.163l-1.418,0l0,1.164l1.418,0l0,1.164l-1.418,0l0,1.163l1.418,0l0,1.164l-1.418,0l0,1.163l1.418,0l0,1.164l-0.709,0Zm-1.417,0l0,-9.309l-0.709,0l0,1.164l1.417,0l0,1.163l-1.417,0l0,1.164l1.417,0l0,1.164l-1.417,0l0,1.163l1.417,0l0,1.164l-1.417,0l0,1.163l1.417,0l0,1.164l-0.708,0Zm-1.423,0l0,-9.309l-0.704,0l0,1.164l1.418,0l0,1.163l-1.418,0l0,1.164l1.418,0l0,1.164l-1.418,0l0,1.163l1.418,0l0,1.164l-1.418,0l0,1.163l1.418,0l0,1.164l-0.714,0Z" style="fill-rule:nonzero;"/><path d="M203.126,111.731l0,-1.627l0.704,0l0,-1.164l-0.704,0l0,-2.095l0.704,0l0,-1.164l-0.704,0l0,-2.095l0.704,0l0,-1.164l2.131,0l0,1.164l0.709,0l0,-1.164l2.131,0l0,9.309l-0.709,0l0,-1.164l-0.713,0l0,1.164l-2.127,0l0,-1.164l-0.708,0l0,1.164l-1.418,0Zm1.418,-6.518l0.708,0l0,-1.163l-0.708,0l0,1.163Zm2.835,0l0.713,0l0,-1.163l-0.713,0l0,1.163Zm-1.418,1.632l0.709,0l0,-1.164l-0.709,0l0,1.164Zm-1.417,1.627l0.708,0l0,-1.164l-0.708,0l0,1.164Zm2.835,0l0.713,0l0,-1.164l-0.713,0l0,1.164Zm-1.418,1.632l0.709,0l0,-1.164l-0.709,0l0,1.164Z" style="fill-rule:nonzero;"/><path d="M210.201,102.792l3.504,7.503l-0.994,0l-3.504,-7.503l0.994,0Z" style="fill-rule:nonzero;stroke:#000;stroke-width:0.6px;"/><path d="M67.282,113.749l3.504,7.503l-0.994,0l-3.504,-7.503l0.994,0Z" style="fill-rule:nonzero;stroke:#000;stroke-width:0.6px;"/><path d="M75.297,113.749l0.986,0l-3.504,7.503l-0.986,0l3.504,-7.503Z" style="fill-rule:nonzero;stroke:#000;stroke-width:0.6px;"/><path d="M86.447,122.687l0,-1.163l0.714,0l0,1.163l-0.714,0Zm-2.835,0l0,-1.163l0.709,0l0,1.163l-0.709,0Zm1.418,-1.627l0,-1.164l0.708,0l0,1.164l-0.708,0Zm-2.836,0l0,-1.164l0.705,0l0,1.164l-0.705,0Zm4.253,-1.632l0,-1.163l0.714,0l0,1.163l-0.714,0Zm-2.835,0l0,-1.163l0.709,0l0,1.163l-0.709,0Zm1.418,-1.627l0,-1.163l0.708,0l0,1.163l-0.708,0Zm-2.836,0l0,-1.163l0.705,0l0,1.163l-0.705,0Zm4.253,-1.632l0,-1.163l0.714,0l0,1.163l-0.714,0Zm-2.835,0l0,-1.163l0.709,0l0,1.163l-0.709,0Zm1.418,-1.627l0,-1.163l0.708,0l0,1.163l-0.708,0Zm-2.836,0l0,-1.163l0.705,0l0,1.163l-0.705,0Z" style="fill-rule:nonzero;"/><path d="M93.366,122.687l0,-1.163l-1.422,0l0,-1.164l1.422,0l0,-1.163l-1.422,0l0,-1.164l1.422,0l0,-1.164l-1.422,0l0,-1.163l1.422,0l0,-1.164l-1.422,0l0,-1.163l0.713,0l0,9.308l0.709,0Zm-2.131,0l0,-9.308l-0.709,0l0,1.163l1.418,0l0,1.164l-1.418,0l0,1.163l1.418,0l0,1.164l-1.418,0l0,1.164l1.418,0l0,1.163l-1.418,0l0,1.164l1.418,0l0,1.163l-0.709,0Zm-1.417,0l0,-9.308l-0.709,0l0,1.163l1.417,0l0,1.164l-1.417,0l0,1.163l1.417,0l0,1.164l-1.417,0l0,1.164l1.417,0l0,1.163l-1.417,0l0,1.164l1.417,0l0,1.163l-0.708,0Zm-1.423,0l0,-9.308l-0.704,0l0,1.163l1.418,0l0,1.164l-1.418,0l0,1.163l1.418,0l0,1.164l-1.418,0l0,1.164l1.418,0l0,1.163l-1.418,0l0,1.164l1.418,0l0,1.163l-0.714,0Z" style="fill-rule:nonzero;"/><path d="M93.188,122.687l0,-1.627l0.704,0l0,-1.164l-0.704,0l0,-2.095l0.704,0l0,-1.163l-0.704,0l0,-2.096l0.704,0l0,-1.163l2.131,0l0,1.163l0.709,0l0,-1.163l2.131,0l0,9.308l-0.709,0l0,-1.163l-0.713,0l0,1.163l-2.126,0l0,-1.163l-0.709,0l0,1.163l-1.418,0Zm1.418,-6.518l0.709,0l0,-1.163l-0.709,0l0,1.163Zm2.835,0l0.713,0l0,-1.163l-0.713,0l0,1.163Zm-1.418,1.632l0.709,0l0,-1.163l-0.709,0l0,1.163Zm-1.417,1.627l0.709,0l0,-1.163l-0.709,0l0,1.163Zm2.835,0l0.713,0l0,-1.163l-0.713,0l0,1.163Zm-1.418,1.632l0.709,0l0,-1.164l-0.709,0l0,1.164Z" style="fill-rule:nonzero;"/><path d="M102.782,113.749l0.985,0l-3.504,7.503l-0.985,0l3.504,-7.503Z" style="fill-rule:nonzero;stroke:#000;stroke-width:0.6px;"/><path d="M160.729,113.749l3.504,7.503l-0.994,0l-3.504,-7.503l0.994,0Z" style="fill-rule:nonzero;stroke:#000;stroke-width:0.6px;"/><path d="M188.213,113.749l3.505,7.503l-0.995,0l-3.504,-7.503l0.994,0Z" style="fill-rule:nonzero;stroke:#000;stroke-width:0.6px;"/><path d="M201.882,122.687l0,-1.163l0.713,0l0,1.163l-0.713,0Zm-2.835,0l0,-1.163l0.709,0l0,1.163l-0.709,0Zm1.417,-1.627l0,-1.164l0.709,0l0,1.164l-0.709,0Zm-2.835,0l0,-1.164l0.704,0l0,1.164l-0.704,0Zm4.253,-1.632l0,-1.163l0.713,0l0,1.163l-0.713,0Zm-2.835,0l0,-1.163l0.709,0l0,1.163l-0.709,0Zm1.417,-1.627l0,-1.163l0.709,0l0,1.163l-0.709,0Zm-2.835,0l0,-1.163l0.704,0l0,1.163l-0.704,0Zm4.253,-1.632l0,-1.163l0.713,0l0,1.163l-0.713,0Zm-2.835,0l0,-1.163l0.709,0l0,1.163l-0.709,0Zm1.417,-1.627l0,-1.163l0.709,0l0,1.163l-0.709,0Zm-2.835,0l0,-1.163l0.704,0l0,1.163l-0.704,0Z" style="fill-rule:nonzero;"/><path d="M208.801,122.687l0,-1.163l-1.422,0l0,-1.164l1.422,0l0,-1.163l-1.422,0l0,-1.164l1.422,0l0,-1.164l-1.422,0l0,-1.163l1.422,0l0,-1.164l-1.422,0l0,-1.163l0.713,0l0,9.308l0.709,0Zm-2.131,0l0,-9.308l-0.709,0l0,1.163l1.418,0l0,1.164l-1.418,0l0,1.163l1.418,0l0,1.164l-1.418,0l0,1.164l1.418,0l0,1.163l-1.418,0l0,1.164l1.418,0l0,1.163l-0.709,0Zm-1.418,0l0,-9.308l-0.708,0l0,1.163l1.417,0l0,1.164l-1.417,0l0,1.163l1.417,0l0,1.164l-1.417,0l0,1.164l1.417,0l0,1.163l-1.417,0l0,1.164l1.417,0l0,1.163l-0.709,0Zm-1.422,0l0,-9.308l-0.704,0l0,1.163l1.418,0l0,1.164l-1.418,0l0,1.163l1.418,0l0,1.164l-1.418,0l0,1.164l1.418,0l0,1.163l-1.418,0l0,1.164l1.418,0l0,1.163l-0.714,0Z" style="fill-rule:nonzero;"/><path d="M208.623,122.687l0,-1.627l0.704,0l0,-1.164l-0.704,0l0,-2.095l0.704,0l0,-1.163l-0.704,0l0,-2.096l0.704,0l0,-1.163l2.131,0l0,1.163l0.709,0l0,-1.163l2.131,0l0,9.308l-0.709,0l0,-1.163l-0.713,0l0,1.163l-2.127,0l0,-1.163l-0.708,0l0,1.163l-1.418,0Zm1.418,-6.518l0.708,0l0,-1.163l-0.708,0l0,1.163Zm2.835,0l0.713,0l0,-1.163l-0.713,0l0,1.163Zm-1.418,1.632l0.709,0l0,-1.163l-0.709,0l0,1.163Zm-1.417,1.627l0.708,0l0,-1.163l-0.708,0l0,1.163Zm2.835,0l0.713,0l0,-1.163l-0.713,0l0,1.163Zm-1.418,1.632l0.709,0l0,-1.164l-0.709,0l0,1.164Z" style="fill-rule:nonzero;"/><path d="M215.698,113.749l3.504,7.503l-0.994,0l-3.504,-7.503l0.994,0Z" style="fill-rule:nonzero;stroke:#000;stroke-width:0.6px;"/><rect x="71.753" y="124.62" width="4.467" height="0.811" style="fill-rule:nonzero;stroke:#000;stroke-width:0.6px;"/><rect x="77.25" y="124.62" width="4.467" height="0.811" style="fill-rule:nonzero;stroke:#000;stroke-width:0.6px;"/><rect x="82.747" y="124.62" width="4.467" height="0.811" style="fill-rule:nonzero;stroke:#000;stroke-width:0.6px;"/><rect x="88.244" y="124.62" width="4.467" height="0.811" style="fill-rule:nonzero;stroke:#000;stroke-width:0.6px;"/><rect x="93.741" y="124.62" width="4.467" height="0.811" style="fill-rule:nonzero;stroke:#000;stroke-width:0.6px;"/><rect x="165.2" y="124.62" width="4.467" height="0.811" style="fill-rule:nonzero;stroke:#000;stroke-width:0.6px;"/><rect x="170.697" y="124.62" width="4.467" height="0.811" style="fill-rule:nonzero;stroke:#000;stroke-width:0.6px;"/><rect x="176.194" y="124.62" width="4.467" height="0.811" style="fill-rule:nonzero;stroke:#000;stroke-width:0.6px;"/><rect x="181.691" y="124.62" width="4.467" height="0.811" style="fill-rule:nonzero;stroke:#000;stroke-width:0.6px;"/><rect x="198.182" y="124.62" width="4.467" height="0.811" style="fill-rule:nonzero;stroke:#000;stroke-width:0.6px;"/><rect x="203.679" y="124.62" width="4.467" height="0.811" style="fill-rule:nonzero;stroke:#000;stroke-width:0.6px;"/><rect x="209.176" y="124.62" width="4.467" height="0.811" style="fill-rule:nonzero;stroke:#000;stroke-width:0.6px;"/><rect x="214.673" y="124.62" width="4.467" height="0.811" style="fill-rule:nonzero;stroke:#000;stroke-width:0.6px;"/></g></svg>