<?xml version="1.0" encoding="UTF-8" standalone="no"?><!DOCTYPE svg PUBLIC "-//W3C//DTD SVG 1.1//EN" "http://www.w3.org/Graphics/SVG/1.1/DTD/svg11.dtd"><svg width="100%" height="100%" viewBox="0 0 240 150" version="1.1" xmlns="http://www.w3.org/2000/svg" xmlns:xlink="http://www.w3.org/1999/xlink" xml:space="preserve" xmlns:serif="http://www.serif.com/" style="fill-rule:evenodd;clip-rule:evenodd;stroke-linejoin:round;stroke-miterlimit:2;"><rect id="sticker-negative" x="0.179" y="0.978" width="240" height="150" style="fill:none;"/><path d="M70.298,11.01c5.486,0.527 10.318,3.883 12.729,8.829c0,0 3.621,8.072 5.378,11.99c0.165,0.368 0.532,0.605 0.935,0.605c0.404,0 0.77,-0.237 0.935,-0.605c1.758,-3.918 5.379,-11.99 5.379,-11.99c0,0 2.217,-4.304 5.534,-6.452c2.412,-1.561 5.278,-2.316 8.152,-2.408l30,0c3.32,0.106 2.351,-0.101 4.998,0.864c0,0 2.186,-0.712 4.026,-0.832c5.199,-0.339 10.468,2.221 13.407,6.574c0.487,0.72 0.572,0.923 0.985,1.686l50,99.999c0.355,0.769 0.463,0.955 0.743,1.755c2.909,8.317 -3.141,18.666 -12.257,19.832c-0.841,0.107 -1.056,0.094 -1.902,0.121c0,0 -29.994,-0.006 -29.994,-0.006c0,0 -4.511,-0.234 -7.632,-2.076c-2.471,-1.459 -4.425,-3.683 -5.79,-6.209c0,0 -21.099,-42.196 -25.704,-51.406c-0.167,-0.333 -0.507,-0.544 -0.88,-0.544c-0.373,0 -0.714,0.211 -0.881,0.544c-4.605,9.21 -25.703,51.405 -25.703,51.405l-0.465,0.859c-0.462,0.735 -0.56,0.931 -1.092,1.618c-5.702,7.362 -18.767,7.389 -24.291,-0.791c-0.486,-0.72 -0.571,-0.923 -0.984,-1.686l-50,-99.999c-0.355,-0.769 -0.463,-0.955 -0.743,-1.755c-2.909,-8.317 3.141,-18.667 12.257,-19.832c0.841,-0.108 1.055,-0.094 1.902,-0.121l30.001,0c0.319,0.01 0.638,0.02 0.957,0.031Zm64.042,44.97c0,0 35,69.998 35,69.998l30,0l-50,-99.999c-5,10 -10,20.001 -15,30.001Zm-95,-30.001l50,99.999l50,-99.999l-30,0l-20,44.581l-19.999,-44.581l-30.001,0Z"/></svg>