<?xml version="1.0" encoding="UTF-8" standalone="no"?><!DOCTYPE svg PUBLIC "-//W3C//DTD SVG 1.1//EN" "http://www.w3.org/Graphics/SVG/1.1/DTD/svg11.dtd"><svg width="100%" height="100%" viewBox="0 0 240 150" version="1.1" xmlns="http://www.w3.org/2000/svg" xmlns:xlink="http://www.w3.org/1999/xlink" xml:space="preserve" xmlns:serif="http://www.serif.com/" style="fill-rule:evenodd;clip-rule:evenodd;stroke-linejoin:round;stroke-miterlimit:2;"><rect id="stripe-2" x="0.615" y="0.789" width="240" height="150" style="fill:none;"/><g id="Art-logo" serif:id="Art logo"><path d="M200.615,125.788l-30,0l0,0.001l-35,-69.999l15,-30.001l50,99.999Zm-18.333,-9.999l-10,-19.9l-21.667,-43.433l-1.666,3.333l30,60l3.333,0Z"/><path d="M90.615,66.9l20,-41.111l30,0l-50,99.999l-50,-99.999l30.001,0l19.999,41.111Zm31.667,-31.111l-3.333,0l-20,40l-8.334,16.667l-28.333,-56.667l-3.333,0l30,60l1.666,3.432l31.667,-63.432Z" style="fill-rule:nonzero;"/></g></svg>