<?xml version="1.0" encoding="UTF-8" standalone="no"?><!DOCTYPE svg PUBLIC "-//W3C//DTD SVG 1.1//EN" "http://www.w3.org/Graphics/SVG/1.1/DTD/svg11.dtd"><svg width="100%" height="100%" viewBox="0 0 240 150" version="1.1" xmlns="http://www.w3.org/2000/svg" xmlns:xlink="http://www.w3.org/1999/xlink" xml:space="preserve" xmlns:serif="http://www.serif.com/" style="fill-rule:evenodd;clip-rule:evenodd;stroke-linejoin:round;stroke-miterlimit:2;"><rect id="_3D-stripes" serif:id="3D stripes" x="0.179" y="0" width="240" height="150" style="fill:none;"/><g id="Original-shape" serif:id="Original shape"><path d="M110.179,25l-20,44.581l-19.999,-44.581l-30.001,0l50,99.999l50,-99.999l-30,0Z" style="fill:none;fill-rule:nonzero;stroke:#000;stroke-width:1.1px;"/><path d="M135.179,55.001l15,-30.001l50,99.999l-30,0l0,0.001l-35,-69.999Z" style="fill:none;stroke:#000;stroke-width:1.1px;"/></g><g id="Original-shape1" serif:id="Original shape"><path d="M111.116,29.688l-18.125,40.401l-18.124,-40.401l-27.188,0l45.312,90.624l45.313,-90.624l-27.188,0Z" style="fill:none;fill-rule:nonzero;stroke:#000;stroke-width:1.1px;"/><path d="M133.772,56.876l13.594,-27.188l45.313,90.624l-27.188,0l0,0.001l-31.719,-63.437Z" style="fill:none;stroke:#000;stroke-width:1.1px;"/></g><g id="Original-shape2" serif:id="Original shape"><path d="M111.866,33.438l-16.625,37.057l-16.624,-37.057l-24.938,0l41.562,83.124l41.563,-83.124l-24.938,0Z" style="fill:none;fill-rule:nonzero;stroke:#000;stroke-width:1.1px;"/><path d="M132.647,58.376l12.469,-24.938l41.563,83.124l-24.938,0l0,0.001l-29.094,-58.187Z" style="fill:none;stroke:#000;stroke-width:1.1px;"/></g><g id="Original-shape3" serif:id="Original shape"><path d="M112.466,36.438l-15.425,34.383l-15.424,-34.383l-23.138,0l38.562,77.124l38.563,-77.124l-23.138,0Z" style="fill:none;fill-rule:nonzero;stroke:#000;stroke-width:1.1px;"/><path d="M131.747,59.576l11.569,-23.138l38.563,77.124l-23.138,0l0,0.001l-26.994,-53.987Z" style="fill:none;stroke:#000;stroke-width:1.1px;"/></g><g id="Original-shape4" serif:id="Original shape"><path d="M112.946,38.838l-14.465,32.243l-14.464,-32.243l-21.698,0l36.162,72.324l36.163,-72.324l-21.698,0Z" style="fill:none;fill-rule:nonzero;stroke:#000;stroke-width:1.1px;"/><path d="M131.027,60.536l10.849,-21.698l36.163,72.324l-21.698,0l0,0.001l-25.314,-50.627Z" style="fill:none;stroke:#000;stroke-width:1.1px;"/></g><g id="Original-shape5" serif:id="Original shape"><path d="M113.33,40.758l-13.697,30.531l-13.696,-30.531l-20.546,0l34.242,68.484l34.243,-68.484l-20.546,0Z" style="fill:none;fill-rule:nonzero;stroke:#000;stroke-width:1.1px;"/><path d="M130.451,61.304l10.273,-20.546l34.243,68.484l-20.546,0l0,0.001l-23.97,-47.939Z" style="fill:none;stroke:#000;stroke-width:1.1px;"/></g><g id="Original-shape6" serif:id="Original shape"><path d="M113.637,42.294l-13.082,29.161l-13.082,-29.161l-19.624,0l32.706,65.412l32.706,-65.412l-19.624,0Z" style="fill:none;fill-rule:nonzero;stroke:#000;stroke-width:1.1px;"/><path d="M129.99,61.918l9.812,-19.624l32.707,65.412l-19.624,0l0,0l-22.895,-45.788Z" style="fill:none;stroke:#000;stroke-width:1.1px;"/></g><path d="M40.179,25l27.67,17.294" style="fill:none;stroke:#000;stroke-width:1.1px;stroke-linecap:round;stroke-linejoin:miter;stroke-miterlimit:1.5;"/><path d="M90.179,69.581l10.376,1.874" style="fill:none;stroke:#000;stroke-width:1.1px;stroke-linecap:round;stroke-linejoin:miter;stroke-miterlimit:1.5;"/><path d="M110.179,25l3.458,17.294" style="fill:none;stroke:#000;stroke-width:1.1px;stroke-linecap:round;stroke-linejoin:miter;stroke-miterlimit:1.5;"/><path d="M70.179,25l17.294,17.294" style="fill:none;stroke:#000;stroke-width:1.1px;stroke-linecap:round;stroke-linejoin:miter;stroke-miterlimit:1.5;"/><path d="M135.179,55l-5.189,6.918" style="fill:none;stroke:#000;stroke-width:1.1px;stroke-linecap:round;stroke-linejoin:miter;stroke-miterlimit:1.5;"/><path d="M150.179,25l-10.377,17.294" style="fill:none;stroke:#000;stroke-width:1.1px;stroke-linecap:round;stroke-linejoin:miter;stroke-miterlimit:1.5;"/><path d="M140.179,25l-6.918,17.294" style="fill:none;stroke:#000;stroke-width:1.1px;stroke-linecap:round;stroke-linejoin:miter;stroke-miterlimit:1.5;"/><path d="M90.179,125l10.376,-17.294" style="fill:none;stroke:#000;stroke-width:1.1px;stroke-linecap:round;stroke-linejoin:miter;stroke-miterlimit:1.5;"/><path d="M152.885,107.706l17.294,17.294" style="fill:none;stroke:#000;stroke-width:1.1px;stroke-linecap:round;stroke-linejoin:miter;stroke-miterlimit:1.5;"/><path d="M172.509,107.706l27.67,17.294" style="fill:none;stroke:#000;stroke-width:1.1px;stroke-linecap:round;stroke-linejoin:miter;stroke-miterlimit:1.5;"/></svg>