<?xml version="1.0" encoding="UTF-8" standalone="no"?><!DOCTYPE svg PUBLIC "-//W3C//DTD SVG 1.1//EN" "http://www.w3.org/Graphics/SVG/1.1/DTD/svg11.dtd"><svg width="100%" height="100%" viewBox="0 0 240 150" version="1.1" xmlns="http://www.w3.org/2000/svg" xmlns:xlink="http://www.w3.org/1999/xlink" xml:space="preserve" xmlns:serif="http://www.serif.com/" style="fill-rule:evenodd;clip-rule:evenodd;stroke-linejoin:round;stroke-miterlimit:2;"><rect id="_80s-shapes-2" serif:id="80s-shapes-2" x="0.179" y="0.608" width="240" height="150" style="fill:none;"/><g><path d="M90.179,125.607l-14,-27.999l37.333,-18.667l-23.333,46.666Zm24.999,-49.999l-39.999,20l-1,-2l42.666,-21.333l-1.667,3.333Zm3.334,-6.667l-45.333,22.667l-1,-2l47.999,-24l-1.666,3.333Zm3.333,-6.667l-50.666,25.334l-1,-2l53.333,-26.667l-1.667,3.333Zm3.333,-6.666l-55.999,28l-1,-2l58.666,-29.334l-1.667,3.334Zm-35.762,12.881l-22.237,11.119l-1,-2l22.321,-11.161l0.916,2.042Zm-1.832,-4.084l-22.405,11.203l-1,-2l22.489,-11.245l0.916,2.042Zm-1.832,-4.084l-22.573,11.287l-1,-2l22.657,-11.329l0.916,2.042Zm-1.832,-4.084l-22.741,11.371l-1,-2l22.825,-11.413l0.916,2.042Zm44.592,-7.296l-37.13,18.565l1.446,-3.223l37.35,-18.675l-1.666,3.333Zm-46.424,3.212l-22.909,11.455l-1,-2l22.993,-11.497l0.916,2.042Zm49.757,-9.879l-37.571,18.786l1.446,-3.223l37.792,-18.896l-1.667,3.333Zm-51.589,5.795l-23.077,11.539l-1,-2l23.161,-11.581l0.916,2.042Zm-1.832,-4.084l-23.245,11.623l-1,-2l23.329,-11.665l0.916,2.042Zm56.755,-8.377l-38.013,19.006l1.446,-3.223l38.233,-19.117l-1.666,3.334Zm-58.587,4.293l-23.413,11.707l-1,-2l23.497,-11.749l0.916,2.042Zm61.92,-10.96l-38.455,19.227l1.446,-3.223l38.676,-19.337l-1.667,3.333Zm-63.752,6.876l-23.581,11.791l-1,-2l23.665,-11.833l0.916,2.042Zm-1.832,-4.084l-23.749,11.875l-1,-2l23.832,-11.917l0.917,2.042Zm62.251,-6.125l-32.23,16.114l1.446,-3.223l25.784,-12.891l5,0Zm-64.084,2.041l-23.916,11.959l-1,-2l23.999,-12l0.002,0l0.915,2.041Zm-5.917,-2.041l-19.999,10l-1,-2l15.999,-8l5,0Zm60.001,0l-19.338,9.668l1.446,-3.222l12.892,-6.446l5,0Zm-70.001,0l-11.999,6l-1,-2l7.999,-4l5,0Zm60.001,0l-6.446,3.223l1.446,-3.223l0,0l5,0Zm-74,2l-1,-2l4.999,0l-3.999,2Z" style="fill-rule:nonzero;"/><path d="M140.178,65.608l24.001,-12l36,71.999l-30,0l0,0.001l-30.001,-60Zm23.001,-14l-24.001,12l-1,-2l24.001,-12l1,2Zm-2,-4l-24.001,12l-1,-2l24.001,-12l1,2Zm-2,-4l-24,11.999l1.667,-3.333l21.333,-10.666l1,2Zm-2,-4l-18.667,9.333l1.667,-3.333l16,-8l1,2Zm-2,-4l-13.333,6.666l1.666,-3.333l10.667,-5.333l1,2Zm-2,-4l-8,4l1.666,-3.334l5.334,-2.666l1,2Zm-2,-4l-2.667,1.333l1.667,-3.333l1,2Z"/></g></svg>