<?xml version="1.0" encoding="UTF-8" standalone="no"?><!DOCTYPE svg PUBLIC "-//W3C//DTD SVG 1.1//EN" "http://www.w3.org/Graphics/SVG/1.1/DTD/svg11.dtd"><svg width="100%" height="100%" viewBox="0 0 240 150" version="1.1" xmlns="http://www.w3.org/2000/svg" xmlns:xlink="http://www.w3.org/1999/xlink" xml:space="preserve" xmlns:serif="http://www.serif.com/" style="fill-rule:evenodd;clip-rule:evenodd;stroke-linecap:round;stroke-miterlimit:1.5;"><rect id="isometric" x="0.179" y="0.595" width="240" height="150" style="fill:none;"/><g><path d="M8.056,71.989l0,18.527l129.904,25l-0.001,-18.527l-129.903,-25Z" style="fill:none;stroke:#000;stroke-width:1.1px;"/><path d="M68.682,36.987l-0.004,18.529l7.004,10.624l14.281,3.139l-21.281,-32.292Z" style="fill:none;stroke:#000;stroke-width:1.1px;"/><path d="M103.319,16.989l0,18.527l12.991,22.501l90.931,17.499l25.981,-14.999l0,-18.529l-25.914,14.962l-90.972,-17.527l-13.017,-22.434Z" style="fill:none;stroke:#000;stroke-width:1.1px;"/><g id="Original-shape" serif:id="Original shape"><path d="M68.678,36.989l21.288,32.29l-55.928,-12.291l-25.982,15.001l129.903,24.999l-43.3,-74.999l-25.981,15Z" style="fill:none;fill-rule:nonzero;stroke:#000;stroke-width:1.1px;stroke-linecap:butt;stroke-linejoin:round;stroke-miterlimit:2;"/><path d="M116.31,39.489l-12.991,-22.5l129.903,24.999l-25.981,15l0.001,0.001l-90.932,-17.5Z" style="fill:none;stroke:#000;stroke-width:1.1px;stroke-linecap:butt;stroke-linejoin:round;stroke-miterlimit:2;"/></g></g><path d="M8.056,90.516l86.603,50l138.564,-80" style="fill:none;stroke:#000;stroke-width:1.1px;"/><path d="M129.3,60.516l51.961,30" style="fill:none;stroke:#000;stroke-width:1.1px;"/><path d="M57.28,62.096l11.398,-6.58" style="fill:none;stroke:#000;stroke-width:1.1px;"/><path d="M25.377,100.516l8.66,-5" style="fill:none;stroke:#000;stroke-width:1.1px;"/><path d="M42.697,110.516l17.321,-10" style="fill:none;stroke:#000;stroke-width:1.1px;"/><path d="M60.018,120.516l25.98,-15" style="fill:none;stroke:#000;stroke-width:1.1px;"/><path d="M111.979,130.516l-51.961,-30" style="fill:none;stroke:#000;stroke-width:1.1px;"/><path d="M77.338,130.516l34.641,-20l17.321,10" style="fill:none;stroke:#000;stroke-width:1.1px;"/><path d="M146.62,110.516l-8.66,-5" style="fill:none;stroke:#000;stroke-width:1.1px;"/><path d="M163.941,100.516l-35.917,-20.737" style="fill:none;stroke:#000;stroke-width:1.1px;"/><path d="M137.322,95.885l43.939,-25.369l17.321,10" style="fill:none;stroke:#000;stroke-width:1.1px;"/><path d="M185.087,32.725l-38.467,-22.209l-19.234,11.105" style="fill:none;stroke:#000;stroke-width:1.1px;"/><path d="M163.941,20.516l-10.574,6.105" style="fill:none;stroke:#000;stroke-width:1.1px;"/><path d="M129.3,80.516l25.98,-15" style="fill:none;stroke:#000;stroke-width:1.1px;"/><path d="M120.001,65.884l9.299,-5.368" style="fill:none;stroke:#000;stroke-width:1.1px;"/><path d="M60.018,60.516l6.101,3.523" style="fill:none;stroke:#000;stroke-width:1.1px;"/><path d="M110.703,49.779l1.276,0.737l-0.638,0.368" style="fill:none;stroke:#000;stroke-width:1.1px;"/><path d="M102.681,35.884l0.779,-0.449" style="fill:none;stroke:#000;stroke-width:1.1px;"/><path d="M207.242,56.989l0.004,18.525" style="fill:none;stroke:#000;stroke-width:1.1px;"/><path d="M116.31,39.489l0,18.528" style="fill:none;stroke:#000;stroke-width:1.1px;"/></svg>