<?xml version="1.0" encoding="UTF-8" standalone="no"?><!DOCTYPE svg PUBLIC "-//W3C//DTD SVG 1.1//EN" "http://www.w3.org/Graphics/SVG/1.1/DTD/svg11.dtd"><svg width="100%" height="100%" viewBox="0 0 240 150" version="1.1" xmlns="http://www.w3.org/2000/svg" xmlns:xlink="http://www.w3.org/1999/xlink" xml:space="preserve" xmlns:serif="http://www.serif.com/" style="fill-rule:evenodd;clip-rule:evenodd;stroke-linejoin:round;stroke-miterlimit:2;"><rect id="sticker" x="0.179" y="0.152" width="240" height="150" style="fill:none;"/><g><path id="Outline" d="M71.235,8.686l0.185,0.018l0.142,0.016l0.139,0.016l0.14,0.017l0.14,0.019l0.139,0.019l0.139,0.022l0.138,0.021l0.138,0.023l0.139,0.024l0.138,0.026l0.136,0.026l0.138,0.027l0.137,0.029l0.137,0.03l0.135,0.03l0.135,0.032l0.136,0.032l0.136,0.034l0.135,0.036l0.134,0.036l0.133,0.036l0.134,0.039l0.132,0.039l0.132,0.039l0.134,0.042l0.131,0.042l0.133,0.043l0.13,0.045l0.13,0.045l0.132,0.047l0.129,0.047l0.129,0.048l0.129,0.049l0.128,0.05l0.128,0.052l0.127,0.052l0.128,0.054l0.127,0.054l0.126,0.055l0.125,0.057l0.124,0.056l0.126,0.059l0.124,0.059l0.122,0.06l0.124,0.061l0.124,0.063l0.122,0.063l0.12,0.064l0.12,0.064l0.121,0.066l0.121,0.067l0.119,0.068l0.119,0.068l0.118,0.07l0.117,0.07l0.118,0.072l0.115,0.072l0.117,0.073l0.116,0.075l0.114,0.074l0.113,0.076l0.115,0.077l0.113,0.078l0.112,0.078l0.111,0.079l0.112,0.081l0.111,0.082l0.108,0.081l0.11,0.083l0.109,0.085l0.106,0.084l0.107,0.085l0.108,0.087l0.105,0.087l0.105,0.088l0.106,0.089l0.103,0.09l0.103,0.09l0.103,0.092l0.101,0.092l0.101,0.093l0.1,0.094l0.1,0.094l0.098,0.095l0.099,0.097l0.097,0.098l0.096,0.097l0.097,0.099l0.095,0.1l0.094,0.1l0.093,0.101l0.094,0.102l0.091,0.102l0.091,0.103l0.091,0.105l0.09,0.105l0.089,0.105l0.088,0.107l0.087,0.107l0.087,0.108l0.085,0.109l0.085,0.109l0.084,0.11l0.083,0.111l0.083,0.112l0.081,0.111l0.081,0.114l0.079,0.114l0.079,0.114l0.079,0.116l0.076,0.115l0.076,0.117l0.076,0.117l0.075,0.118l0.073,0.119l0.073,0.119l0.072,0.121l0.07,0.12l0.07,0.12l0.069,0.124l0.068,0.122l0.067,0.123l0.067,0.125l0.065,0.125l0.064,0.124l0.063,0.126l0.072,0.145l4.956,11.048l4.964,-11.065l0.052,-0.099l0.084,-0.156l0.064,-0.114l0.074,-0.131l0.086,-0.15l0.099,-0.167l0.11,-0.183l0.121,-0.198l0.133,-0.213l0.144,-0.223l0.077,-0.118l0.08,-0.121l0.082,-0.123l0.084,-0.124l0.087,-0.127l0.091,-0.13l0.093,-0.131l0.095,-0.134l0.098,-0.134l0.101,-0.138l0.103,-0.138l0.106,-0.139l0.109,-0.141l0.111,-0.142l0.114,-0.143l0.116,-0.143l0.119,-0.144l0.12,-0.144l0.125,-0.146l0.127,-0.145l0.129,-0.145l0.131,-0.145l0.134,-0.145l0.136,-0.144l0.139,-0.144l0.142,-0.144l0.144,-0.142l0.146,-0.141l0.15,-0.141l0.152,-0.139l0.154,-0.137l0.157,-0.137l0.16,-0.134l0.162,-0.133l0.161,-0.127l0.085,-0.066l0.086,-0.065l0.085,-0.063l0.085,-0.062l0.085,-0.062l0.087,-0.062l0.087,-0.06l0.09,-0.061l0.087,-0.058l0.089,-0.059l0.127,-0.081l0.126,-0.079l0.128,-0.078l0.128,-0.077l0.129,-0.075l0.129,-0.074l0.129,-0.072l0.13,-0.072l0.133,-0.071l0.131,-0.068l0.131,-0.067l0.133,-0.067l0.134,-0.065l0.134,-0.063l0.135,-0.063l0.134,-0.06l0.134,-0.06l0.136,-0.059l0.137,-0.057l0.136,-0.056l0.138,-0.055l0.138,-0.053l0.136,-0.051l0.139,-0.052l0.139,-0.05l0.139,-0.048l0.139,-0.047l0.141,-0.046l0.141,-0.045l0.138,-0.043l0.14,-0.043l0.143,-0.041l0.141,-0.04l0.141,-0.039l0.143,-0.038l0.142,-0.036l0.142,-0.035l0.143,-0.034l0.142,-0.033l0.145,-0.032l0.143,-0.03l0.142,-0.029l0.144,-0.029l0.146,-0.027l0.144,-0.026l0.142,-0.024l0.145,-0.024l0.145,-0.023l0.145,-0.021l0.145,-0.021l0.145,-0.019l0.145,-0.018l0.145,-0.017l0.146,-0.016l0.144,-0.014l0.144,-0.014l0.146,-0.013l0.148,-0.012l0.144,-0.01l0.145,-0.01l0.147,-0.008l0.145,-0.007l0.144,-0.006l0.168,-0.006l30.049,0l0.32,0.009l0.27,0.008l0.48,0.011l0.407,0.008l0.348,0.008l0.158,0.004l0.152,0.006l0.145,0.006l0.14,0.009l0.137,0.01l0.139,0.013l0.139,0.017l0.135,0.02l0.138,0.024l0.137,0.029l0.134,0.032l0.134,0.036l0.134,0.04l0.129,0.041l0.133,0.044l0.136,0.048l0.141,0.05l0.149,0.055l0.325,0.12l0.362,0.135l0.107,-0.031l0.238,-0.066l0.134,-0.036l0.138,-0.037l0.145,-0.038l0.153,-0.038l0.157,-0.038l0.164,-0.04l0.168,-0.038l0.172,-0.039l0.179,-0.038l0.181,-0.037l0.184,-0.036l0.188,-0.035l0.19,-0.033l0.192,-0.032l0.196,-0.029l0.198,-0.028l0.197,-0.024l0.197,-0.022l0.104,-0.01l0.099,-0.008l0.099,-0.008l0.1,-0.007l0.137,-0.009l0.135,-0.007l0.135,-0.005l0.134,-0.005l0.133,-0.004l0.137,-0.002l0.134,-0.001l0.135,-0.001l0.134,0.002l0.135,0.002l0.135,0.003l0.132,0.005l0.136,0.005l0.135,0.007l0.132,0.008l0.134,0.009l0.135,0.01l0.134,0.011l0.134,0.012l0.132,0.014l0.133,0.014l0.134,0.016l0.134,0.017l0.131,0.017l0.132,0.019l0.134,0.02l0.132,0.021l0.13,0.022l0.133,0.023l0.132,0.024l0.131,0.026l0.13,0.026l0.134,0.028l0.13,0.028l0.128,0.029l0.131,0.03l0.131,0.032l0.129,0.033l0.13,0.034l0.129,0.034l0.128,0.036l0.128,0.036l0.128,0.038l0.129,0.039l0.127,0.039l0.127,0.041l0.128,0.042l0.127,0.043l0.124,0.043l0.127,0.045l0.125,0.046l0.125,0.046l0.125,0.048l0.124,0.048l0.124,0.05l0.122,0.05l0.125,0.052l0.123,0.053l0.123,0.053l0.122,0.055l0.12,0.054l0.121,0.057l0.121,0.057l0.121,0.059l0.12,0.059l0.119,0.06l0.118,0.061l0.119,0.062l0.118,0.063l0.117,0.063l0.117,0.065l0.117,0.066l0.115,0.066l0.116,0.068l0.115,0.069l0.114,0.069l0.113,0.07l0.114,0.071l0.113,0.073l0.11,0.071l0.113,0.075l0.111,0.075l0.11,0.075l0.111,0.077l0.109,0.077l0.108,0.078l0.109,0.08l0.107,0.08l0.106,0.08l0.106,0.081l0.106,0.083l0.105,0.084l0.105,0.084l0.103,0.085l0.102,0.086l0.104,0.088l0.1,0.087l0.102,0.089l0.1,0.089l0.098,0.089l0.1,0.092l0.098,0.092l0.098,0.093l0.096,0.094l0.095,0.093l0.095,0.096l0.096,0.097l0.092,0.096l0.093,0.097l0.092,0.099l0.091,0.099l0.092,0.101l0.09,0.101l0.087,0.101l0.088,0.102l0.088,0.104l0.086,0.103l0.086,0.105l0.085,0.107l0.084,0.106l0.082,0.107l0.082,0.107l0.082,0.109l0.08,0.11l0.08,0.11l0.078,0.111l0.077,0.111l0.077,0.113l0.092,0.138l0.085,0.128l0.079,0.122l0.073,0.115l0.069,0.112l0.064,0.105l0.061,0.105l0.059,0.102l0.056,0.1l0.056,0.101l0.109,0.203l0.12,0.223l0.15,0.28l50.021,100.039l0.13,0.282l0.104,0.223l0.095,0.204l0.047,0.104l0.046,0.104l0.045,0.105l0.045,0.108l0.046,0.113l0.047,0.118l0.047,0.124l0.049,0.132l0.051,0.142l0.055,0.154l0.037,0.108l0.037,0.109l0.035,0.109l0.035,0.11l0.034,0.109l0.033,0.11l0.032,0.11l0.032,0.111l0.03,0.111l0.029,0.109l0.029,0.111l0.028,0.111l0.026,0.111l0.026,0.111l0.025,0.111l0.025,0.112l0.023,0.111l0.022,0.111l0.022,0.113l0.02,0.111l0.02,0.112l0.019,0.112l0.018,0.111l0.017,0.112l0.016,0.113l0.015,0.112l0.015,0.111l0.014,0.113l0.013,0.112l0.012,0.113l0.011,0.113l0.01,0.112l0.01,0.112l0.008,0.116l0.015,0.222l0.011,0.225l0.009,0.225l0.005,0.225l0.001,0.225l-0.001,0.225l-0.005,0.225l-0.008,0.224l-0.011,0.225l-0.014,0.224l-0.017,0.224l-0.02,0.223l-0.024,0.224l-0.026,0.223l-0.03,0.222l-0.032,0.222l-0.036,0.222l-0.038,0.221l-0.041,0.221l-0.045,0.22l-0.047,0.22l-0.05,0.219l-0.053,0.218l-0.055,0.217l-0.059,0.217l-0.061,0.216l-0.064,0.215l-0.067,0.216l-0.07,0.213l-0.072,0.212l-0.075,0.212l-0.077,0.212l-0.081,0.21l-0.082,0.209l-0.086,0.208l-0.088,0.207l-0.091,0.206l-0.093,0.204l-0.096,0.204l-0.099,0.202l-0.1,0.202l-0.104,0.2l-0.106,0.199l-0.108,0.197l-0.111,0.196l-0.113,0.195l-0.116,0.194l-0.118,0.192l-0.121,0.19l-0.123,0.189l-0.125,0.188l-0.127,0.186l-0.13,0.184l-0.132,0.183l-0.135,0.181l-0.137,0.18l-0.139,0.178l-0.141,0.175l-0.144,0.175l-0.146,0.173l-0.147,0.17l-0.15,0.169l-0.152,0.167l-0.155,0.165l-0.157,0.163l-0.159,0.161l-0.16,0.159l-0.164,0.157l-0.165,0.155l-0.167,0.152l-0.169,0.151l-0.172,0.148l-0.173,0.146l-0.175,0.144l-0.177,0.14l-0.179,0.14l-0.182,0.137l-0.184,0.134l-0.184,0.131l-0.187,0.129l-0.19,0.127l-0.191,0.124l-0.192,0.121l-0.195,0.12l-0.196,0.115l-0.197,0.113l-0.103,0.057l-0.097,0.054l-0.102,0.055l-0.102,0.054l-0.101,0.052l-0.103,0.053l-0.102,0.05l-0.102,0.051l-0.104,0.05l-0.104,0.05l-0.105,0.048l-0.104,0.048l-0.104,0.046l-0.106,0.047l-0.106,0.045l-0.107,0.045l-0.107,0.044l-0.106,0.042l-0.108,0.043l-0.108,0.042l-0.109,0.041l-0.108,0.039l-0.108,0.039l-0.112,0.039l-0.109,0.037l-0.109,0.037l-0.112,0.036l-0.111,0.035l-0.11,0.034l-0.113,0.034l-0.114,0.033l-0.111,0.031l-0.112,0.031l-0.115,0.03l-0.113,0.029l-0.114,0.028l-0.113,0.027l-0.115,0.027l-0.116,0.026l-0.116,0.025l-0.115,0.023l-0.116,0.023l-0.117,0.023l-0.118,0.021l-0.116,0.02l-0.116,0.019l-0.119,0.019l-0.119,0.017l-0.117,0.017l-0.118,0.015l-0.162,0.021l-0.15,0.017l-0.139,0.015l-0.132,0.014l-0.128,0.011l-0.121,0.009l-0.116,0.008l-0.117,0.007l-0.111,0.005l-0.112,0.004l-0.227,0.007l-0.246,0.007l-0.31,0.009l-30.06,-0.007l-0.105,-0.006l-0.165,-0.011l-0.119,-0.01l-0.141,-0.012l-0.161,-0.016l-0.18,-0.018l-0.197,-0.022l-0.216,-0.026l-0.232,-0.03l-0.247,-0.035l-0.26,-0.039l-0.273,-0.043l-0.145,-0.025l-0.144,-0.025l-0.146,-0.027l-0.152,-0.028l-0.152,-0.03l-0.155,-0.03l-0.158,-0.033l-0.159,-0.034l-0.161,-0.036l-0.163,-0.037l-0.167,-0.039l-0.167,-0.042l-0.168,-0.042l-0.169,-0.044l-0.171,-0.046l-0.173,-0.049l-0.174,-0.05l-0.174,-0.052l-0.174,-0.054l-0.176,-0.056l-0.177,-0.059l-0.176,-0.061l-0.178,-0.063l-0.177,-0.065l-0.176,-0.068l-0.178,-0.07l-0.177,-0.072l-0.177,-0.075l-0.177,-0.079l-0.176,-0.08l-0.175,-0.083l-0.174,-0.086l-0.175,-0.09l-0.173,-0.092l-0.167,-0.093l-0.088,-0.051l-0.086,-0.05l-0.128,-0.076l-0.127,-0.078l-0.126,-0.078l-0.127,-0.081l-0.124,-0.081l-0.125,-0.084l-0.121,-0.082l-0.123,-0.085l-0.122,-0.087l-0.119,-0.086l-0.119,-0.088l-0.119,-0.089l-0.117,-0.09l-0.117,-0.092l-0.116,-0.092l-0.114,-0.093l-0.114,-0.094l-0.112,-0.095l-0.113,-0.097l-0.11,-0.097l-0.11,-0.097l-0.11,-0.101l-0.108,-0.099l-0.107,-0.101l-0.106,-0.102l-0.105,-0.102l-0.104,-0.103l-0.104,-0.105l-0.103,-0.105l-0.102,-0.106l-0.101,-0.108l-0.099,-0.107l-0.098,-0.108l-0.098,-0.109l-0.097,-0.11l-0.097,-0.111l-0.095,-0.112l-0.094,-0.112l-0.093,-0.114l-0.092,-0.113l-0.091,-0.114l-0.091,-0.116l-0.089,-0.115l-0.088,-0.116l-0.088,-0.118l-0.087,-0.118l-0.085,-0.118l-0.086,-0.12l-0.083,-0.12l-0.083,-0.12l-0.082,-0.121l-0.08,-0.12l-0.08,-0.123l-0.08,-0.124l-0.078,-0.122l-0.077,-0.123l-0.076,-0.125l-0.075,-0.124l-0.075,-0.126l-0.074,-0.127l-0.071,-0.124l-0.072,-0.127l-0.071,-0.128l-0.08,-0.147l-25.254,-50.507l-25.252,50.505l-0.499,0.921l-0.182,0.291l-0.134,0.215l-0.122,0.195l-0.062,0.097l-0.064,0.098l-0.065,0.098l-0.066,0.098l-0.072,0.103l-0.076,0.107l-0.08,0.109l-0.086,0.116l-0.094,0.123l-0.101,0.132l-0.075,0.096l-0.076,0.096l-0.077,0.094l-0.076,0.093l-0.078,0.093l-0.079,0.093l-0.08,0.092l-0.081,0.091l-0.08,0.089l-0.081,0.088l-0.083,0.09l-0.083,0.088l-0.083,0.086l-0.085,0.087l-0.084,0.085l-0.086,0.085l-0.086,0.084l-0.086,0.082l-0.087,0.082l-0.089,0.082l-0.089,0.082l-0.089,0.079l-0.09,0.079l-0.09,0.079l-0.091,0.077l-0.091,0.077l-0.093,0.076l-0.092,0.075l-0.094,0.076l-0.094,0.072l-0.093,0.073l-0.096,0.073l-0.095,0.071l-0.096,0.071l-0.096,0.069l-0.097,0.069l-0.097,0.068l-0.098,0.068l-0.099,0.067l-0.099,0.066l-0.099,0.065l-0.1,0.064l-0.101,0.064l-0.101,0.063l-0.1,0.061l-0.103,0.062l-0.1,0.06l-0.104,0.06l-0.103,0.059l-0.103,0.058l-0.104,0.057l-0.103,0.056l-0.105,0.056l-0.106,0.056l-0.104,0.054l-0.107,0.053l-0.107,0.053l-0.107,0.052l-0.105,0.051l-0.106,0.05l-0.11,0.05l-0.107,0.049l-0.108,0.047l-0.109,0.048l-0.109,0.047l-0.11,0.046l-0.109,0.044l-0.11,0.044l-0.111,0.044l-0.11,0.042l-0.111,0.042l-0.112,0.041l-0.112,0.041l-0.114,0.04l-0.22,0.076l-0.227,0.074l-0.226,0.07l-0.227,0.068l-0.229,0.064l-0.229,0.061l-0.229,0.059l-0.231,0.055l-0.233,0.052l-0.232,0.049l-0.233,0.046l-0.233,0.043l-0.235,0.04l-0.235,0.037l-0.235,0.033l-0.236,0.031l-0.236,0.028l-0.237,0.024l-0.238,0.022l-0.237,0.018l-0.237,0.015l-0.238,0.012l-0.239,0.009l-0.238,0.006l-0.237,0.003l-0.239,0l-0.239,-0.004l-0.237,-0.006l-0.238,-0.01l-0.239,-0.012l-0.238,-0.016l-0.238,-0.019l-0.238,-0.022l-0.237,-0.025l-0.237,-0.028l-0.237,-0.032l-0.236,-0.034l-0.236,-0.038l-0.236,-0.04l-0.234,-0.044l-0.234,-0.047l-0.234,-0.051l-0.234,-0.053l-0.232,-0.057l-0.229,-0.059l-0.118,-0.032l-0.115,-0.032l-0.116,-0.032l-0.115,-0.034l-0.115,-0.034l-0.113,-0.035l-0.114,-0.036l-0.114,-0.037l-0.115,-0.037l-0.113,-0.038l-0.113,-0.039l-0.114,-0.041l-0.113,-0.04l-0.112,-0.042l-0.111,-0.042l-0.112,-0.043l-0.114,-0.045l-0.111,-0.045l-0.109,-0.044l-0.112,-0.047l-0.11,-0.047l-0.11,-0.048l-0.111,-0.049l-0.107,-0.049l-0.11,-0.05l-0.11,-0.052l-0.109,-0.053l-0.107,-0.052l-0.107,-0.054l-0.109,-0.055l-0.108,-0.056l-0.105,-0.055l-0.106,-0.057l-0.106,-0.058l-0.106,-0.059l-0.106,-0.06l-0.104,-0.06l-0.104,-0.061l-0.104,-0.062l-0.104,-0.063l-0.103,-0.063l-0.103,-0.065l-0.101,-0.065l-0.101,-0.066l-0.103,-0.068l-0.101,-0.068l-0.1,-0.068l-0.1,-0.07l-0.098,-0.069l-0.1,-0.071l-0.099,-0.073l-0.097,-0.073l-0.097,-0.073l-0.097,-0.074l-0.098,-0.077l-0.096,-0.076l-0.093,-0.076l-0.095,-0.077l-0.096,-0.08l-0.093,-0.08l-0.092,-0.079l-0.093,-0.081l-0.092,-0.082l-0.091,-0.083l-0.092,-0.085l-0.09,-0.084l-0.089,-0.085l-0.089,-0.086l-0.088,-0.087l-0.088,-0.088l-0.088,-0.09l-0.086,-0.089l-0.084,-0.089l-0.086,-0.091l-0.085,-0.093l-0.084,-0.093l-0.084,-0.094l-0.082,-0.095l-0.081,-0.094l-0.082,-0.097l-0.08,-0.097l-0.08,-0.097l-0.079,-0.1l-0.078,-0.099l-0.078,-0.101l-0.076,-0.1l-0.077,-0.103l-0.075,-0.102l-0.074,-0.103l-0.075,-0.105l-0.073,-0.105l-0.072,-0.106l-0.092,-0.138l-0.085,-0.129l-0.079,-0.121l-0.073,-0.116l-0.069,-0.111l-0.064,-0.106l-0.061,-0.104l-0.059,-0.103l-0.056,-0.1l-0.056,-0.101l-0.109,-0.203l-0.12,-0.223l-0.15,-0.28l-50.02,-100.039l-0.131,-0.282l-0.104,-0.223l-0.095,-0.205l-0.046,-0.102l-0.046,-0.104l-0.046,-0.106l-0.045,-0.107l-0.046,-0.113l-0.047,-0.119l-0.047,-0.124l-0.049,-0.131l-0.051,-0.143l-0.054,-0.153l-0.038,-0.108l-0.036,-0.109l-0.036,-0.11l-0.035,-0.109l-0.034,-0.11l-0.033,-0.11l-0.032,-0.11l-0.032,-0.111l-0.03,-0.11l-0.029,-0.11l-0.029,-0.111l-0.028,-0.111l-0.027,-0.111l-0.025,-0.11l-0.025,-0.111l-0.024,-0.113l-0.024,-0.112l-0.022,-0.111l-0.021,-0.11l-0.021,-0.112l-0.02,-0.112l-0.019,-0.112l-0.017,-0.112l-0.018,-0.112l-0.016,-0.112l-0.015,-0.113l-0.015,-0.111l-0.013,-0.112l-0.013,-0.113l-0.013,-0.113l-0.011,-0.112l-0.01,-0.112l-0.009,-0.113l-0.009,-0.116l-0.015,-0.221l-0.011,-0.225l-0.008,-0.225l-0.006,-0.225l-0.001,-0.226l0.001,-0.224l0.005,-0.225l0.008,-0.225l0.011,-0.224l0.014,-0.224l0.017,-0.224l0.021,-0.224l0.023,-0.224l0.027,-0.222l0.029,-0.223l0.032,-0.222l0.036,-0.221l0.038,-0.221l0.042,-0.222l0.044,-0.22l0.047,-0.219l0.05,-0.219l0.053,-0.219l0.055,-0.216l0.059,-0.218l0.061,-0.216l0.064,-0.215l0.067,-0.215l0.07,-0.213l0.072,-0.213l0.075,-0.212l0.077,-0.211l0.081,-0.21l0.083,-0.209l0.085,-0.208l0.088,-0.207l0.091,-0.207l0.094,-0.204l0.095,-0.204l0.099,-0.202l0.1,-0.201l0.104,-0.201l0.106,-0.198l0.108,-0.197l0.111,-0.197l0.113,-0.194l0.116,-0.194l0.119,-0.193l0.12,-0.19l0.122,-0.188l0.126,-0.188l0.128,-0.187l0.129,-0.184l0.132,-0.183l0.135,-0.181l0.137,-0.18l0.139,-0.177l0.141,-0.176l0.144,-0.175l0.146,-0.172l0.148,-0.171l0.15,-0.169l0.152,-0.166l0.154,-0.165l0.157,-0.164l0.159,-0.16l0.161,-0.159l0.163,-0.157l0.165,-0.155l0.167,-0.152l0.17,-0.151l0.171,-0.148l0.173,-0.146l0.176,-0.144l0.176,-0.141l0.179,-0.139l0.183,-0.137l0.183,-0.134l0.185,-0.132l0.187,-0.129l0.189,-0.127l0.191,-0.124l0.192,-0.121l0.195,-0.119l0.197,-0.116l0.197,-0.113l0.101,-0.056l0.098,-0.054l0.102,-0.055l0.103,-0.054l0.1,-0.053l0.103,-0.052l0.102,-0.051l0.102,-0.05l0.104,-0.051l0.104,-0.049l0.105,-0.049l0.104,-0.047l0.104,-0.047l0.106,-0.046l0.106,-0.046l0.107,-0.045l0.107,-0.043l0.106,-0.043l0.108,-0.043l0.108,-0.041l0.109,-0.041l0.108,-0.04l0.108,-0.039l0.11,-0.038l0.111,-0.038l0.111,-0.037l0.11,-0.036l0.112,-0.035l0.109,-0.033l0.113,-0.034l0.112,-0.033l0.113,-0.032l0.114,-0.031l0.111,-0.029l0.115,-0.03l0.116,-0.028l0.111,-0.027l0.115,-0.026l0.116,-0.026l0.117,-0.025l0.115,-0.024l0.115,-0.023l0.117,-0.022l0.118,-0.022l0.116,-0.019l0.117,-0.02l0.118,-0.018l0.119,-0.018l0.117,-0.016l0.118,-0.016l0.162,-0.02l0.15,-0.018l0.139,-0.015l0.132,-0.013l0.129,-0.012l0.12,-0.009l0.116,-0.008l0.117,-0.006l0.111,-0.005l0.112,-0.005l0.227,-0.007l0.246,-0.006l0.31,-0.009l30.048,0l1.031,0.033Zm-31.056,1.467l-0.291,0.008l-0.245,0.007l-0.216,0.007l-0.102,0.003l-0.099,0.005l-0.1,0.006l-0.101,0.006l-0.105,0.008l-0.11,0.01l-0.118,0.012l-0.127,0.014l-0.138,0.016l-0.151,0.019l-0.106,0.014l-0.107,0.015l-0.106,0.016l-0.106,0.016l-0.105,0.018l-0.105,0.018l-0.105,0.019l-0.105,0.02l-0.104,0.02l-0.104,0.022l-0.104,0.022l-0.104,0.023l-0.103,0.024l-0.103,0.025l-0.102,0.025l-0.102,0.026l-0.102,0.027l-0.102,0.028l-0.101,0.028l-0.101,0.03l-0.101,0.03l-0.1,0.031l-0.1,0.031l-0.1,0.032l-0.099,0.034l-0.099,0.033l-0.099,0.035l-0.098,0.035l-0.098,0.036l-0.098,0.037l-0.097,0.037l-0.097,0.038l-0.096,0.039l-0.097,0.04l-0.095,0.04l-0.096,0.041l-0.095,0.042l-0.095,0.042l-0.094,0.043l-0.095,0.044l-0.093,0.044l-0.094,0.045l-0.093,0.046l-0.092,0.047l-0.092,0.047l-0.092,0.048l-0.092,0.048l-0.091,0.049l-0.091,0.05l-0.09,0.05l-0.18,0.103l-0.178,0.105l-0.176,0.108l-0.175,0.11l-0.173,0.112l-0.172,0.115l-0.169,0.118l-0.169,0.119l-0.166,0.122l-0.165,0.124l-0.163,0.127l-0.162,0.129l-0.159,0.131l-0.158,0.133l-0.157,0.135l-0.154,0.137l-0.152,0.139l-0.151,0.141l-0.149,0.144l-0.147,0.145l-0.145,0.147l-0.143,0.149l-0.142,0.151l-0.139,0.153l-0.137,0.154l-0.136,0.156l-0.133,0.158l-0.132,0.16l-0.129,0.161l-0.128,0.163l-0.125,0.165l-0.123,0.166l-0.122,0.167l-0.119,0.17l-0.117,0.17l-0.115,0.172l-0.112,0.174l-0.111,0.175l-0.108,0.176l-0.106,0.177l-0.104,0.179l-0.102,0.18l-0.1,0.181l-0.097,0.183l-0.095,0.183l-0.092,0.185l-0.09,0.186l-0.088,0.186l-0.086,0.188l-0.083,0.189l-0.081,0.19l-0.078,0.191l-0.076,0.191l-0.074,0.193l-0.071,0.193l-0.069,0.194l-0.066,0.195l-0.064,0.195l-0.061,0.197l-0.058,0.197l-0.056,0.197l-0.054,0.198l-0.051,0.199l-0.048,0.199l-0.046,0.2l-0.043,0.201l-0.04,0.2l-0.038,0.201l-0.035,0.202l-0.032,0.202l-0.029,0.202l-0.027,0.202l-0.024,0.203l-0.021,0.203l-0.019,0.203l-0.016,0.203l-0.012,0.204l-0.01,0.203l-0.008,0.204l-0.004,0.203l-0.001,0.204l0.001,0.203l0.005,0.204l0.007,0.203l0.011,0.203l0.013,0.203l0.008,0.102l0.008,0.101l0.01,0.102l0.01,0.101l0.011,0.101l0.011,0.101l0.012,0.101l0.014,0.101l0.013,0.101l0.015,0.101l0.015,0.101l0.017,0.1l0.017,0.101l0.017,0.1l0.019,0.101l0.019,0.1l0.02,0.1l0.021,0.1l0.022,0.1l0.022,0.1l0.023,0.099l0.024,0.1l0.025,0.099l0.026,0.099l0.026,0.099l0.027,0.099l0.028,0.099l0.029,0.098l0.03,0.099l0.03,0.098l0.031,0.098l0.032,0.098l0.033,0.098l0.034,0.097l0.05,0.144l0.048,0.13l0.044,0.12l0.042,0.11l0.041,0.104l0.039,0.097l0.04,0.094l0.039,0.091l0.041,0.091l0.041,0.093l0.091,0.196l0.104,0.223l0.122,0.263l50,99.999l0.141,0.262l0.119,0.222l0.105,0.195l0.05,0.091l0.05,0.089l0.051,0.088l0.053,0.09l0.055,0.092l0.06,0.097l0.065,0.102l0.071,0.11l0.078,0.119l0.087,0.129l0.065,0.095l0.066,0.095l0.066,0.094l0.068,0.093l0.067,0.093l0.069,0.091l0.069,0.091l0.07,0.091l0.07,0.089l0.071,0.089l0.072,0.088l0.072,0.087l0.073,0.087l0.074,0.085l0.074,0.085l0.075,0.085l0.075,0.083l0.076,0.083l0.077,0.082l0.077,0.081l0.077,0.081l0.079,0.079l0.079,0.079l0.079,0.079l0.08,0.077l0.081,0.077l0.081,0.076l0.082,0.075l0.082,0.075l0.083,0.074l0.083,0.073l0.084,0.072l0.084,0.072l0.085,0.071l0.085,0.07l0.086,0.069l0.087,0.069l0.087,0.068l0.087,0.067l0.088,0.066l0.088,0.066l0.089,0.065l0.089,0.064l0.09,0.064l0.09,0.062l0.091,0.062l0.091,0.062l0.091,0.06l0.092,0.06l0.093,0.059l0.092,0.058l0.094,0.058l0.093,0.057l0.094,0.056l0.095,0.055l0.095,0.055l0.095,0.054l0.095,0.053l0.096,0.052l0.097,0.052l0.097,0.051l0.097,0.05l0.097,0.05l0.098,0.049l0.098,0.048l0.099,0.047l0.098,0.047l0.1,0.045l0.099,0.046l0.1,0.044l0.1,0.044l0.101,0.043l0.1,0.042l0.102,0.041l0.101,0.041l0.102,0.04l0.101,0.039l0.103,0.039l0.102,0.038l0.103,0.037l0.103,0.036l0.103,0.036l0.104,0.035l0.104,0.034l0.104,0.033l0.104,0.033l0.105,0.032l0.104,0.032l0.105,0.03l0.105,0.03l0.106,0.029l0.105,0.029l0.212,0.054l0.213,0.052l0.213,0.049l0.214,0.046l0.214,0.043l0.216,0.04l0.215,0.038l0.216,0.034l0.217,0.032l0.217,0.029l0.217,0.025l0.218,0.023l0.218,0.021l0.219,0.017l0.218,0.014l0.219,0.012l0.219,0.009l0.218,0.006l0.219,0.003l0.219,0l0.219,-0.003l0.219,-0.005l0.218,-0.009l0.219,-0.011l0.218,-0.014l0.218,-0.016l0.217,-0.02l0.218,-0.023l0.217,-0.025l0.216,-0.028l0.216,-0.031l0.215,-0.034l0.215,-0.036l0.214,-0.039l0.214,-0.043l0.213,-0.044l0.212,-0.048l0.212,-0.051l0.21,-0.053l0.21,-0.056l0.209,-0.059l0.208,-0.062l0.206,-0.064l0.206,-0.068l0.205,-0.07l0.102,-0.036l0.102,-0.037l0.101,-0.037l0.101,-0.038l0.101,-0.039l0.101,-0.04l0.1,-0.04l0.1,-0.041l0.099,-0.041l0.099,-0.043l0.099,-0.043l0.099,-0.043l0.098,-0.045l0.098,-0.045l0.097,-0.046l0.097,-0.046l0.097,-0.047l0.097,-0.048l0.096,-0.048l0.095,-0.05l0.095,-0.05l0.095,-0.05l0.095,-0.051l0.094,-0.052l0.094,-0.053l0.093,-0.053l0.093,-0.054l0.092,-0.055l0.092,-0.056l0.091,-0.056l0.092,-0.056l0.09,-0.058l0.09,-0.058l0.09,-0.059l0.089,-0.059l0.089,-0.06l0.089,-0.061l0.088,-0.062l0.087,-0.062l0.087,-0.063l0.086,-0.064l0.086,-0.064l0.086,-0.065l0.084,-0.066l0.085,-0.066l0.084,-0.067l0.083,-0.068l0.083,-0.068l0.082,-0.069l0.082,-0.07l0.081,-0.07l0.081,-0.071l0.08,-0.072l0.079,-0.072l0.079,-0.073l0.079,-0.074l0.077,-0.075l0.078,-0.075l0.076,-0.076l0.076,-0.076l0.076,-0.077l0.075,-0.078l0.074,-0.079l0.073,-0.079l0.073,-0.08l0.073,-0.08l0.071,-0.082l0.072,-0.082l0.07,-0.082l0.07,-0.083l0.069,-0.084l0.068,-0.085l0.068,-0.085l0.067,-0.086l0.095,-0.123l0.086,-0.114l0.078,-0.105l0.072,-0.097l0.066,-0.093l0.061,-0.088l0.059,-0.086l0.056,-0.085l0.056,-0.086l0.056,-0.088l0.117,-0.187l0.133,-0.214l0.158,-0.252l0.465,-0.859l25.703,-51.405l0.016,-0.031l0.017,-0.03l0.018,-0.029l0.019,-0.029l0.02,-0.028l0.021,-0.027l0.022,-0.026l0.022,-0.026l0.024,-0.024l0.024,-0.024l0.025,-0.023l0.025,-0.022l0.027,-0.021l0.027,-0.02l0.027,-0.019l0.029,-0.018l0.029,-0.017l0.029,-0.016l0.03,-0.016l0.031,-0.014l0.031,-0.013l0.031,-0.012l0.032,-0.011l0.033,-0.01l0.033,-0.009l0.033,-0.007l0.033,-0.007l0.034,-0.005l0.034,-0.005l0.035,-0.003l0.034,-0.002l0.035,0l0.035,0l0.035,0.002l0.034,0.003l0.034,0.005l0.034,0.005l0.034,0.007l0.033,0.007l0.033,0.009l0.032,0.01l0.032,0.011l0.032,0.012l0.031,0.013l0.03,0.014l0.03,0.016l0.03,0.016l0.029,0.017l0.028,0.018l0.028,0.019l0.027,0.02l0.026,0.021l0.026,0.022l0.025,0.023l0.024,0.024l0.023,0.024l0.023,0.026l0.022,0.026l0.021,0.027l0.019,0.028l0.02,0.029l0.018,0.029l0.017,0.03l0.016,0.031l25.703,51.406l0.065,0.118l0.065,0.118l0.066,0.117l0.067,0.117l0.068,0.116l0.069,0.116l0.069,0.115l0.071,0.115l0.071,0.115l0.072,0.113l0.073,0.113l0.074,0.113l0.075,0.112l0.075,0.112l0.076,0.11l0.078,0.111l0.078,0.109l0.078,0.109l0.08,0.109l0.081,0.108l0.081,0.107l0.082,0.106l0.083,0.106l0.084,0.105l0.085,0.104l0.085,0.104l0.086,0.103l0.087,0.102l0.088,0.102l0.089,0.1l0.09,0.1l0.09,0.1l0.091,0.098l0.092,0.098l0.093,0.097l0.093,0.096l0.095,0.095l0.095,0.094l0.096,0.094l0.097,0.092l0.097,0.092l0.099,0.091l0.099,0.09l0.1,0.089l0.101,0.088l0.101,0.088l0.103,0.086l0.103,0.085l0.104,0.085l0.104,0.083l0.106,0.083l0.106,0.082l0.107,0.08l0.108,0.08l0.108,0.078l0.11,0.078l0.11,0.076l0.111,0.076l0.111,0.074l0.113,0.073l0.113,0.073l0.114,0.071l0.114,0.07l0.116,0.069l0.073,0.043l0.074,0.042l0.149,0.083l0.151,0.08l0.153,0.079l0.154,0.076l0.155,0.074l0.157,0.071l0.158,0.07l0.159,0.067l0.159,0.066l0.16,0.063l0.161,0.061l0.161,0.06l0.162,0.057l0.161,0.056l0.162,0.053l0.161,0.052l0.162,0.05l0.16,0.048l0.161,0.047l0.159,0.044l0.159,0.043l0.158,0.041l0.157,0.04l0.156,0.038l0.154,0.037l0.153,0.035l0.151,0.033l0.149,0.032l0.148,0.031l0.146,0.029l0.143,0.028l0.141,0.026l0.139,0.025l0.136,0.024l0.133,0.022l0.259,0.042l0.246,0.037l0.232,0.032l0.218,0.028l0.202,0.025l0.186,0.02l0.168,0.018l0.149,0.014l0.129,0.011l0.108,0.009l0.148,0.011l0.052,0.003l29.994,0.006l0.29,-0.009l0.246,-0.006l0.216,-0.007l0.101,-0.004l0.1,-0.005l0.099,-0.005l0.101,-0.007l0.105,-0.008l0.111,-0.01l0.117,-0.012l0.127,-0.013l0.138,-0.017l0.151,-0.018l0.106,-0.014l0.107,-0.015l0.106,-0.016l0.106,-0.017l0.105,-0.017l0.106,-0.018l0.105,-0.019l0.104,-0.02l0.105,-0.021l0.104,-0.021l0.103,-0.023l0.104,-0.023l0.103,-0.023l0.103,-0.025l0.102,-0.026l0.103,-0.026l0.101,-0.027l0.102,-0.028l0.101,-0.028l0.101,-0.029l0.101,-0.03l0.1,-0.031l0.1,-0.032l0.1,-0.032l0.099,-0.033l0.099,-0.034l0.099,-0.034l0.098,-0.036l0.098,-0.036l0.098,-0.036l0.097,-0.038l0.097,-0.038l0.097,-0.039l0.096,-0.039l0.096,-0.041l0.095,-0.041l0.095,-0.041l0.095,-0.043l0.095,-0.043l0.094,-0.044l0.093,-0.044l0.094,-0.045l0.093,-0.046l0.092,-0.046l0.093,-0.047l0.092,-0.048l0.091,-0.049l0.091,-0.049l0.091,-0.049l0.09,-0.051l0.18,-0.102l0.178,-0.105l0.176,-0.108l0.175,-0.11l0.173,-0.113l0.172,-0.115l0.17,-0.117l0.168,-0.12l0.166,-0.122l0.165,-0.124l0.164,-0.127l0.161,-0.128l0.16,-0.131l0.158,-0.133l0.156,-0.135l0.154,-0.137l0.153,-0.14l0.15,-0.141l0.149,-0.143l0.147,-0.145l0.145,-0.148l0.144,-0.149l0.141,-0.15l0.139,-0.153l0.138,-0.155l0.135,-0.156l0.134,-0.158l0.131,-0.159l0.129,-0.162l0.128,-0.163l0.125,-0.164l0.124,-0.166l0.121,-0.168l0.119,-0.169l0.117,-0.171l0.115,-0.172l0.113,-0.173l0.11,-0.175l0.108,-0.176l0.107,-0.178l0.104,-0.179l0.101,-0.18l0.1,-0.181l0.097,-0.182l0.095,-0.184l0.092,-0.184l0.091,-0.186l0.088,-0.187l0.085,-0.188l0.083,-0.189l0.081,-0.189l0.079,-0.191l0.076,-0.192l0.073,-0.192l0.071,-0.193l0.069,-0.195l0.066,-0.194l0.064,-0.196l0.061,-0.196l0.058,-0.197l0.057,-0.198l0.053,-0.198l0.051,-0.199l0.048,-0.199l0.046,-0.2l0.043,-0.2l0.04,-0.201l0.038,-0.201l0.035,-0.201l0.032,-0.202l0.03,-0.202l0.026,-0.203l0.024,-0.203l0.022,-0.203l0.018,-0.203l0.016,-0.203l0.013,-0.203l0.01,-0.204l0.007,-0.203l0.004,-0.204l0.001,-0.203l-0.001,-0.204l-0.005,-0.203l-0.007,-0.204l-0.01,-0.203l-0.014,-0.203l-0.008,-0.101l-0.008,-0.102l-0.009,-0.101l-0.01,-0.101l-0.011,-0.102l-0.012,-0.101l-0.012,-0.101l-0.013,-0.101l-0.014,-0.101l-0.015,-0.101l-0.015,-0.1l-0.016,-0.101l-0.017,-0.1l-0.018,-0.101l-0.019,-0.1l-0.019,-0.1l-0.02,-0.101l-0.021,-0.1l-0.021,-0.099l-0.023,-0.1l-0.023,-0.1l-0.024,-0.099l-0.025,-0.1l-0.025,-0.099l-0.027,-0.099l-0.027,-0.099l-0.028,-0.098l-0.029,-0.099l-0.029,-0.098l-0.031,-0.099l-0.031,-0.098l-0.032,-0.098l-0.033,-0.097l-0.034,-0.098l-0.05,-0.143l-0.047,-0.131l-0.045,-0.119l-0.042,-0.111l-0.041,-0.103l-0.039,-0.098l-0.039,-0.093l-0.04,-0.092l-0.04,-0.091l-0.042,-0.092l-0.091,-0.196l-0.104,-0.223l-0.122,-0.264l-50,-99.999l-0.141,-0.261l-0.119,-0.223l-0.105,-0.194l-0.05,-0.091l-0.05,-0.089l-0.051,-0.089l-0.053,-0.09l-0.055,-0.092l-0.06,-0.096l-0.065,-0.103l-0.071,-0.109l-0.078,-0.119l-0.087,-0.129l-0.069,-0.102l-0.07,-0.101l-0.071,-0.1l-0.072,-0.1l-0.073,-0.099l-0.073,-0.099l-0.075,-0.097l-0.075,-0.097l-0.076,-0.097l-0.076,-0.095l-0.078,-0.095l-0.078,-0.094l-0.079,-0.094l-0.08,-0.093l-0.08,-0.092l-0.082,-0.091l-0.082,-0.091l-0.083,-0.09l-0.083,-0.09l-0.084,-0.088l-0.085,-0.088l-0.086,-0.087l-0.086,-0.087l-0.087,-0.086l-0.088,-0.084l-0.088,-0.085l-0.089,-0.083l-0.09,-0.083l-0.091,-0.082l-0.091,-0.081l-0.091,-0.081l-0.093,-0.08l-0.093,-0.079l-0.093,-0.078l-0.095,-0.077l-0.095,-0.077l-0.095,-0.076l-0.096,-0.075l-0.097,-0.075l-0.097,-0.073l-0.098,-0.073l-0.098,-0.072l-0.099,-0.071l-0.1,-0.071l-0.1,-0.07l-0.1,-0.068l-0.101,-0.069l-0.102,-0.067l-0.102,-0.066l-0.103,-0.066l-0.103,-0.065l-0.104,-0.064l-0.104,-0.063l-0.105,-0.062l-0.105,-0.062l-0.106,-0.061l-0.106,-0.059l-0.106,-0.059l-0.108,-0.059l-0.107,-0.057l-0.108,-0.057l-0.108,-0.055l-0.109,-0.055l-0.109,-0.054l-0.11,-0.053l-0.11,-0.052l-0.111,-0.052l-0.11,-0.05l-0.112,-0.05l-0.111,-0.048l-0.112,-0.048l-0.113,-0.047l-0.112,-0.046l-0.113,-0.046l-0.114,-0.044l-0.113,-0.043l-0.115,-0.043l-0.114,-0.042l-0.115,-0.04l-0.115,-0.04l-0.115,-0.039l-0.116,-0.038l-0.116,-0.037l-0.116,-0.036l-0.116,-0.036l-0.117,-0.034l-0.117,-0.033l-0.117,-0.033l-0.118,-0.031l-0.117,-0.031l-0.118,-0.029l-0.119,-0.029l-0.118,-0.028l-0.119,-0.027l-0.119,-0.026l-0.119,-0.024l-0.119,-0.024l-0.119,-0.023l-0.12,-0.022l-0.12,-0.021l-0.12,-0.02l-0.12,-0.02l-0.12,-0.018l-0.121,-0.017l-0.12,-0.016l-0.121,-0.015l-0.121,-0.014l-0.121,-0.013l-0.121,-0.012l-0.121,-0.012l-0.121,-0.01l-0.121,-0.009l-0.122,-0.008l-0.121,-0.007l-0.122,-0.006l-0.122,-0.005l-0.121,-0.004l-0.122,-0.003l-0.122,-0.002l-0.122,-0.001l-0.122,0l-0.121,0.001l-0.122,0.002l-0.122,0.003l-0.122,0.004l-0.122,0.006l-0.122,0.006l-0.122,0.008l-0.086,0.006l-0.087,0.006l-0.087,0.008l-0.088,0.009l-0.176,0.019l-0.177,0.022l-0.177,0.024l-0.176,0.027l-0.176,0.029l-0.175,0.03l-0.173,0.032l-0.171,0.034l-0.168,0.034l-0.165,0.036l-0.161,0.036l-0.158,0.036l-0.153,0.036l-0.148,0.037l-0.143,0.036l-0.137,0.035l-0.131,0.035l-0.124,0.033l-0.225,0.063l-0.193,0.056l-0.157,0.047l-0.116,0.035l-0.097,0.031l-0.456,-0.167l-0.383,-0.143l-0.321,-0.119l-0.141,-0.052l-0.13,-0.046l-0.12,-0.042l-0.113,-0.038l-0.105,-0.033l-0.1,-0.03l-0.097,-0.026l-0.094,-0.022l-0.093,-0.02l-0.094,-0.016l-0.096,-0.015l-0.099,-0.012l-0.104,-0.01l-0.11,-0.008l-0.118,-0.007l-0.127,-0.005l-0.138,-0.005l-0.15,-0.004l-0.342,-0.008l-0.408,-0.008l-0.485,-0.012l-0.276,-0.007l-0.298,-0.009l-30,0l-0.135,0.005l-0.135,0.005l-0.134,0.007l-0.135,0.008l-0.135,0.008l-0.134,0.01l-0.134,0.011l-0.135,0.012l-0.134,0.012l-0.134,0.014l-0.134,0.015l-0.134,0.015l-0.134,0.017l-0.134,0.018l-0.133,0.018l-0.133,0.02l-0.133,0.021l-0.133,0.022l-0.133,0.023l-0.133,0.023l-0.132,0.025l-0.132,0.026l-0.132,0.027l-0.132,0.028l-0.131,0.029l-0.131,0.031l-0.131,0.031l-0.13,0.032l-0.131,0.033l-0.13,0.035l-0.129,0.035l-0.129,0.037l-0.129,0.037l-0.129,0.039l-0.128,0.04l-0.128,0.041l-0.128,0.042l-0.127,0.043l-0.126,0.044l-0.127,0.045l-0.126,0.046l-0.125,0.048l-0.125,0.048l-0.125,0.05l-0.124,0.051l-0.123,0.052l-0.123,0.053l-0.123,0.054l-0.122,0.055l-0.122,0.057l-0.121,0.057l-0.121,0.059l-0.12,0.06l-0.119,0.061l-0.119,0.062l-0.118,0.063l-0.118,0.065l-0.117,0.065l-0.117,0.067l-0.116,0.068l-0.115,0.069l-0.115,0.07l-0.114,0.072l-0.113,0.072l-0.078,0.051l-0.077,0.051l-0.077,0.053l-0.076,0.053l-0.076,0.053l-0.075,0.055l-0.075,0.055l-0.075,0.055l-0.074,0.057l-0.074,0.057l-0.146,0.116l-0.145,0.118l-0.142,0.12l-0.141,0.122l-0.139,0.124l-0.137,0.126l-0.136,0.127l-0.133,0.129l-0.131,0.129l-0.13,0.131l-0.127,0.132l-0.126,0.133l-0.123,0.133l-0.121,0.134l-0.12,0.134l-0.117,0.134l-0.115,0.135l-0.112,0.134l-0.111,0.134l-0.108,0.134l-0.106,0.133l-0.104,0.133l-0.102,0.131l-0.099,0.131l-0.097,0.129l-0.094,0.129l-0.092,0.126l-0.09,0.126l-0.087,0.123l-0.085,0.122l-0.082,0.119l-0.079,0.118l-0.077,0.115l-0.075,0.113l-0.072,0.11l-0.136,0.212l-0.125,0.199l-0.114,0.186l-0.103,0.172l-0.092,0.156l-0.08,0.139l-0.068,0.12l-0.057,0.102l-0.076,0.14l-0.025,0.049l-5.379,11.989l-0.016,0.035l-0.017,0.033l-0.019,0.033l-0.019,0.031l-0.021,0.031l-0.021,0.03l-0.023,0.029l-0.023,0.028l-0.024,0.028l-0.026,0.026l-0.026,0.025l-0.027,0.025l-0.028,0.023l-0.029,0.023l-0.029,0.021l-0.03,0.02l-0.031,0.019l-0.031,0.019l-0.033,0.017l-0.032,0.015l-0.034,0.015l-0.034,0.014l-0.034,0.012l-0.035,0.011l-0.035,0.01l-0.036,0.008l-0.036,0.008l-0.037,0.006l-0.037,0.005l-0.037,0.003l-0.037,0.002l-0.038,0.001l-0.038,-0.001l-0.037,-0.002l-0.037,-0.003l-0.037,-0.005l-0.037,-0.006l-0.036,-0.008l-0.036,-0.008l-0.035,-0.01l-0.035,-0.011l-0.035,-0.012l-0.033,-0.014l-0.034,-0.015l-0.032,-0.015l-0.033,-0.017l-0.031,-0.019l-0.031,-0.019l-0.03,-0.02l-0.03,-0.021l-0.028,-0.023l-0.028,-0.023l-0.027,-0.025l-0.026,-0.025l-0.026,-0.026l-0.024,-0.028l-0.024,-0.028l-0.022,-0.029l-0.022,-0.03l-0.02,-0.031l-0.019,-0.032l-0.019,-0.032l-0.017,-0.033l-0.016,-0.035l-5.378,-11.989l-0.057,-0.115l-0.058,-0.115l-0.059,-0.115l-0.06,-0.114l-0.06,-0.113l-0.061,-0.113l-0.062,-0.112l-0.063,-0.111l-0.064,-0.111l-0.065,-0.11l-0.066,-0.11l-0.066,-0.109l-0.067,-0.108l-0.068,-0.108l-0.069,-0.107l-0.07,-0.107l-0.07,-0.105l-0.071,-0.106l-0.072,-0.104l-0.073,-0.104l-0.074,-0.103l-0.074,-0.103l-0.075,-0.102l-0.076,-0.101l-0.077,-0.101l-0.078,-0.1l-0.078,-0.099l-0.079,-0.099l-0.079,-0.097l-0.081,-0.098l-0.081,-0.096l-0.082,-0.096l-0.083,-0.095l-0.083,-0.095l-0.084,-0.093l-0.085,-0.093l-0.085,-0.093l-0.087,-0.091l-0.087,-0.091l-0.087,-0.09l-0.088,-0.09l-0.089,-0.088l-0.09,-0.088l-0.09,-0.088l-0.091,-0.086l-0.092,-0.086l-0.092,-0.085l-0.093,-0.084l-0.094,-0.084l-0.094,-0.083l-0.095,-0.082l-0.095,-0.081l-0.096,-0.08l-0.097,-0.08l-0.097,-0.079l-0.098,-0.078l-0.099,-0.077l-0.099,-0.077l-0.099,-0.076l-0.101,-0.075l-0.101,-0.074l-0.101,-0.073l-0.102,-0.073l-0.103,-0.072l-0.103,-0.071l-0.104,-0.07l-0.104,-0.069l-0.105,-0.069l-0.105,-0.068l-0.106,-0.067l-0.106,-0.066l-0.107,-0.065l-0.108,-0.064l-0.108,-0.064l-0.108,-0.063l-0.11,-0.061l-0.109,-0.062l-0.11,-0.06l-0.111,-0.059l-0.111,-0.058l-0.111,-0.058l-0.112,-0.057l-0.113,-0.056l-0.112,-0.054l-0.114,-0.055l-0.114,-0.053l-0.114,-0.052l-0.115,-0.051l-0.115,-0.051l-0.115,-0.05l-0.117,-0.048l-0.116,-0.048l-0.117,-0.047l-0.117,-0.046l-0.118,-0.045l-0.118,-0.044l-0.119,-0.043l-0.118,-0.043l-0.12,-0.041l-0.119,-0.041l-0.121,-0.039l-0.12,-0.039l-0.121,-0.037l-0.121,-0.037l-0.122,-0.036l-0.122,-0.034l-0.122,-0.034l-0.122,-0.033l-0.123,-0.032l-0.124,-0.031l-0.123,-0.03l-0.124,-0.029l-0.124,-0.028l-0.125,-0.027l-0.125,-0.026l-0.125,-0.025l-0.126,-0.024l-0.125,-0.023l-0.126,-0.022l-0.127,-0.021l-0.127,-0.02l-0.126,-0.019l-0.128,-0.018l-0.127,-0.017l-0.128,-0.016l-0.128,-0.015l-0.128,-0.014l-0.128,-0.013l-0.957,-0.03l-30.001,0Zm160,114.999l-30,0l-35,-69.998l15,-30.001l50,99.999Zm-110,-55.418l20,-44.581l30,0l-50,99.999l-50,-99.999l30.001,0l19.999,44.581Zm46.677,-14.58l34.25,68.498l26.646,0l-47.573,-95.145l-13.323,26.647Zm-94.25,-28.501l47.573,95.145l47.572,-95.145l-26.601,0l-19.603,43.695l-0.157,0.27l-0.21,0.232l-0.253,0.184l-0.286,0.127l-0.306,0.064l-0.313,0l-0.306,-0.064l-0.286,-0.127l-0.253,-0.184l-0.21,-0.232l-0.157,-0.27l-19.602,-43.695l-26.602,0Z"/><g id="Original-shape" serif:id="Original shape"><path d="M110.179,25.152l-20,44.581l-19.999,-44.581l-30.001,0l50,99.999l50,-99.999l-30,0Z" style="fill-rule:nonzero;"/><path d="M135.179,55.153l15,-30.001l50,99.999l-30,0l0,0.001l-35,-69.999Z"/></g></g></svg>