<?xml version="1.0" encoding="UTF-8" standalone="no"?><!DOCTYPE svg PUBLIC "-//W3C//DTD SVG 1.1//EN" "http://www.w3.org/Graphics/SVG/1.1/DTD/svg11.dtd"><svg width="100%" height="100%" viewBox="0 0 100 100" version="1.1" xmlns="http://www.w3.org/2000/svg" xmlns:xlink="http://www.w3.org/1999/xlink" xml:space="preserve" xmlns:serif="http://www.serif.com/" style="fill-rule:evenodd;clip-rule:evenodd;stroke-linejoin:round;stroke-miterlimit:1.41421;"><g><path d="M195.808,-63.751c-10.313,-34.376 -25.182,-42.37 -59.559,-32.057c-34.376,10.313 -42.37,25.182 -32.057,59.559c10.313,34.376 25.182,42.37 59.559,32.057c34.376,-10.313 42.37,-25.182 32.057,-59.559Zm-17.348,22.305l-6.475,2.159l2.238,6.715c0.88,2.718 -0.559,5.676 -3.277,6.555c-0.56,0.16 -1.2,0.32 -1.759,0.24c-2.079,-0.08 -4.077,-1.439 -4.797,-3.517l-2.238,-6.716l-13.351,4.477l2.238,6.716c0.88,2.718 -0.559,5.676 -3.277,6.555c-0.56,0.16 -1.2,0.32 -1.759,0.24c-2.079,-0.08 -4.077,-1.439 -4.797,-3.518l-2.238,-6.715l-6.476,2.158c-0.56,0.16 -1.199,0.32 -1.759,0.24c-2.078,-0.08 -4.077,-1.439 -4.796,-3.517c-0.88,-2.718 0.559,-5.676 3.277,-6.556l6.476,-2.158l-4.317,-12.871l-6.476,2.158c-0.559,0.16 -1.199,0.32 -1.758,0.24c-2.079,-0.08 -4.078,-1.439 -4.797,-3.518c-0.88,-2.718 0.559,-5.676 3.278,-6.555l6.475,-2.159l-2.238,-6.715c-0.88,-2.718 0.559,-5.676 3.277,-6.555c2.719,-0.88 5.676,0.559 6.556,3.277l2.238,6.716l13.351,-4.477l-2.238,-6.716c-0.88,-2.718 0.559,-5.676 3.277,-6.555c2.719,-0.879 5.676,0.56 6.556,3.278l2.238,6.715l6.476,-2.158c2.718,-0.88 5.676,0.559 6.555,3.277c0.88,2.718 -0.559,5.676 -3.277,6.556l-6.476,2.158l4.317,12.871l6.476,-2.158c2.718,-0.88 5.676,0.559 6.555,3.278c0.879,2.718 -0.56,5.676 -3.278,6.555Z" style="fill-rule:nonzero;"/></g><path d="M-0.003,50c0,-27.616 -22.384,-50 -50,-50c-27.616,0 -50,22.384 -50,50c0,27.616 22.384,50 50,50c27.616,0 50,-22.384 50,-50Zm-90.625,0c0,-22.438 18.187,-40.625 40.625,-40.625c22.437,0 40.625,18.187 40.625,40.625c0,22.437 -18.188,40.625 -40.625,40.625c-22.438,0 -40.625,-18.188 -40.625,-40.625Z" style="fill-rule:nonzero;"/><path d="M50,100c27.616,0 50,-22.384 50,-50c0,-27.616 -22.384,-50 -50,-50c-27.616,0 -50,22.384 -50,50c0,27.616 22.384,50 50,50Zm0,-90.625c22.438,0 40.625,18.188 40.625,40.625c0,22.438 -18.188,40.625 -40.625,40.625c-22.438,0 -40.625,-18.188 -40.625,-40.625c0,-22.438 18.188,-40.625 40.625,-40.625Z" style="fill-rule:nonzero;"/><path d="M65.356,30.981l-8.84,-8.84l-27.857,27.856l27.857,27.856l8.837,-8.837l-19.019,-19.019l19.022,-19.016Z" style="fill-rule:nonzero;"/><path d="M150.001,0c-27.614,0 -49.998,22.384 -49.998,49.999c0,27.614 22.384,49.998 49.998,49.998c27.615,0 49.999,-22.384 49.999,-49.998c0,-27.615 -22.384,-49.999 -49.999,-49.999Zm0,90.622c-22.436,0 -40.623,-18.187 -40.623,-40.623c0,-22.437 18.187,-40.624 40.623,-40.624c22.437,0 40.624,18.187 40.624,40.624c0,22.436 -18.187,40.623 -40.624,40.623Z" style="fill-rule:nonzero;"/></svg>