<?xml version="1.0" encoding="UTF-8" standalone="no"?><!DOCTYPE svg PUBLIC "-//W3C//DTD SVG 1.1//EN" "http://www.w3.org/Graphics/SVG/1.1/DTD/svg11.dtd"><svg width="100%" height="100%" viewBox="0 0 100 100" version="1.1" xmlns="http://www.w3.org/2000/svg" xmlns:xlink="http://www.w3.org/1999/xlink" xml:space="preserve" xmlns:serif="http://www.serif.com/" style="fill-rule:evenodd;clip-rule:evenodd;stroke-linejoin:round;stroke-miterlimit:1.41421;"><g><path d="M25.013,-69.943l-15.035,-30.057l-15.001,30.038l15.049,30.038l20.003,39.924l29.971,0l-34.987,-69.943Z" style="fill-rule:nonzero;"/></g><path d="M109.967,-59.944l20.198,-40.056l29.772,0l-49.97,100l-49.967,-100l29.999,0l19.968,40.056Zm0.714,0.36l-0.096,0.148l-0.127,0.124l-0.15,0.092l-0.168,0.057l-0.175,0.019l-0.176,-0.02l-0.166,-0.058l-0.15,-0.093l-0.126,-0.124l-0.096,-0.148l-19.747,-39.613l-28.21,0l48.673,97.41l48.676,-97.41l-27.985,0l-19.977,39.616Z"/><g><path d="M64.335,6c10.518,0.018 10.927,0.106 12.983,0.403c4.242,0.612 7.802,2.304 10.713,5.084c1.631,1.57 2.754,3.105 3.766,5.16c1.233,2.511 1.839,4.887 2.116,8.42c0.06,0.758 0.087,12.821 0.087,24.892c0,12.07 -0.025,24.155 -0.085,24.913c-0.274,3.477 -0.879,5.873 -2.074,8.336c-2.376,4.9 -6.741,8.474 -12.013,9.834c-1.912,0.494 -3.641,0.726 -6.619,0.866c-1.063,0.054 -12.176,0.068 -23.289,0.068c-11.113,0 -22.219,-0.034 -23.309,-0.081c-2.571,-0.122 -4.575,-0.379 -6.389,-0.846c-5.238,-1.354 -9.684,-4.981 -12.013,-9.814c-1.218,-2.524 -1.793,-4.832 -2.098,-8.5c-0.088,-1.043 -0.108,-6.41 -0.108,-24.764c0,-6.184 -0.007,-10.794 0,-14.298c0.018,-10.509 0.104,-10.928 0.402,-12.986c0.613,-4.238 2.305,-7.803 5.096,-10.701c1.533,-1.59 3.086,-2.723 5.056,-3.701c2.556,-1.273 4.901,-1.866 8.671,-2.179c1.044,-0.087 6.417,-0.106 24.786,-0.106l14.321,0Zm-14.346,11.506l0.005,0l-0.01,0l0.005,0c-8.818,0 -9.926,0.038 -13.39,0.196c-3.459,0.158 -5.819,0.706 -7.885,1.509c-2.136,0.83 -3.949,1.94 -5.755,3.746c-1.807,1.806 -2.917,3.618 -3.749,5.754c-0.805,2.066 -1.354,4.428 -1.509,7.885c-0.155,3.465 -0.196,4.573 -0.196,13.396c0,8.822 0.039,9.926 0.196,13.391c0.159,3.459 0.707,5.82 1.51,7.885c0.83,2.137 1.94,3.949 3.746,5.755c1.805,1.807 3.618,2.92 5.753,3.749c2.067,0.804 4.428,1.351 7.886,1.51c3.465,0.157 4.572,0.196 13.394,0.196c8.823,0 9.927,-0.039 13.392,-0.196c3.459,-0.159 5.822,-0.706 7.889,-1.51c2.136,-0.829 3.946,-1.942 5.751,-3.749c1.807,-1.806 2.917,-3.618 3.749,-5.754c0.799,-2.066 1.347,-4.428 1.51,-7.885c0.155,-3.465 0.196,-4.57 0.196,-13.392c0,-8.823 -0.041,-9.93 -0.196,-13.395c-0.163,-3.459 -0.711,-5.82 -1.51,-7.885c-0.832,-2.137 -1.942,-3.949 -3.749,-5.755c-1.807,-1.807 -3.614,-2.917 -5.753,-3.746c-2.071,-0.803 -4.433,-1.351 -7.891,-1.509c-3.465,-0.158 -4.568,-0.196 -13.389,-0.196Zm-2.909,5.854c0.865,-0.002 1.83,0 2.914,0c8.674,0 9.702,0.031 13.127,0.187c3.168,0.144 4.887,0.674 6.032,1.118c1.516,0.589 2.597,1.293 3.733,2.43c1.137,1.137 1.841,2.22 2.431,3.736c0.445,1.144 0.975,2.863 1.119,6.03c0.155,3.425 0.189,4.454 0.189,13.123c0,8.67 -0.034,9.699 -0.189,13.123c-0.145,3.168 -0.674,4.887 -1.119,6.031c-0.589,1.516 -1.294,2.595 -2.431,3.731c-1.137,1.137 -2.217,1.841 -3.733,2.43c-1.144,0.447 -2.864,0.975 -6.032,1.12c-3.424,0.155 -4.453,0.189 -13.127,0.189c-8.674,0 -9.702,-0.034 -13.127,-0.189c-3.167,-0.147 -4.887,-0.676 -6.032,-1.121c-1.516,-0.588 -2.599,-1.292 -3.736,-2.429c-1.137,-1.137 -1.841,-2.217 -2.431,-3.734c-0.445,-1.144 -0.975,-2.863 -1.119,-6.03c-0.156,-3.425 -0.187,-4.454 -0.187,-13.129c0,-8.675 0.031,-9.698 0.187,-13.123c0.145,-3.167 0.674,-4.886 1.119,-6.032c0.588,-1.516 1.294,-2.598 2.431,-3.735c1.137,-1.137 2.22,-1.841 3.736,-2.431c1.145,-0.447 2.865,-0.975 6.032,-1.121c2.997,-0.135 4.158,-0.176 10.213,-0.182l0,0.008Zm2.914,9.949l0,0l-0.001,0l0.001,0c-9.213,0 -16.683,7.47 -16.683,16.683c0,9.213 7.47,16.679 16.683,16.679c9.213,0 16.68,-7.466 16.68,-16.679c0,-9.213 -7.467,-16.683 -16.68,-16.683Zm0,5.854c5.98,0 10.829,4.848 10.829,10.829c0,5.98 -4.849,10.828 -10.829,10.828c-5.981,0 -10.829,-4.848 -10.829,-10.828c0,-5.981 4.848,-10.829 10.829,-10.829Zm17.341,-10.409c-2.152,0 -3.898,1.744 -3.898,3.897c0,2.152 1.746,3.898 3.898,3.898c2.152,0 3.898,-1.746 3.898,-3.898c0,-2.152 -1.746,-3.898 -3.898,-3.898l0,0.001Z" style="fill-rule:nonzero;"/></g></svg>