<?xml version="1.0" encoding="UTF-8" standalone="no"?><!DOCTYPE svg PUBLIC "-//W3C//DTD SVG 1.1//EN" "http://www.w3.org/Graphics/SVG/1.1/DTD/svg11.dtd"><svg width="100%" height="100%" viewBox="0 0 100 100" version="1.1" xmlns="http://www.w3.org/2000/svg" xmlns:xlink="http://www.w3.org/1999/xlink" xml:space="preserve" xmlns:serif="http://www.serif.com/" style="fill-rule:evenodd;clip-rule:evenodd;stroke-linejoin:round;stroke-miterlimit:1.41421;"><path d="M-50,0c-27.625,0 -50,22.375 -50,50c0,22.125 14.313,40.813 34.188,47.438c2.499,0.437 3.437,-1.063 3.437,-2.376c0,-1.187 -0.063,-5.124 -0.063,-9.312c-12.562,2.313 -15.812,-3.063 -16.812,-5.875c-0.563,-1.438 -3,-5.875 -5.125,-7.063c-1.75,-0.937 -4.25,-3.249 -0.063,-3.312c3.938,-0.063 6.751,3.625 7.688,5.125c4.5,7.563 11.688,5.438 14.563,4.125c0.437,-3.25 1.749,-5.438 3.187,-6.688c-11.125,-1.249 -22.75,-5.562 -22.75,-24.687c0,-5.438 1.938,-9.938 5.125,-13.438c-0.5,-1.249 -2.25,-6.374 0.5,-13.249c0,0 4.188,-1.313 13.75,5.125c4,-1.125 8.25,-1.688 12.5,-1.688c4.25,0 8.5,0.563 12.5,1.688c9.563,-6.5 13.75,-5.125 13.75,-5.125c2.75,6.875 1,12 0.5,13.25c3.188,3.5 5.125,7.937 5.125,13.437c0,19.188 -11.688,23.438 -22.812,24.688c1.812,1.562 3.374,4.562 3.374,9.249c0,6.688 -0.062,12.063 -0.062,13.751c0,1.312 0.937,2.874 3.437,2.374c19.75,-6.624 34.063,-25.374 34.063,-47.437c0,-27.625 -22.375,-50 -50,-50Z"/><path id="path4156" d="M49.969,15c0,0 -31.254,0 -39.098,2.038c-4.201,1.174 -7.659,4.632 -8.833,8.894c-2.038,7.845 -2.038,24.09 -2.038,24.09c0,0 0,16.306 2.038,24.027c1.174,4.262 4.571,7.659 8.833,8.833c7.906,2.1 39.098,2.1 39.098,2.1c0,0 31.316,0 39.16,-2.039c4.262,-1.173 7.659,-4.508 8.771,-8.832c2.1,-7.783 2.1,-24.027 2.1,-24.027c0,0 0.062,-16.307 -2.1,-24.152c-1.112,-4.262 -4.509,-7.658 -8.771,-8.77c-7.844,-2.162 -39.16,-2.162 -39.16,-2.162Zm-9.945,20.013l26.005,15.009l-26.005,14.947l0,-29.956Z" style="fill-rule:nonzero;"/></svg>