<?xml version="1.0" encoding="UTF-8" standalone="no"?><!DOCTYPE svg PUBLIC "-//W3C//DTD SVG 1.1//EN" "http://www.w3.org/Graphics/SVG/1.1/DTD/svg11.dtd"><svg width="100%" height="100%" viewBox="0 0 100 100" version="1.1" xmlns="http://www.w3.org/2000/svg" xmlns:xlink="http://www.w3.org/1999/xlink" xml:space="preserve" xmlns:serif="http://www.serif.com/" style="fill-rule:evenodd;clip-rule:evenodd;stroke-linejoin:round;stroke-miterlimit:1.41421;"><path id="Blue_1_" d="M89.143,6c2.682,0 4.856,2.174 4.856,4.857l0,78.286c0,2.682 -2.174,4.857 -4.856,4.857l-22.425,0l0,-34.078l11.439,0l1.712,-13.281l-13.151,0l0,-8.479c0,-3.846 1.068,-6.466 6.582,-6.466l7.032,-0.003l0,-11.879c-1.216,-0.162 -5.39,-0.523 -10.247,-0.523c-10.14,0 -17.082,6.189 -17.082,17.555l0,9.795l-11.468,0l0,13.281l11.468,0l0,34.078l-42.146,0c-2.683,0 -4.857,-2.175 -4.857,-4.857l0,-78.286c0,-2.683 2.174,-4.857 4.857,-4.857l78.286,0Z" style="fill-rule:nonzero;"/><path d="M69.999,-100.001l-20,44.581l-19.999,-44.581l-30.001,0l50,99.999l50,-99.999l-30,0Z" style="fill-rule:nonzero;"/><path d="M94.999,-70l15,-30.001l50,99.999l-30,0l0,0.001l-35,-69.999Z"/></svg>