<?xml version="1.0" encoding="UTF-8" standalone="no"?><!DOCTYPE svg PUBLIC "-//W3C//DTD SVG 1.1//EN" "http://www.w3.org/Graphics/SVG/1.1/DTD/svg11.dtd"><svg width="100%" height="100%" viewBox="0 0 100 100" version="1.1" xmlns="http://www.w3.org/2000/svg" xmlns:xlink="http://www.w3.org/1999/xlink" xml:space="preserve" xmlns:serif="http://www.serif.com/" style="fill-rule:evenodd;clip-rule:evenodd;stroke-linejoin:round;stroke-miterlimit:1.41421;"><g><path d="M25.013,-69.943l-15.035,-30.057l-15.001,30.038l15.049,30.038l20.003,39.924l29.971,0l-34.987,-69.943Z" style="fill-rule:nonzero;"/></g><path d="M109.967,-59.944l20.198,-40.056l29.772,0l-49.97,100l-49.967,-100l29.999,0l19.968,40.056Zm0.714,0.36l-0.096,0.148l-0.127,0.124l-0.15,0.092l-0.168,0.057l-0.175,0.019l-0.176,-0.02l-0.166,-0.058l-0.15,-0.093l-0.126,-0.124l-0.096,-0.148l-19.747,-39.613l-28.21,0l48.673,97.41l48.676,-97.41l-27.985,0l-19.977,39.616Z"/><g><path d="M74.854,93.818l-49.708,0c-10.574,0 -19.146,-8.613 -19.146,-19.238l0,-49.342c0,-10.625 8.572,-19.238 19.146,-19.238l49.708,0c10.574,0 19.146,8.613 19.146,19.238l0,49.342c0,10.624 -8.571,19.237 -19.146,19.238Zm-11.609,-76.567l-26.752,0c-10.237,0.001 -18.612,8.376 -18.612,18.612l0,28.506c0,10.237 8.375,18.612 18.612,18.612l26.752,0c10.236,0 18.611,-8.376 18.611,-18.612l0,-28.506c0,-10.236 -8.375,-18.611 -18.611,-18.612Z" style="fill:#030404;"/><path d="M49.883,38.341c-6.371,0 -11.536,5.164 -11.536,11.535c0,6.371 5.165,11.536 11.536,11.536c6.371,0 11.536,-5.165 11.536,-11.536c0,-6.371 -5.165,-11.535 -11.536,-11.535Z" style="fill:#030404;"/><path d="M63.245,78.063l-26.752,0c-3.637,0 -7.071,-1.43 -9.667,-4.027c-2.597,-2.596 -4.027,-6.029 -4.027,-9.667l0,-28.506c0,-3.637 1.43,-7.07 4.027,-9.667c2.596,-2.596 6.029,-4.026 9.667,-4.027l26.752,0c3.637,0.001 7.07,1.431 9.667,4.027c2.596,2.597 4.026,6.03 4.026,9.667l0,28.506c0,3.638 -1.43,7.071 -4.026,9.667c-2.597,2.597 -6.03,4.027 -9.667,4.027Zm4.339,-28.201c0,9.73 -7.887,17.617 -17.616,17.617c-9.73,0 -17.617,-7.887 -17.617,-17.617c0,-9.729 7.887,-17.616 17.617,-17.616c9.729,0 17.616,7.887 17.616,17.616Zm4.455,-17.89c0,2.303 -1.868,4.171 -4.172,4.171c-2.304,0 -4.171,-1.868 -4.171,-4.171c0,-2.304 1.867,-4.172 4.171,-4.172c2.304,0 4.172,1.868 4.172,4.172Z" style="fill:#030404;"/></g></svg>