<?xml version="1.0" encoding="UTF-8" standalone="no"?><!DOCTYPE svg PUBLIC "-//W3C//DTD SVG 1.1//EN" "http://www.w3.org/Graphics/SVG/1.1/DTD/svg11.dtd"><svg width="100%" height="100%" viewBox="0 0 100 100" version="1.1" xmlns="http://www.w3.org/2000/svg" xmlns:xlink="http://www.w3.org/1999/xlink" xml:space="preserve" xmlns:serif="http://www.serif.com/" style="fill-rule:evenodd;clip-rule:evenodd;stroke-linejoin:round;stroke-miterlimit:1.41421;"><path id="path14" d="M34.801,93.849l19.72,0l0,-33.135c0,-1.773 0.129,-3.545 0.649,-4.812c1.426,-3.543 4.671,-7.213 10.119,-7.213c7.136,0 9.991,5.441 9.991,13.418l0,31.742l19.72,0l0,-34.021c0,-18.225 -9.73,-26.706 -22.705,-26.706c-10.462,0 -15.152,5.75 -17.773,9.794l0,0.204l-0.132,0c0.044,-0.068 0.087,-0.136 0.132,-0.204l0,-8.401l-19.721,0c0.258,5.566 0,59.213 0,59.334l-0.001,0l0.001,0Zm-10.914,-59.334l-19.721,0l0,59.334l19.721,0l0,-59.334Zm-9.86,-8.101c6.877,0 11.157,-4.556 11.157,-10.25c-0.128,-5.823 -4.28,-10.252 -11.027,-10.252c-6.746,0 -11.157,4.429 -11.157,10.252c0,5.694 4.28,10.25 10.898,10.25l0.129,0Z" style="fill-rule:nonzero;"/><path d="M200,50c0,-27.616 -22.384,-50 -50,-50c-27.616,0 -50,22.384 -50,50c0,27.616 22.384,50 50,50c27.616,0 50,-22.384 50,-50Zm-90.625,0c0,-22.438 18.187,-40.625 40.625,-40.625c22.437,0 40.625,18.187 40.625,40.625c0,22.437 -18.188,40.625 -40.625,40.625c-22.438,0 -40.625,-18.188 -40.625,-40.625Z" style="fill-rule:nonzero;"/></svg>