<?xml version="1.0" encoding="UTF-8" standalone="no"?><!DOCTYPE svg PUBLIC "-//W3C//DTD SVG 1.1//EN" "http://www.w3.org/Graphics/SVG/1.1/DTD/svg11.dtd"><svg width="100%" height="100%" viewBox="0 0 160 100" version="1.1" xmlns="http://www.w3.org/2000/svg" xmlns:xlink="http://www.w3.org/1999/xlink" xml:space="preserve" xmlns:serif="http://www.serif.com/" style="fill-rule:evenodd;clip-rule:evenodd;stroke-linejoin:round;stroke-miterlimit:2;"><g><path d="M70.15,0l29.772,0l-49.97,100l-49.967,-100l29.999,0l19.968,40.056l20.198,-40.056Z" style="fill-rule:nonzero;"/><path d="M125.013,30.057l-15.035,-30.057l-15.001,30.038l15.049,30.038l20.003,39.924l29.971,0l-34.987,-69.943Z" style="fill-rule:nonzero;"/></g><path d="M209.967,40.056l20.198,-40.056l29.772,0l-49.97,100l-49.967,-100l29.999,0l19.968,40.056Zm0.714,0.36l-0.096,0.148l-0.127,0.124l-0.15,0.092l-0.168,0.057l-0.175,0.019l-0.176,-0.02l-0.166,-0.058l-0.15,-0.093l-0.126,-0.124l-0.096,-0.148l-19.747,-39.613l-28.21,0l48.673,97.41l48.676,-97.41l-27.985,0l-19.977,39.616Z"/></svg>