<?xml version="1.0" encoding="UTF-8" standalone="no"?><!DOCTYPE svg PUBLIC "-//W3C//DTD SVG 1.1//EN" "http://www.w3.org/Graphics/SVG/1.1/DTD/svg11.dtd"><svg width="100%" height="100%" viewBox="0 0 241 181" version="1.1" xmlns="http://www.w3.org/2000/svg" xmlns:xlink="http://www.w3.org/1999/xlink" xml:space="preserve" xmlns:serif="http://www.serif.com/" style="fill-rule:evenodd;clip-rule:evenodd;stroke-linecap:round;stroke-linejoin:round;stroke-miterlimit:1.5;"><rect id="_3D-shadow" serif:id="3D shadow" x="0.392" y="0.469" width="240" height="180" style="fill:none;"/><g id="Art-logo" serif:id="Art logo"><g id="Shadow"><path d="M150.392,40.469l50,100l20,0l-50,-100l-20,0Z" style="stroke:#000;stroke-width:2px;"/><path d="M90.392,84.969l-20,-44.5l20,0l10,22.258l-10,22.242Z" style="stroke:#000;stroke-width:2px;"/><path d="M90.392,140.469l20,0l30,-60l-5,-10l15,-30l-10,0" style="stroke:#000;stroke-width:2px;"/></g><g id="Original-shape" serif:id="Original shape"><path d="M110.392,40.469l-20,44.581l-19.999,-44.581l-30.001,0l50,99.999l50,-99.999l-30,0Z" style="fill:none;fill-rule:nonzero;stroke:#000;stroke-width:2px;stroke-linecap:butt;stroke-miterlimit:2;"/><path d="M135.392,70.47l15,-30.001l50,99.999l-30,0l0,0.001l-35,-69.999Z" style="fill:none;stroke:#000;stroke-width:2px;stroke-linecap:butt;stroke-miterlimit:2;"/></g></g></svg>