<?xml version="1.0" encoding="UTF-8" standalone="no"?><!DOCTYPE svg PUBLIC "-//W3C//DTD SVG 1.1//EN" "http://www.w3.org/Graphics/SVG/1.1/DTD/svg11.dtd"><svg width="100%" height="100%" viewBox="0 0 241 180" version="1.1" xmlns="http://www.w3.org/2000/svg" xmlns:xlink="http://www.w3.org/1999/xlink" xml:space="preserve" xmlns:serif="http://www.serif.com/" style="fill-rule:evenodd;clip-rule:evenodd;stroke-linejoin:round;stroke-miterlimit:2;"><rect id="_3D-stripes-COLOR" serif:id="3D stripes COLOR" x="0.617" y="0" width="240" height="180" style="fill:none;"/><g id="Original-shape" serif:id="Original shape"><path d="M110.617,40l-20,44.581l-19.999,-44.581l-30.001,0l50,99.999l50,-99.999l-30,0Z" style="fill:none;fill-rule:nonzero;stroke:#ff0052;stroke-width:1.1px;"/><path d="M135.617,70.001l15,-30.001l50,99.999l-30,0l0,0.001l-35,-69.999Z" style="fill:none;stroke:#ff0052;stroke-width:1.1px;"/></g><g id="Original-shape1" serif:id="Original shape"><path d="M111.555,44.688l-18.125,40.401l-18.124,-40.401l-27.189,0l45.313,90.624l45.312,-90.624l-27.187,0Z" style="fill:none;fill-rule:nonzero;stroke:#ff0052;stroke-width:1.1px;"/><path d="M134.211,71.876l13.594,-27.188l45.312,90.624l-27.187,0l0,0.001l-31.719,-63.437Z" style="fill:none;stroke:#ff0052;stroke-width:1.1px;"/></g><g id="Original-shape2" serif:id="Original shape"><path d="M112.305,48.438l-16.625,37.057l-16.625,-37.057l-24.938,0l41.563,83.124l41.562,-83.124l-24.937,0Z" style="fill:none;fill-rule:nonzero;stroke:#ff0052;stroke-width:1.1px;"/><path d="M133.086,73.376l12.469,-24.938l41.562,83.124l-24.937,0l0,0.001l-29.094,-58.187Z" style="fill:none;stroke:#ff0052;stroke-width:1.1px;"/></g><g id="Original-shape3" serif:id="Original shape"><path d="M112.905,51.438l-15.425,34.383l-15.425,-34.383l-23.138,0l38.563,77.124l38.562,-77.124l-23.137,0Z" style="fill:none;fill-rule:nonzero;stroke:#ff0052;stroke-width:1.1px;"/><path d="M132.186,74.576l11.569,-23.138l38.562,77.124l-23.137,0l0,0.001l-26.994,-53.987Z" style="fill:none;stroke:#ff0052;stroke-width:1.1px;"/></g><g id="Original-shape4" serif:id="Original shape"><path d="M113.385,53.838l-14.465,32.243l-14.465,-32.243l-21.698,0l36.163,72.324l36.162,-72.324l-21.697,0Z" style="fill:none;fill-rule:nonzero;stroke:#ff0052;stroke-width:1.1px;"/><path d="M131.466,75.536l10.849,-21.698l36.162,72.324l-21.697,0l0,0.001l-25.314,-50.627Z" style="fill:none;stroke:#ff0052;stroke-width:1.1px;"/></g><g id="Original-shape5" serif:id="Original shape"><path d="M113.769,55.758l-13.697,30.531l-13.697,-30.531l-20.546,0l34.243,68.484l34.242,-68.484l-20.545,0Z" style="fill:none;fill-rule:nonzero;stroke:#ff0052;stroke-width:1.1px;"/><path d="M130.89,76.304l10.273,-20.546l34.242,68.484l-20.545,0l0,0.001l-23.97,-47.939Z" style="fill:none;stroke:#ff0052;stroke-width:1.1px;"/></g><g id="Original-shape6" serif:id="Original shape"><path d="M114.076,57.294l-13.083,29.161l-13.081,-29.161l-19.625,0l32.706,65.412l32.707,-65.412l-19.624,0Z" style="fill:none;fill-rule:nonzero;stroke:#ff0052;stroke-width:1.1px;"/><path d="M130.429,76.918l9.812,-19.624l32.706,65.412l-19.624,0l0,0l-22.894,-45.788Z" style="fill:none;stroke:#ff0052;stroke-width:1.1px;"/></g><path d="M40.617,40l27.67,17.294" style="fill:none;stroke:#ff0052;stroke-width:1.1px;stroke-linecap:round;stroke-linejoin:miter;stroke-miterlimit:1.5;"/><path d="M90.617,84.581l10.376,1.874" style="fill:none;stroke:#ff0052;stroke-width:1.1px;stroke-linecap:round;stroke-linejoin:miter;stroke-miterlimit:1.5;"/><path d="M110.617,40l3.459,17.294" style="fill:none;stroke:#ff0052;stroke-width:1.1px;stroke-linecap:round;stroke-linejoin:miter;stroke-miterlimit:1.5;"/><path d="M70.617,40l17.295,17.294" style="fill:none;stroke:#ff0052;stroke-width:1.1px;stroke-linecap:round;stroke-linejoin:miter;stroke-miterlimit:1.5;"/><path d="M135.617,70l-5.188,6.918" style="fill:none;stroke:#ff0052;stroke-width:1.1px;stroke-linecap:round;stroke-linejoin:miter;stroke-miterlimit:1.5;"/><path d="M150.617,40l-10.376,17.294" style="fill:none;stroke:#ff0052;stroke-width:1.1px;stroke-linecap:round;stroke-linejoin:miter;stroke-miterlimit:1.5;"/><path d="M140.617,40l-6.917,17.294" style="fill:none;stroke:#ff0052;stroke-width:1.1px;stroke-linecap:round;stroke-linejoin:miter;stroke-miterlimit:1.5;"/><path d="M90.617,140l10.376,-17.294" style="fill:none;stroke:#ff0052;stroke-width:1.1px;stroke-linecap:round;stroke-linejoin:miter;stroke-miterlimit:1.5;"/><path d="M153.323,122.706l17.294,17.294" style="fill:none;stroke:#ff0052;stroke-width:1.1px;stroke-linecap:round;stroke-linejoin:miter;stroke-miterlimit:1.5;"/><path d="M172.947,122.706l27.67,17.294" style="fill:none;stroke:#ff0052;stroke-width:1.1px;stroke-linecap:round;stroke-linejoin:miter;stroke-miterlimit:1.5;"/></svg>