<?xml version="1.0" encoding="UTF-8" standalone="no"?><!DOCTYPE svg PUBLIC "-//W3C//DTD SVG 1.1//EN" "http://www.w3.org/Graphics/SVG/1.1/DTD/svg11.dtd"><svg width="100%" height="100%" viewBox="0 0 241 151" version="1.1" xmlns="http://www.w3.org/2000/svg" xmlns:xlink="http://www.w3.org/1999/xlink" xml:space="preserve" xmlns:serif="http://www.serif.com/" style="fill-rule:evenodd;clip-rule:evenodd;stroke-linejoin:round;stroke-miterlimit:2;"><rect id="hippie" x="0.505" y="0.018" width="240" height="150" style="fill:none;"/><path d="M91.148,34.615c19.043,-0.258 23.96,-12.99 37.347,-13.082c9.38,-0.064 8.534,5.92 8.463,9.943c-0.272,15.273 -16.764,48.644 -21.071,60.091c-7.638,20.3 -10.271,36.031 -23.639,36.068c-18.555,0.052 -20.542,-16.992 -27.084,-33.194c-4.826,-11.954 -18.02,-41.726 -18.336,-59.016c-0.097,-5.285 -0.734,-13.931 6.594,-14.113c10.341,-0.256 27.14,13.447 37.726,13.303Z"/><path d="M148.11,23.634c5.1,-3.327 10.625,-0.97 16.734,6.063c5.423,6.244 9.933,23.938 14.784,35.683c7.112,17.221 13.8,37.888 14.368,52.288c0.258,6.533 -1.892,11.058 -5.99,11.06c-7.092,0.004 -14.158,-3.092 -20.073,-7.064c-4.83,-3.243 -6.618,-11.559 -6.67,-16.475c-0.053,-4.916 4.017,-16.997 -0.249,-28.043c-4.265,-11.045 -16.83,-18.85 -17.522,-34.422c-0.452,-10.173 1.777,-17.236 4.618,-19.09Z"/></svg>