<?xml version="1.0" encoding="UTF-8" standalone="no"?><!DOCTYPE svg PUBLIC "-//W3C//DTD SVG 1.1//EN" "http://www.w3.org/Graphics/SVG/1.1/DTD/svg11.dtd"><svg width="100%" height="100%" viewBox="0 0 240 150" version="1.1" xmlns="http://www.w3.org/2000/svg" xmlns:xlink="http://www.w3.org/1999/xlink" xml:space="preserve" xmlns:serif="http://www.serif.com/" style="fill-rule:evenodd;clip-rule:evenodd;stroke-linejoin:round;stroke-miterlimit:2;"><rect id="Pixelated" x="0.179" y="0" width="240" height="150" style="fill:none;"/><g><g id="Alt-V" serif:id="Alt V"><rect x="85.179" y="95.001" width="10" height="10"/><rect x="85.179" y="85.001" width="10" height="10"/><rect x="75.179" y="85.001" width="10" height="10"/><rect x="95.179" y="85.001" width="10" height="10"/><rect x="95.179" y="75.001" width="10" height="10"/><rect x="85.179" y="75.001" width="10" height="10"/><rect x="75.179" y="75.001" width="10" height="10"/><rect x="75.179" y="65.001" width="10" height="10"/><rect x="65.179" y="65" width="10" height="10"/><rect x="65.179" y="55.001" width="10" height="10"/><rect x="55.179" y="55.001" width="10" height="10"/><rect x="45.179" y="35.001" width="10" height="10"/><rect x="75.179" y="55" width="10" height="10"/><rect x="65.179" y="45.001" width="10" height="10"/><rect x="55.179" y="45.001" width="10" height="10"/><rect x="55.179" y="35.001" width="10" height="10"/><rect x="65.179" y="35.001" width="10" height="10"/><rect x="55.179" y="25.001" width="10" height="10"/><rect x="45.179" y="25.001" width="10" height="10"/><rect x="95.179" y="65.001" width="10" height="10"/><rect x="85.179" y="65.001" width="10" height="10"/><rect x="75.179" y="46.001" width="10" height="10"/><rect x="65.179" y="25.001" width="10" height="10"/><rect x="95.179" y="45.001" width="10" height="10"/><rect x="105.179" y="25.001" width="10" height="10"/><rect x="105.179" y="65" width="10" height="10"/><rect x="105.179" y="55.001" width="10" height="10"/><rect x="95.179" y="55" width="10" height="10"/><rect x="115.179" y="55.001" width="10" height="10"/><rect x="125.179" y="35.001" width="10" height="10"/><rect x="105.179" y="45.001" width="10" height="10"/><rect x="115.179" y="45" width="10" height="10"/><rect x="115.179" y="35" width="10" height="10"/><rect x="105.179" y="35.001" width="10" height="10"/><rect x="115.179" y="25.001" width="10" height="10"/><rect x="125.179" y="24.999" width="10" height="10"/><rect x="85.179" y="105.001" width="10" height="10"/><rect x="85.179" y="115.001" width="10" height="10"/><rect x="95.179" y="95.001" width="10" height="10"/><rect x="75.179" y="95.001" width="10" height="10"/><rect x="65.179" y="75.001" width="10" height="10"/><rect x="105.179" y="75.001" width="10" height="10"/></g><g id="Alt-A" serif:id="Alt A"><rect x="165.179" y="95.001" width="10" height="10"/><rect x="175.179" y="95.001" width="10" height="10"/><rect x="165.179" y="105.001" width="10" height="10"/><rect x="175.179" y="105.001" width="10" height="10"/><rect x="175.179" y="115.001" width="10" height="10"/><rect x="185.179" y="115.001" width="10" height="10"/><rect x="165.179" y="85.001" width="10" height="10"/><rect x="155.179" y="85.001" width="10" height="10"/><rect x="155.179" y="75.001" width="10" height="10"/><rect x="165.179" y="75.001" width="10" height="10"/><rect x="155.179" y="65.001" width="10" height="10"/><rect x="145.179" y="65.001" width="10" height="10"/><rect x="145.179" y="55.001" width="10" height="10"/><rect x="155.179" y="55.001" width="10" height="10"/><rect x="145.179" y="45.001" width="10" height="10"/><rect x="145.179" y="35.001" width="10" height="10"/><rect x="165.179" y="115.001" width="10" height="10"/><rect x="155.179" y="95.001" width="10" height="10"/><rect x="145.179" y="75.001" width="10" height="10"/><rect x="135.179" y="55.001" width="10" height="10"/><rect x="135.179" y="45.001" width="10" height="10"/><rect x="155.179" y="45.001" width="10" height="10"/><rect x="165.179" y="65.001" width="10" height="10"/><rect x="175.179" y="85.001" width="10" height="10"/><rect x="185.179" y="105.001" width="10" height="10"/><rect x="145.179" y="25.001" width="10" height="10"/></g></g></svg>