<?xml version="1.0" encoding="UTF-8" standalone="no"?><!DOCTYPE svg PUBLIC "-//W3C//DTD SVG 1.1//EN" "http://www.w3.org/Graphics/SVG/1.1/DTD/svg11.dtd"><svg width="100%" height="100%" viewBox="0 0 240 150" version="1.1" xmlns="http://www.w3.org/2000/svg" xmlns:xlink="http://www.w3.org/1999/xlink" xml:space="preserve" xmlns:serif="http://www.serif.com/" style="fill-rule:evenodd;clip-rule:evenodd;stroke-linecap:round;stroke-linejoin:round;stroke-miterlimit:1.5;"><rect id="Stripes" x="0.444" y="0.117" width="240" height="150" style="fill:none;"/><g id="Art-logo" serif:id="Art logo"><path d="M44.194,30.117l27.5,0" style="fill:none;stroke:#000;stroke-width:6px;"/><path d="M109.194,30.117l27.5,0" style="fill:none;stroke:#000;stroke-width:6px;"/><path d="M101.694,45.117l27.5,0" style="fill:none;stroke:#000;stroke-width:6px;"/><path d="M94.194,60.117l27.5,0" style="fill:none;stroke:#000;stroke-width:6px;"/><path d="M51.694,45.117l27.5,0" style="fill:none;stroke:#000;stroke-width:6px;"/><path d="M59.194,60.117l27.5,0" style="fill:none;stroke:#000;stroke-width:6px;"/><path d="M66.694,75.117l47.5,0" style="fill:none;stroke:#000;stroke-width:6px;"/><path d="M74.194,90.117l32.5,0" style="fill:none;stroke:#000;stroke-width:6px;"/><path d="M81.694,105.117l17.5,0" style="fill:none;stroke:#000;stroke-width:6px;"/><path d="M169.194,120.117l27.5,0" style="fill:none;stroke:#000;stroke-width:6px;"/><path d="M161.694,105.117l27.5,0" style="fill:none;stroke:#000;stroke-width:6px;"/><path d="M154.194,90.117l27.5,0" style="fill:none;stroke:#000;stroke-width:6px;"/><path d="M146.694,75.117l27.5,0" style="fill:none;stroke:#000;stroke-width:6px;"/><path d="M139.194,60.117l27.5,0" style="fill:none;stroke:#000;stroke-width:6px;"/><path d="M141.694,45.117l17.5,0" style="fill:none;stroke:#000;stroke-width:6px;"/><path d="M149.194,30.117l2.5,0" style="fill:none;stroke:#000;stroke-width:6px;"/><path d="M89.194,120.117l2.5,0" style="fill:none;stroke:#000;stroke-width:6px;"/></g></svg>