<?xml version="1.0" encoding="UTF-8" standalone="no"?><!DOCTYPE svg PUBLIC "-//W3C//DTD SVG 1.1//EN" "http://www.w3.org/Graphics/SVG/1.1/DTD/svg11.dtd"><svg width="100%" height="100%" viewBox="0 0 800 600" version="1.1" xmlns="http://www.w3.org/2000/svg" xmlns:xlink="http://www.w3.org/1999/xlink" xml:space="preserve" xmlns:serif="http://www.serif.com/" style="fill-rule:evenodd;clip-rule:evenodd;stroke-linejoin:round;stroke-miterlimit:1.41421;"><path d="M350,100c-27.625,0 -50,22.375 -50,50c0,22.125 14.313,40.813 34.188,47.438c2.5,0.437 3.437,-1.063 3.437,-2.375c0,-1.188 -0.063,-5.125 -0.063,-9.313c-12.562,2.313 -15.812,-3.063 -16.812,-5.875c-0.563,-1.438 -3,-5.875 -5.125,-7.063c-1.75,-0.937 -4.25,-3.25 -0.063,-3.312c3.938,-0.063 6.75,3.625 7.688,5.125c4.5,7.563 11.688,5.438 14.563,4.125c0.437,-3.25 1.75,-5.438 3.187,-6.688c-11.125,-1.25 -22.75,-5.562 -22.75,-24.687c0,-5.438 1.938,-9.938 5.125,-13.438c-0.5,-1.25 -2.25,-6.375 0.5,-13.25c0,0 4.188,-1.312 13.75,5.125c4,-1.125 8.25,-1.687 12.5,-1.687c4.25,0 8.5,0.562 12.5,1.687c9.563,-6.5 13.75,-5.125 13.75,-5.125c2.75,6.875 1,12 0.5,13.25c3.188,3.5 5.125,7.938 5.125,13.438c0,19.188 -11.688,23.438 -22.813,24.688c1.813,1.562 3.375,4.562 3.375,9.25c0,6.687 -0.062,12.062 -0.062,13.75c0,1.312 0.938,2.875 3.438,2.375c19.75,-6.625 34.062,-25.375 34.062,-47.438c0,-27.625 -22.375,-50 -50,-50Z"/><path id="surface1" d="M277.5,106l-55,0c-9.109,0 -16.5,7.391 -16.5,16.5l0,55c0,9.109 7.391,16.5 16.5,16.5l55,0c9.109,0 16.5,-7.391 16.5,-16.5l0,-55c0,-9.109 -7.391,-16.5 -16.5,-16.5Zm-44.291,74.7l-13.671,0l-0.079,-40.933l13.671,0l0.079,40.933Zm-7.179,-46.288l-0.079,0c-4.469,0 -7.351,-3.08 -7.351,-6.914c0,-3.927 2.975,-6.902 7.523,-6.902c4.548,0 7.337,2.975 7.43,6.902c0,3.834 -2.896,6.914 -7.523,6.914Zm54.577,46.288l-13.79,0l0,-22.238c0,-5.381 -1.428,-9.044 -6.24,-9.044c-3.676,0 -5.659,2.473 -6.611,4.866c-0.357,0.859 -0.449,2.036 -0.449,3.239l0,23.177l-13.856,0l-0.079,-40.933l13.856,0l0.079,5.777c1.771,-2.736 4.72,-6.61 11.78,-6.61c8.752,0 15.297,5.711 15.297,17.994l0,23.772l0.013,0Z" style="fill-rule:nonzero;"/><path id="surface11" serif:id="surface1" d="M77.5,106l-55,0c-9.109,0 -16.5,7.391 -16.5,16.5l0,55c0,9.109 7.391,16.5 16.5,16.5l55,0c9.109,0 16.5,-7.391 16.5,-16.5l0,-55c0,-9.109 -7.391,-16.5 -16.5,-16.5Zm-2.234,47.398l-8.237,0l0,30.475l-13.75,0l0,-30.475l-5.342,0l0,-10.273l5.342,0l0,-6.544c0,-8.568 3.556,-13.658 13.671,-13.658l10.233,0l0,10.233l-5.95,0c-3.927,0 -4.191,1.455 -4.191,4.205l-0.013,5.764l9.36,0l-1.123,10.273Z" style="fill-rule:nonzero;"/><g><path d="M70.15,0l29.772,0l-49.97,100l-49.967,-100l29.999,0l19.968,40.056l20.198,-40.056Z" style="fill-rule:nonzero;"/><path d="M125.013,30.057l-15.035,-30.057l-15.001,30.038l15.049,30.038l20.003,39.924l29.971,0l-34.987,-69.943Z" style="fill-rule:nonzero;"/></g><g><path d="M174.854,193.818l-49.708,0c-10.574,0 -19.146,-8.613 -19.146,-19.238l0,-49.342c0,-10.625 8.572,-19.238 19.146,-19.238l49.708,0c10.574,0 19.146,8.613 19.146,19.238l0,49.342c0,10.624 -8.571,19.237 -19.146,19.238Zm-11.609,-76.567l-26.752,0c-10.237,0.001 -18.612,8.376 -18.612,18.612l0,28.506c0,10.237 8.375,18.612 18.612,18.612l26.752,0c10.236,0 18.611,-8.376 18.611,-18.612l0,-28.506c0,-10.236 -8.375,-18.611 -18.611,-18.612Z" style="fill:#030404;"/><path d="M149.883,138.341c-6.371,0 -11.536,5.164 -11.536,11.535c0,6.371 5.165,11.536 11.536,11.536c6.371,0 11.536,-5.165 11.536,-11.536c0,-6.371 -5.165,-11.535 -11.536,-11.535Z" style="fill:#030404;"/><path d="M163.245,178.063l-26.752,0c-3.637,0 -7.071,-1.43 -9.667,-4.027c-2.597,-2.596 -4.027,-6.029 -4.027,-9.667l0,-28.506c0,-3.637 1.43,-7.07 4.027,-9.667c2.596,-2.596 6.029,-4.026 9.667,-4.027l26.752,0c3.637,0.001 7.07,1.431 9.667,4.027c2.596,2.597 4.026,6.03 4.026,9.667l0,28.506c0,3.638 -1.43,7.071 -4.026,9.667c-2.597,2.597 -6.03,4.027 -9.667,4.027Zm4.339,-28.201c0,9.73 -7.887,17.617 -17.616,17.617c-9.73,0 -17.617,-7.887 -17.617,-17.617c0,-9.729 7.887,-17.616 17.617,-17.616c9.729,0 17.616,7.887 17.616,17.616Zm4.455,-17.89c0,2.303 -1.868,4.171 -4.172,4.171c-2.304,0 -4.171,-1.868 -4.171,-4.171c0,-2.304 1.867,-4.172 4.171,-4.172c2.304,0 4.172,1.868 4.172,4.172Z" style="fill:#030404;"/></g></svg>