<?xml version="1.0" encoding="UTF-8" standalone="no"?><!DOCTYPE svg PUBLIC "-//W3C//DTD SVG 1.1//EN" "http://www.w3.org/Graphics/SVG/1.1/DTD/svg11.dtd"><svg width="100%" height="100%" viewBox="0 0 100 100" version="1.1" xmlns="http://www.w3.org/2000/svg" xmlns:xlink="http://www.w3.org/1999/xlink" xml:space="preserve" xmlns:serif="http://www.serif.com/" style="fill-rule:evenodd;clip-rule:evenodd;stroke-linejoin:round;stroke-miterlimit:2;"><g><path d="M49.997,6l0.007,0l-0.014,0l0.007,0c-11.944,0 -13.444,0.052 -18.136,0.266c-4.684,0.214 -7.882,0.956 -10.679,2.044c-2.894,1.124 -5.349,2.627 -7.795,5.074c-2.447,2.445 -3.95,4.9 -5.078,7.793c-1.091,2.799 -1.833,5.997 -2.044,10.679c-0.21,4.694 -0.265,6.194 -0.265,18.144c0,11.95 0.053,13.445 0.266,18.138c0.215,4.684 0.957,7.882 2.044,10.679c1.125,2.894 2.628,5.349 5.075,7.795c2.444,2.447 4.899,3.954 7.791,5.078c2.8,1.088 5.998,1.83 10.681,2.044c4.694,0.214 6.192,0.266 18.141,0.266c11.951,0 13.446,-0.052 18.139,-0.266c4.684,-0.214 7.885,-0.956 10.685,-2.044c2.893,-1.124 5.344,-2.631 7.789,-5.078c2.447,-2.446 3.951,-4.901 5.078,-7.794c1.082,-2.798 1.824,-5.997 2.044,-10.679c0.211,-4.693 0.266,-6.189 0.266,-18.139c0,-11.95 -0.055,-13.449 -0.266,-18.143c-0.22,-4.684 -0.962,-7.881 -2.044,-10.679c-1.127,-2.894 -2.631,-5.349 -5.078,-7.794c-2.448,-2.448 -4.895,-3.951 -7.792,-5.074c-2.805,-1.088 -6.004,-1.83 -10.688,-2.044c-4.693,-0.214 -6.187,-0.266 -18.134,-0.266Zm-3.941,7.929c1.172,-0.002 2.479,0 3.948,0c11.748,0 13.14,0.042 17.779,0.253c4.29,0.196 6.619,0.913 8.17,1.515c2.053,0.798 3.517,1.751 5.056,3.291c1.54,1.54 2.493,3.007 3.293,5.06c0.602,1.549 1.32,3.878 1.515,8.168c0.211,4.638 0.257,6.031 0.257,17.774c0,11.742 -0.046,13.136 -0.257,17.774c-0.196,4.29 -0.913,6.618 -1.515,8.168c-0.798,2.053 -1.753,3.515 -3.293,5.054c-1.54,1.54 -3.002,2.493 -5.056,3.291c-1.55,0.605 -3.88,1.32 -8.17,1.516c-4.638,0.211 -6.031,0.257 -17.779,0.257c-11.749,0 -13.142,-0.046 -17.78,-0.257c-4.29,-0.198 -6.618,-0.915 -8.17,-1.517c-2.054,-0.798 -3.52,-1.751 -5.06,-3.291c-1.54,-1.54 -2.494,-3.003 -3.293,-5.057c-0.602,-1.549 -1.32,-3.878 -1.515,-8.168c-0.211,-4.638 -0.253,-6.031 -0.253,-17.781c0,-11.75 0.042,-13.136 0.253,-17.774c0.196,-4.29 0.913,-6.619 1.515,-8.17c0.798,-2.053 1.753,-3.52 3.293,-5.06c1.54,-1.54 3.006,-2.493 5.06,-3.292c1.551,-0.605 3.88,-1.32 8.17,-1.517c4.059,-0.184 5.632,-0.239 13.832,-0.248l0,0.011Zm3.947,13.475l0.001,0l-0.001,0l0,0c-12.478,0.001 -22.595,10.118 -22.595,22.596c0,12.479 10.117,22.591 22.596,22.591c12.478,0 22.592,-10.112 22.592,-22.591c0,-12.478 -10.114,-22.595 -22.593,-22.596Zm0.001,7.929c8.099,0 14.666,6.566 14.666,14.667c0,8.1 -6.567,14.667 -14.666,14.667c-8.101,0 -14.667,-6.567 -14.667,-14.667c0,-8.101 6.566,-14.667 14.667,-14.667Zm23.486,-14.098c-2.915,0 -5.28,2.362 -5.28,5.278c0,2.915 2.365,5.28 5.28,5.28c2.915,0 5.28,-2.365 5.28,-5.28c0,-2.915 -2.365,-5.28 -5.28,-5.28l0,0.002Z" style="fill-rule:nonzero;"/></g><path d="M-49.677,100.001l0.323,0.003l0.322,0.005l0.322,0.007l0.321,0.01l0.321,0.011l0.32,0.013l0.319,0.015l0.319,0.017l0.319,0.02l0.318,0.021l0.318,0.023l0.317,0.025l0.316,0.027l0.316,0.029l0.315,0.031l0.315,0.033l0.314,0.035l0.314,0.037l0.312,0.039l0.313,0.041l0.312,0.042l0.311,0.045l0.31,0.047l0.31,0.048l0.309,0.05l0.309,0.052l0.308,0.055l0.307,0.055l0.307,0.058l0.306,0.06l0.305,0.062l0.305,0.063l0.304,0.065l0.303,0.067l0.303,0.069l0.302,0.071l0.301,0.073l0.301,0.074l0.3,0.076l0.299,0.078l0.298,0.08l0.298,0.082l0.297,0.083l0.296,0.085l0.295,0.087l0.295,0.089l0.294,0.09l0.293,0.093l0.292,0.094l0.292,0.095l0.29,0.098l0.29,0.099l0.289,0.101l0.289,0.103l0.287,0.104l0.287,0.106l0.286,0.108l0.285,0.109l0.284,0.111l0.283,0.113l0.283,0.115l0.282,0.116l0.28,0.118l0.28,0.119l0.279,0.121l0.279,0.123l0.277,0.125l0.276,0.126l0.276,0.127l0.274,0.13l0.274,0.131l0.273,0.132l0.272,0.134l0.27,0.136l0.27,0.137l0.269,0.139l0.269,0.141l0.267,0.142l0.266,0.143l0.265,0.146l0.264,0.146l0.263,0.149l0.263,0.149l0.261,0.152l0.26,0.153l0.259,0.154l0.259,0.156l0.257,0.157l0.256,0.159l0.255,0.161l0.254,0.162l0.253,0.163l0.252,0.165l0.251,0.166l0.25,0.168l0.249,0.169l0.248,0.171l0.247,0.172l0.245,0.174l0.245,0.175l0.243,0.176l0.243,0.178l0.241,0.18l0.24,0.18l0.239,0.183l0.238,0.183l0.237,0.185l0.235,0.186l0.235,0.188l0.233,0.189l0.232,0.191l0.231,0.191l0.23,0.193l0.228,0.195l0.228,0.196l0.226,0.197l0.225,0.199l0.224,0.199l0.223,0.202l0.221,0.202l0.22,0.204l0.219,0.205l0.218,0.206l0.216,0.208l0.216,0.209l0.214,0.21l0.212,0.212l0.212,0.212l0.21,0.214l0.209,0.216l0.208,0.216l0.206,0.218l0.205,0.219l0.204,0.22l0.202,0.221l0.202,0.223l0.199,0.224l0.199,0.225l0.197,0.226l0.196,0.228l0.195,0.228l0.193,0.23l0.191,0.231l0.191,0.232l0.189,0.233l0.188,0.235l0.186,0.235l0.185,0.237l0.183,0.238l0.183,0.239l0.18,0.24l0.18,0.241l0.178,0.243l0.176,0.243l0.175,0.245l0.174,0.245l0.172,0.247l0.171,0.248l0.169,0.249l0.168,0.25l0.166,0.251l0.165,0.252l0.163,0.253l0.162,0.254l0.161,0.255l0.159,0.256l0.157,0.257l0.156,0.259l0.154,0.259l0.153,0.26l0.152,0.261l0.149,0.263l0.149,0.263l0.146,0.264l0.146,0.265l0.143,0.266l0.142,0.267l0.141,0.269l0.139,0.269l0.137,0.27l0.136,0.27l0.134,0.272l0.132,0.273l0.131,0.274l0.13,0.274l0.127,0.276l0.126,0.276l0.125,0.277l0.123,0.279l0.121,0.279l0.119,0.28l0.118,0.28l0.116,0.282l0.115,0.283l0.113,0.283l0.111,0.284l0.109,0.285l0.108,0.286l0.106,0.287l0.104,0.287l0.103,0.289l0.101,0.289l0.099,0.29l0.098,0.29l0.095,0.292l0.094,0.292l0.093,0.293l0.09,0.294l0.089,0.295l0.087,0.295l0.085,0.296l0.083,0.297l0.082,0.298l0.08,0.298l0.078,0.299l0.076,0.3l0.074,0.301l0.073,0.301l0.071,0.302l0.069,0.303l0.067,0.303l0.065,0.304l0.063,0.305l0.062,0.305l0.06,0.306l0.058,0.307l0.055,0.307l0.055,0.308l0.052,0.309l0.05,0.309l0.048,0.31l0.047,0.31l0.045,0.311l0.042,0.312l0.041,0.313l0.039,0.312l0.037,0.314l0.035,0.314l0.033,0.315l0.031,0.315l0.029,0.316l0.027,0.316l0.025,0.317l0.023,0.318l0.021,0.318l0.02,0.319l0.017,0.319l0.015,0.319l0.013,0.32l0.011,0.321l0.01,0.321l0.007,0.322l0.005,0.322l0.003,0.323l0.001,0.323l-0.001,0.323l-0.003,0.323l-0.005,0.322l-0.007,0.322l-0.01,0.321l-0.011,0.321l-0.013,0.32l-0.015,0.319l-0.017,0.319l-0.02,0.319l-0.021,0.318l-0.023,0.318l-0.025,0.317l-0.027,0.316l-0.029,0.316l-0.031,0.315l-0.033,0.315l-0.035,0.314l-0.037,0.314l-0.039,0.312l-0.041,0.313l-0.042,0.312l-0.045,0.311l-0.047,0.31l-0.048,0.31l-0.05,0.309l-0.052,0.309l-0.055,0.308l-0.055,0.307l-0.058,0.307l-0.06,0.306l-0.062,0.305l-0.063,0.305l-0.065,0.304l-0.067,0.303l-0.069,0.303l-0.071,0.302l-0.073,0.301l-0.074,0.301l-0.076,0.3l-0.078,0.299l-0.08,0.298l-0.082,0.298l-0.083,0.297l-0.085,0.296l-0.087,0.295l-0.089,0.295l-0.09,0.294l-0.093,0.293l-0.094,0.292l-0.095,0.292l-0.098,0.29l-0.099,0.29l-0.101,0.289l-0.103,0.289l-0.104,0.287l-0.106,0.287l-0.108,0.286l-0.109,0.285l-0.111,0.284l-0.113,0.283l-0.115,0.283l-0.116,0.282l-0.118,0.28l-0.119,0.28l-0.121,0.279l-0.123,0.279l-0.125,0.277l-0.126,0.276l-0.127,0.276l-0.13,0.274l-0.131,0.274l-0.132,0.273l-0.134,0.272l-0.136,0.27l-0.137,0.27l-0.139,0.269l-0.141,0.269l-0.142,0.267l-0.143,0.266l-0.146,0.265l-0.146,0.264l-0.149,0.263l-0.149,0.263l-0.152,0.261l-0.153,0.26l-0.154,0.259l-0.156,0.259l-0.157,0.257l-0.159,0.256l-0.161,0.255l-0.162,0.254l-0.163,0.253l-0.165,0.252l-0.166,0.251l-0.168,0.25l-0.169,0.249l-0.171,0.248l-0.172,0.247l-0.174,0.245l-0.175,0.245l-0.176,0.243l-0.178,0.243l-0.18,0.241l-0.18,0.24l-0.183,0.239l-0.183,0.238l-0.185,0.237l-0.186,0.235l-0.188,0.235l-0.189,0.233l-0.191,0.232l-0.191,0.231l-0.193,0.23l-0.195,0.228l-0.196,0.228l-0.197,0.226l-0.199,0.225l-0.199,0.224l-0.202,0.223l-0.202,0.221l-0.204,0.22l-0.205,0.219l-0.206,0.218l-0.208,0.216l-0.209,0.216l-0.21,0.214l-0.212,0.212l-0.212,0.212l-0.214,0.21l-0.216,0.209l-0.216,0.208l-0.218,0.206l-0.219,0.205l-0.22,0.204l-0.221,0.202l-0.223,0.202l-0.224,0.199l-0.225,0.199l-0.226,0.197l-0.228,0.196l-0.228,0.195l-0.23,0.193l-0.231,0.191l-0.232,0.191l-0.233,0.189l-0.235,0.188l-0.235,0.186l-0.237,0.185l-0.238,0.183l-0.239,0.183l-0.24,0.18l-0.241,0.18l-0.243,0.178l-0.243,0.176l-0.245,0.175l-0.245,0.174l-0.247,0.172l-0.248,0.171l-0.249,0.169l-0.25,0.168l-0.251,0.166l-0.252,0.165l-0.253,0.163l-0.254,0.162l-0.255,0.161l-0.256,0.159l-0.257,0.157l-0.259,0.156l-0.259,0.154l-0.26,0.153l-0.261,0.152l-0.263,0.149l-0.263,0.149l-0.264,0.146l-0.265,0.146l-0.266,0.143l-0.267,0.142l-0.269,0.141l-0.269,0.139l-0.27,0.137l-0.27,0.136l-0.272,0.134l-0.273,0.132l-0.274,0.131l-0.274,0.13l-0.276,0.127l-0.276,0.126l-0.277,0.125l-0.279,0.123l-0.279,0.121l-0.28,0.119l-0.28,0.118l-0.282,0.116l-0.283,0.115l-0.283,0.113l-0.284,0.111l-0.285,0.109l-0.286,0.108l-0.287,0.106l-0.287,0.104l-0.289,0.103l-0.289,0.101l-0.29,0.099l-0.29,0.098l-0.292,0.095l-0.292,0.094l-0.293,0.093l-0.294,0.09l-0.295,0.089l-0.295,0.087l-0.296,0.085l-0.297,0.083l-0.298,0.082l-0.298,0.08l-0.299,0.078l-0.3,0.076l-0.301,0.074l-0.301,0.073l-0.302,0.071l-0.303,0.069l-0.303,0.067l-0.304,0.065l-0.305,0.063l-0.305,0.062l-0.306,0.06l-0.307,0.058l-0.307,0.055l-0.308,0.055l-0.309,0.052l-0.309,0.05l-0.31,0.048l-0.31,0.047l-0.311,0.045l-0.312,0.042l-0.313,0.041l-0.312,0.039l-0.314,0.037l-0.314,0.035l-0.315,0.033l-0.315,0.031l-0.316,0.029l-0.316,0.027l-0.317,0.025l-0.318,0.023l-0.318,0.021l-0.319,0.02l-0.319,0.017l-0.319,0.015l-0.32,0.013l-0.321,0.011l-0.321,0.01l-0.322,0.007l-0.322,0.005l-0.323,0.003l-0.323,0.001l-0.323,-0.001l-0.323,-0.003l-0.322,-0.005l-0.322,-0.007l-0.321,-0.01l-0.321,-0.011l-0.32,-0.013l-0.319,-0.015l-0.319,-0.017l-0.319,-0.02l-0.318,-0.021l-0.318,-0.023l-0.317,-0.025l-0.316,-0.027l-0.316,-0.029l-0.315,-0.031l-0.315,-0.033l-0.314,-0.035l-0.314,-0.037l-0.312,-0.039l-0.313,-0.041l-0.312,-0.042l-0.311,-0.045l-0.31,-0.047l-0.31,-0.048l-0.309,-0.05l-0.309,-0.052l-0.308,-0.055l-0.307,-0.055l-0.307,-0.058l-0.306,-0.06l-0.305,-0.062l-0.305,-0.063l-0.304,-0.065l-0.303,-0.067l-0.303,-0.069l-0.302,-0.071l-0.301,-0.073l-0.301,-0.074l-0.3,-0.076l-0.299,-0.078l-0.298,-0.08l-0.298,-0.082l-0.297,-0.083l-0.296,-0.085l-0.295,-0.087l-0.295,-0.089l-0.294,-0.09l-0.293,-0.093l-0.292,-0.094l-0.292,-0.095l-0.29,-0.098l-0.29,-0.099l-0.289,-0.101l-0.289,-0.103l-0.287,-0.104l-0.287,-0.106l-0.286,-0.108l-0.285,-0.109l-0.284,-0.111l-0.283,-0.113l-0.283,-0.115l-0.282,-0.116l-0.28,-0.118l-0.28,-0.119l-0.279,-0.121l-0.279,-0.123l-0.277,-0.125l-0.276,-0.126l-0.276,-0.127l-0.274,-0.13l-0.274,-0.131l-0.273,-0.132l-0.272,-0.134l-0.27,-0.136l-0.27,-0.137l-0.269,-0.139l-0.269,-0.141l-0.267,-0.142l-0.266,-0.143l-0.265,-0.146l-0.264,-0.146l-0.263,-0.149l-0.263,-0.149l-0.261,-0.152l-0.26,-0.153l-0.259,-0.154l-0.259,-0.156l-0.257,-0.157l-0.256,-0.159l-0.255,-0.161l-0.254,-0.162l-0.253,-0.163l-0.252,-0.165l-0.251,-0.166l-0.25,-0.168l-0.249,-0.169l-0.248,-0.171l-0.247,-0.172l-0.245,-0.174l-0.245,-0.175l-0.243,-0.176l-0.243,-0.178l-0.241,-0.18l-0.24,-0.18l-0.239,-0.183l-0.238,-0.183l-0.237,-0.185l-0.235,-0.186l-0.235,-0.188l-0.233,-0.189l-0.232,-0.191l-0.231,-0.191l-0.23,-0.193l-0.228,-0.195l-0.228,-0.196l-0.226,-0.197l-0.225,-0.199l-0.224,-0.199l-0.223,-0.202l-0.221,-0.202l-0.22,-0.204l-0.219,-0.205l-0.218,-0.206l-0.216,-0.208l-0.216,-0.209l-0.214,-0.21l-0.212,-0.212l-0.212,-0.212l-0.21,-0.214l-0.209,-0.216l-0.208,-0.216l-0.206,-0.218l-0.205,-0.219l-0.204,-0.22l-0.202,-0.221l-0.202,-0.223l-0.199,-0.224l-0.199,-0.225l-0.197,-0.226l-0.196,-0.228l-0.195,-0.228l-0.193,-0.23l-0.191,-0.231l-0.191,-0.232l-0.189,-0.233l-0.188,-0.235l-0.186,-0.235l-0.185,-0.237l-0.183,-0.238l-0.183,-0.239l-0.18,-0.24l-0.18,-0.241l-0.178,-0.243l-0.176,-0.243l-0.175,-0.245l-0.174,-0.245l-0.172,-0.247l-0.171,-0.248l-0.169,-0.249l-0.168,-0.25l-0.166,-0.251l-0.165,-0.252l-0.163,-0.253l-0.162,-0.254l-0.161,-0.255l-0.159,-0.256l-0.157,-0.257l-0.156,-0.259l-0.154,-0.259l-0.153,-0.26l-0.152,-0.261l-0.149,-0.263l-0.149,-0.263l-0.146,-0.264l-0.146,-0.265l-0.143,-0.266l-0.142,-0.267l-0.141,-0.269l-0.139,-0.269l-0.137,-0.27l-0.136,-0.27l-0.134,-0.272l-0.132,-0.273l-0.131,-0.274l-0.13,-0.274l-0.127,-0.276l-0.126,-0.276l-0.125,-0.277l-0.123,-0.279l-0.121,-0.279l-0.119,-0.28l-0.118,-0.28l-0.116,-0.282l-0.115,-0.283l-0.113,-0.283l-0.111,-0.284l-0.109,-0.285l-0.108,-0.286l-0.106,-0.287l-0.104,-0.287l-0.103,-0.289l-0.101,-0.289l-0.099,-0.29l-0.098,-0.29l-0.095,-0.292l-0.094,-0.292l-0.093,-0.293l-0.09,-0.294l-0.089,-0.295l-0.087,-0.295l-0.085,-0.296l-0.083,-0.297l-0.082,-0.298l-0.08,-0.298l-0.078,-0.299l-0.076,-0.3l-0.074,-0.301l-0.073,-0.301l-0.071,-0.302l-0.069,-0.303l-0.067,-0.303l-0.065,-0.304l-0.063,-0.305l-0.062,-0.305l-0.06,-0.306l-0.058,-0.307l-0.055,-0.307l-0.055,-0.308l-0.052,-0.309l-0.05,-0.309l-0.048,-0.31l-0.047,-0.31l-0.045,-0.311l-0.042,-0.312l-0.041,-0.313l-0.039,-0.312l-0.037,-0.314l-0.035,-0.314l-0.033,-0.315l-0.031,-0.315l-0.029,-0.316l-0.027,-0.316l-0.025,-0.317l-0.023,-0.318l-0.021,-0.318l-0.02,-0.319l-0.017,-0.319l-0.015,-0.319l-0.013,-0.32l-0.011,-0.321l-0.01,-0.321l-0.007,-0.322l-0.005,-0.322l-0.003,-0.323l-0.001,-0.323l0.001,-0.323l0.003,-0.323l0.005,-0.322l0.007,-0.322l0.01,-0.321l0.011,-0.321l0.013,-0.32l0.015,-0.319l0.017,-0.319l0.02,-0.319l0.021,-0.318l0.023,-0.318l0.025,-0.317l0.027,-0.316l0.029,-0.316l0.031,-0.315l0.033,-0.315l0.035,-0.314l0.037,-0.314l0.039,-0.312l0.041,-0.313l0.042,-0.312l0.045,-0.311l0.047,-0.31l0.048,-0.31l0.05,-0.309l0.052,-0.309l0.055,-0.308l0.055,-0.307l0.058,-0.307l0.06,-0.306l0.062,-0.305l0.063,-0.305l0.065,-0.304l0.067,-0.303l0.069,-0.303l0.071,-0.302l0.073,-0.301l0.074,-0.301l0.076,-0.3l0.078,-0.299l0.08,-0.298l0.082,-0.298l0.083,-0.297l0.085,-0.296l0.087,-0.295l0.089,-0.295l0.09,-0.294l0.093,-0.293l0.094,-0.292l0.095,-0.292l0.098,-0.29l0.099,-0.29l0.101,-0.289l0.103,-0.289l0.104,-0.287l0.106,-0.287l0.108,-0.286l0.109,-0.285l0.111,-0.284l0.113,-0.283l0.115,-0.283l0.116,-0.282l0.118,-0.28l0.119,-0.28l0.121,-0.279l0.123,-0.279l0.125,-0.277l0.126,-0.276l0.127,-0.276l0.13,-0.274l0.131,-0.274l0.132,-0.273l0.134,-0.272l0.136,-0.27l0.137,-0.27l0.139,-0.269l0.141,-0.269l0.142,-0.267l0.143,-0.266l0.146,-0.265l0.146,-0.264l0.149,-0.263l0.149,-0.263l0.152,-0.261l0.153,-0.26l0.154,-0.259l0.156,-0.259l0.157,-0.257l0.159,-0.256l0.161,-0.255l0.162,-0.254l0.163,-0.253l0.165,-0.252l0.166,-0.251l0.168,-0.25l0.169,-0.249l0.171,-0.248l0.172,-0.247l0.174,-0.245l0.175,-0.245l0.176,-0.243l0.178,-0.243l0.18,-0.241l0.18,-0.24l0.183,-0.239l0.183,-0.238l0.185,-0.237l0.186,-0.235l0.188,-0.235l0.189,-0.233l0.191,-0.232l0.191,-0.231l0.193,-0.23l0.195,-0.228l0.196,-0.228l0.197,-0.226l0.199,-0.225l0.199,-0.224l0.202,-0.223l0.202,-0.221l0.204,-0.22l0.205,-0.219l0.206,-0.218l0.208,-0.216l0.209,-0.216l0.21,-0.214l0.212,-0.212l0.212,-0.212l0.214,-0.21l0.216,-0.209l0.216,-0.208l0.218,-0.206l0.219,-0.205l0.22,-0.204l0.221,-0.202l0.223,-0.202l0.224,-0.199l0.225,-0.199l0.226,-0.197l0.228,-0.196l0.228,-0.195l0.23,-0.193l0.231,-0.191l0.232,-0.191l0.233,-0.189l0.235,-0.188l0.235,-0.186l0.237,-0.185l0.238,-0.183l0.239,-0.183l0.24,-0.18l0.241,-0.18l0.243,-0.178l0.243,-0.176l0.245,-0.175l0.245,-0.174l0.247,-0.172l0.248,-0.171l0.249,-0.169l0.25,-0.168l0.251,-0.166l0.252,-0.165l0.253,-0.163l0.254,-0.162l0.255,-0.161l0.256,-0.159l0.257,-0.157l0.259,-0.156l0.259,-0.154l0.26,-0.153l0.261,-0.152l0.263,-0.149l0.263,-0.149l0.264,-0.146l0.265,-0.146l0.266,-0.143l0.267,-0.142l0.269,-0.141l0.269,-0.139l0.27,-0.137l0.27,-0.136l0.272,-0.134l0.273,-0.132l0.274,-0.131l0.274,-0.13l0.276,-0.127l0.276,-0.126l0.277,-0.125l0.279,-0.123l0.279,-0.121l0.28,-0.119l0.28,-0.118l0.282,-0.116l0.283,-0.115l0.283,-0.113l0.284,-0.111l0.285,-0.109l0.286,-0.108l0.287,-0.106l0.287,-0.104l0.289,-0.103l0.289,-0.101l0.29,-0.099l0.29,-0.098l0.292,-0.095l0.292,-0.094l0.293,-0.093l0.294,-0.09l0.295,-0.089l0.295,-0.087l0.296,-0.085l0.297,-0.083l0.298,-0.082l0.298,-0.08l0.299,-0.078l0.3,-0.076l0.301,-0.074l0.301,-0.073l0.302,-0.071l0.303,-0.069l0.303,-0.067l0.304,-0.065l0.305,-0.063l0.305,-0.062l0.306,-0.06l0.307,-0.058l0.307,-0.055l0.308,-0.055l0.309,-0.052l0.309,-0.05l0.31,-0.048l0.31,-0.047l0.311,-0.045l0.312,-0.042l0.313,-0.041l0.312,-0.039l0.314,-0.037l0.314,-0.035l0.315,-0.033l0.315,-0.031l0.316,-0.029l0.316,-0.027l0.317,-0.025l0.318,-0.023l0.318,-0.021l0.319,-0.02l0.319,-0.017l0.319,-0.015l0.32,-0.013l0.321,-0.011l0.321,-0.01l0.322,-0.007l0.322,-0.005l0.323,-0.003l0.323,-0.001l0.323,0.001Zm-0.614,5l-0.291,0.003l-0.291,0.004l-0.29,0.007l-0.289,0.008l-0.289,0.01l-0.289,0.012l-0.288,0.014l-0.288,0.015l-0.286,0.018l-0.287,0.019l-0.286,0.02l-0.285,0.023l-0.285,0.025l-0.285,0.026l-0.283,0.028l-0.284,0.029l-0.282,0.032l-0.283,0.033l-0.281,0.035l-0.281,0.037l-0.281,0.038l-0.28,0.04l-0.279,0.042l-0.279,0.044l-0.278,0.045l-0.278,0.047l-0.277,0.048l-0.276,0.051l-0.276,0.052l-0.275,0.054l-0.275,0.055l-0.274,0.057l-0.273,0.059l-0.273,0.06l-0.272,0.062l-0.272,0.064l-0.271,0.065l-0.27,0.067l-0.27,0.068l-0.268,0.07l-0.269,0.072l-0.267,0.074l-0.267,0.075l-0.267,0.076l-0.265,0.078l-0.265,0.08l-0.264,0.082l-0.264,0.082l-0.263,0.085l-0.262,0.086l-0.261,0.088l-0.261,0.089l-0.26,0.091l-0.259,0.092l-0.259,0.094l-0.258,0.095l-0.257,0.097l-0.256,0.098l-0.256,0.101l-0.255,0.101l-0.254,0.103l-0.253,0.104l-0.252,0.106l-0.252,0.108l-0.251,0.109l-0.25,0.11l-0.25,0.112l-0.248,0.114l-0.248,0.114l-0.247,0.117l-0.246,0.118l-0.246,0.119l-0.244,0.12l-0.244,0.123l-0.243,0.123l-0.242,0.125l-0.241,0.126l-0.241,0.128l-0.239,0.13l-0.239,0.13l-0.237,0.132l-0.237,0.134l-0.236,0.134l-0.235,0.137l-0.235,0.137l-0.233,0.139l-0.232,0.141l-0.232,0.141l-0.23,0.143l-0.23,0.145l-0.229,0.145l-0.228,0.147l-0.227,0.149l-0.226,0.15l-0.225,0.151l-0.224,0.152l-0.223,0.154l-0.222,0.155l-0.221,0.156l-0.22,0.158l-0.219,0.159l-0.219,0.16l-0.217,0.161l-0.216,0.163l-0.215,0.164l-0.214,0.165l-0.214,0.167l-0.212,0.168l-0.211,0.169l-0.21,0.17l-0.209,0.172l-0.208,0.172l-0.207,0.174l-0.206,0.176l-0.205,0.176l-0.203,0.177l-0.203,0.179l-0.202,0.18l-0.2,0.182l-0.2,0.182l-0.198,0.183l-0.197,0.185l-0.197,0.186l-0.195,0.187l-0.193,0.188l-0.193,0.19l-0.192,0.19l-0.19,0.192l-0.19,0.193l-0.188,0.193l-0.187,0.195l-0.186,0.197l-0.185,0.197l-0.183,0.198l-0.183,0.2l-0.181,0.2l-0.18,0.202l-0.178,0.202l-0.178,0.204l-0.176,0.205l-0.176,0.206l-0.174,0.207l-0.172,0.208l-0.172,0.209l-0.17,0.21l-0.169,0.211l-0.168,0.212l-0.167,0.214l-0.165,0.214l-0.164,0.215l-0.163,0.216l-0.161,0.217l-0.16,0.219l-0.159,0.219l-0.158,0.22l-0.156,0.221l-0.155,0.222l-0.154,0.223l-0.152,0.224l-0.151,0.225l-0.15,0.226l-0.148,0.227l-0.148,0.228l-0.145,0.229l-0.145,0.229l-0.143,0.231l-0.141,0.232l-0.141,0.232l-0.139,0.233l-0.137,0.235l-0.137,0.235l-0.134,0.236l-0.134,0.237l-0.132,0.237l-0.13,0.239l-0.13,0.239l-0.128,0.241l-0.126,0.241l-0.125,0.242l-0.123,0.243l-0.123,0.244l-0.12,0.244l-0.119,0.246l-0.118,0.246l-0.117,0.247l-0.114,0.248l-0.114,0.248l-0.112,0.25l-0.11,0.25l-0.109,0.251l-0.108,0.252l-0.106,0.252l-0.104,0.253l-0.103,0.254l-0.102,0.255l-0.099,0.256l-0.099,0.256l-0.097,0.257l-0.095,0.258l-0.094,0.259l-0.092,0.259l-0.091,0.26l-0.089,0.261l-0.088,0.261l-0.086,0.262l-0.085,0.263l-0.082,0.264l-0.082,0.264l-0.08,0.265l-0.078,0.265l-0.076,0.267l-0.075,0.267l-0.074,0.267l-0.072,0.268l-0.07,0.269l-0.068,0.27l-0.067,0.27l-0.065,0.271l-0.064,0.272l-0.062,0.272l-0.06,0.273l-0.059,0.273l-0.057,0.274l-0.055,0.275l-0.054,0.275l-0.052,0.276l-0.051,0.276l-0.048,0.277l-0.047,0.278l-0.045,0.278l-0.044,0.279l-0.042,0.279l-0.04,0.28l-0.038,0.281l-0.037,0.281l-0.035,0.281l-0.033,0.283l-0.032,0.282l-0.029,0.284l-0.028,0.284l-0.026,0.284l-0.025,0.285l-0.023,0.285l-0.02,0.286l-0.019,0.287l-0.018,0.287l-0.015,0.287l-0.014,0.288l-0.012,0.289l-0.01,0.289l-0.008,0.289l-0.007,0.29l-0.004,0.291l-0.003,0.291l-0.001,0.291l0.001,0.291l0.003,0.291l0.004,0.291l0.007,0.29l0.008,0.289l0.01,0.289l0.012,0.289l0.014,0.288l0.015,0.287l0.018,0.287l0.019,0.287l0.02,0.286l0.023,0.285l0.025,0.285l0.026,0.284l0.028,0.284l0.029,0.284l0.032,0.282l0.033,0.283l0.035,0.281l0.037,0.281l0.038,0.281l0.04,0.28l0.042,0.279l0.044,0.279l0.045,0.278l0.047,0.278l0.048,0.277l0.051,0.276l0.052,0.276l0.054,0.275l0.055,0.275l0.057,0.274l0.059,0.273l0.06,0.273l0.062,0.272l0.064,0.272l0.065,0.271l0.067,0.27l0.068,0.27l0.07,0.269l0.072,0.268l0.074,0.267l0.075,0.267l0.076,0.267l0.078,0.265l0.08,0.265l0.082,0.264l0.082,0.264l0.085,0.263l0.086,0.262l0.088,0.261l0.089,0.261l0.091,0.26l0.092,0.259l0.094,0.259l0.095,0.258l0.097,0.257l0.099,0.256l0.099,0.256l0.102,0.255l0.103,0.254l0.104,0.253l0.106,0.252l0.108,0.252l0.109,0.251l0.11,0.25l0.112,0.25l0.114,0.248l0.114,0.248l0.117,0.247l0.118,0.246l0.119,0.246l0.12,0.244l0.123,0.244l0.123,0.243l0.125,0.242l0.127,0.241l0.127,0.241l0.13,0.239l0.13,0.239l0.132,0.237l0.134,0.237l0.134,0.236l0.137,0.235l0.137,0.235l0.139,0.233l0.14,0.232l0.142,0.232l0.143,0.231l0.145,0.229l0.145,0.229l0.147,0.228l0.149,0.227l0.15,0.226l0.151,0.225l0.152,0.224l0.154,0.223l0.155,0.222l0.156,0.221l0.158,0.22l0.159,0.219l0.16,0.219l0.161,0.217l0.163,0.216l0.164,0.215l0.165,0.214l0.167,0.214l0.168,0.212l0.169,0.211l0.17,0.21l0.172,0.209l0.172,0.208l0.174,0.207l0.175,0.206l0.177,0.205l0.178,0.204l0.178,0.202l0.18,0.202l0.182,0.2l0.182,0.2l0.183,0.198l0.185,0.197l0.186,0.196l0.187,0.196l0.188,0.194l0.19,0.192l0.19,0.192l0.192,0.19l0.193,0.19l0.193,0.188l0.195,0.187l0.197,0.186l0.197,0.185l0.198,0.183l0.2,0.182l0.2,0.182l0.202,0.18l0.202,0.178l0.204,0.178l0.205,0.176l0.206,0.176l0.207,0.174l0.208,0.172l0.209,0.172l0.21,0.17l0.211,0.169l0.212,0.168l0.214,0.167l0.214,0.165l0.215,0.164l0.216,0.163l0.217,0.161l0.218,0.16l0.22,0.159l0.22,0.158l0.221,0.156l0.222,0.155l0.223,0.154l0.224,0.152l0.225,0.151l0.226,0.15l0.227,0.149l0.228,0.147l0.229,0.145l0.229,0.145l0.231,0.143l0.232,0.141l0.232,0.141l0.234,0.139l0.234,0.137l0.235,0.136l0.236,0.135l0.237,0.134l0.237,0.132l0.239,0.13l0.239,0.13l0.241,0.128l0.241,0.126l0.242,0.125l0.243,0.123l0.244,0.123l0.244,0.12l0.245,0.119l0.247,0.118l0.247,0.117l0.248,0.114l0.248,0.114l0.25,0.112l0.25,0.11l0.251,0.109l0.251,0.108l0.253,0.105l0.254,0.105l0.253,0.103l0.255,0.102l0.256,0.1l0.256,0.098l0.257,0.097l0.258,0.095l0.259,0.094l0.259,0.092l0.26,0.091l0.261,0.089l0.261,0.088l0.262,0.086l0.263,0.084l0.264,0.083l0.264,0.082l0.265,0.08l0.265,0.078l0.267,0.076l0.266,0.075l0.268,0.074l0.269,0.072l0.268,0.07l0.27,0.068l0.27,0.067l0.271,0.065l0.272,0.064l0.272,0.062l0.272,0.06l0.274,0.059l0.274,0.057l0.275,0.055l0.275,0.054l0.276,0.052l0.276,0.051l0.277,0.048l0.278,0.047l0.278,0.045l0.279,0.044l0.279,0.042l0.28,0.04l0.281,0.038l0.281,0.037l0.282,0.035l0.282,0.033l0.282,0.032l0.284,0.029l0.284,0.028l0.284,0.026l0.285,0.025l0.285,0.023l0.286,0.02l0.287,0.019l0.286,0.018l0.288,0.015l0.288,0.014l0.289,0.012l0.289,0.01l0.289,0.008l0.29,0.007l0.291,0.004l0.291,0.003l0.291,0.001l0.291,-0.001l0.291,-0.003l0.291,-0.004l0.29,-0.007l0.289,-0.008l0.289,-0.01l0.289,-0.012l0.288,-0.014l0.288,-0.015l0.286,-0.018l0.287,-0.019l0.286,-0.02l0.285,-0.023l0.285,-0.025l0.284,-0.026l0.284,-0.028l0.284,-0.029l0.282,-0.032l0.282,-0.033l0.282,-0.035l0.281,-0.037l0.281,-0.038l0.28,-0.04l0.279,-0.042l0.279,-0.044l0.278,-0.045l0.278,-0.047l0.277,-0.048l0.276,-0.051l0.276,-0.052l0.275,-0.054l0.275,-0.055l0.274,-0.057l0.274,-0.059l0.272,-0.06l0.272,-0.062l0.272,-0.064l0.271,-0.065l0.27,-0.067l0.27,-0.068l0.268,-0.07l0.269,-0.072l0.268,-0.074l0.266,-0.075l0.267,-0.076l0.265,-0.078l0.265,-0.08l0.264,-0.082l0.264,-0.083l0.263,-0.084l0.262,-0.086l0.261,-0.088l0.261,-0.089l0.26,-0.091l0.259,-0.092l0.259,-0.094l0.258,-0.095l0.257,-0.097l0.256,-0.098l0.256,-0.1l0.255,-0.102l0.253,-0.103l0.254,-0.105l0.253,-0.105l0.251,-0.108l0.251,-0.109l0.25,-0.11l0.25,-0.112l0.248,-0.114l0.248,-0.114l0.247,-0.117l0.247,-0.118l0.245,-0.119l0.244,-0.12l0.244,-0.123l0.243,-0.123l0.242,-0.125l0.241,-0.126l0.241,-0.128l0.239,-0.129l0.239,-0.131l0.237,-0.132l0.237,-0.134l0.236,-0.135l0.235,-0.136l0.234,-0.137l0.234,-0.139l0.232,-0.141l0.232,-0.141l0.231,-0.143l0.229,-0.145l0.229,-0.145l0.228,-0.147l0.227,-0.149l0.226,-0.15l0.225,-0.151l0.224,-0.152l0.223,-0.154l0.222,-0.155l0.221,-0.156l0.22,-0.158l0.219,-0.159l0.219,-0.16l0.217,-0.161l0.216,-0.163l0.215,-0.164l0.214,-0.165l0.214,-0.167l0.212,-0.168l0.211,-0.169l0.21,-0.17l0.209,-0.172l0.208,-0.172l0.207,-0.174l0.206,-0.176l0.205,-0.176l0.204,-0.178l0.202,-0.178l0.202,-0.18l0.2,-0.182l0.2,-0.182l0.198,-0.183l0.197,-0.185l0.197,-0.186l0.195,-0.187l0.193,-0.188l0.193,-0.19l0.192,-0.19l0.19,-0.192l0.19,-0.192l0.188,-0.194l0.187,-0.196l0.186,-0.196l0.185,-0.197l0.183,-0.198l0.182,-0.2l0.182,-0.2l0.18,-0.202l0.178,-0.202l0.178,-0.204l0.177,-0.205l0.175,-0.206l0.173,-0.207l0.173,-0.208l0.172,-0.209l0.17,-0.21l0.169,-0.211l0.168,-0.212l0.167,-0.214l0.165,-0.214l0.164,-0.215l0.163,-0.216l0.161,-0.217l0.16,-0.218l0.159,-0.22l0.158,-0.22l0.156,-0.221l0.155,-0.222l0.154,-0.223l0.152,-0.224l0.151,-0.225l0.15,-0.226l0.149,-0.227l0.147,-0.228l0.145,-0.229l0.145,-0.229l0.143,-0.231l0.142,-0.232l0.14,-0.232l0.139,-0.233l0.137,-0.235l0.137,-0.235l0.134,-0.236l0.134,-0.237l0.132,-0.237l0.13,-0.239l0.13,-0.239l0.127,-0.241l0.127,-0.241l0.125,-0.242l0.123,-0.243l0.123,-0.244l0.12,-0.244l0.119,-0.246l0.118,-0.246l0.117,-0.247l0.114,-0.248l0.114,-0.248l0.112,-0.25l0.11,-0.25l0.109,-0.251l0.108,-0.252l0.106,-0.252l0.104,-0.253l0.103,-0.254l0.102,-0.255l0.099,-0.256l0.099,-0.256l0.097,-0.257l0.095,-0.258l0.094,-0.259l0.092,-0.259l0.091,-0.26l0.089,-0.261l0.088,-0.261l0.086,-0.262l0.085,-0.263l0.082,-0.264l0.082,-0.264l0.08,-0.265l0.078,-0.265l0.076,-0.267l0.075,-0.267l0.074,-0.267l0.072,-0.268l0.07,-0.269l0.068,-0.27l0.067,-0.27l0.065,-0.271l0.064,-0.272l0.062,-0.272l0.06,-0.273l0.059,-0.273l0.057,-0.274l0.055,-0.275l0.054,-0.275l0.052,-0.276l0.051,-0.276l0.048,-0.277l0.047,-0.278l0.045,-0.278l0.044,-0.279l0.042,-0.279l0.04,-0.28l0.038,-0.281l0.037,-0.281l0.035,-0.281l0.033,-0.283l0.032,-0.282l0.029,-0.284l0.028,-0.283l0.026,-0.285l0.025,-0.285l0.023,-0.285l0.02,-0.286l0.019,-0.287l0.018,-0.287l0.015,-0.287l0.014,-0.288l0.012,-0.289l0.01,-0.289l0.008,-0.289l0.007,-0.29l0.004,-0.291l0.003,-0.291l0.001,-0.291l-0.001,-0.291l-0.003,-0.291l-0.004,-0.291l-0.007,-0.29l-0.008,-0.289l-0.01,-0.289l-0.012,-0.289l-0.014,-0.288l-0.015,-0.287l-0.018,-0.287l-0.019,-0.287l-0.02,-0.286l-0.023,-0.285l-0.025,-0.285l-0.026,-0.285l-0.028,-0.283l-0.029,-0.284l-0.032,-0.282l-0.033,-0.283l-0.035,-0.281l-0.037,-0.281l-0.038,-0.281l-0.04,-0.28l-0.042,-0.279l-0.044,-0.279l-0.045,-0.278l-0.047,-0.278l-0.048,-0.277l-0.051,-0.276l-0.052,-0.276l-0.054,-0.275l-0.055,-0.275l-0.057,-0.274l-0.059,-0.273l-0.06,-0.273l-0.062,-0.272l-0.064,-0.272l-0.065,-0.271l-0.067,-0.27l-0.068,-0.27l-0.07,-0.269l-0.072,-0.268l-0.074,-0.267l-0.075,-0.267l-0.076,-0.267l-0.078,-0.265l-0.08,-0.265l-0.082,-0.264l-0.082,-0.264l-0.085,-0.263l-0.086,-0.262l-0.088,-0.261l-0.089,-0.261l-0.091,-0.26l-0.092,-0.259l-0.094,-0.259l-0.095,-0.258l-0.097,-0.257l-0.099,-0.256l-0.099,-0.256l-0.102,-0.255l-0.103,-0.254l-0.104,-0.253l-0.106,-0.252l-0.108,-0.252l-0.109,-0.251l-0.11,-0.25l-0.112,-0.25l-0.114,-0.248l-0.114,-0.248l-0.117,-0.247l-0.118,-0.246l-0.119,-0.246l-0.12,-0.244l-0.123,-0.244l-0.123,-0.243l-0.125,-0.242l-0.127,-0.241l-0.127,-0.241l-0.13,-0.239l-0.13,-0.239l-0.132,-0.237l-0.134,-0.237l-0.134,-0.236l-0.137,-0.235l-0.137,-0.235l-0.139,-0.233l-0.141,-0.232l-0.141,-0.232l-0.143,-0.231l-0.145,-0.229l-0.145,-0.229l-0.148,-0.228l-0.148,-0.227l-0.15,-0.226l-0.151,-0.225l-0.152,-0.224l-0.154,-0.223l-0.155,-0.222l-0.156,-0.221l-0.158,-0.22l-0.159,-0.22l-0.16,-0.218l-0.161,-0.217l-0.163,-0.216l-0.164,-0.215l-0.165,-0.214l-0.167,-0.214l-0.168,-0.212l-0.169,-0.211l-0.17,-0.21l-0.172,-0.209l-0.172,-0.208l-0.174,-0.207l-0.176,-0.206l-0.176,-0.205l-0.178,-0.204l-0.178,-0.202l-0.18,-0.202l-0.181,-0.2l-0.183,-0.2l-0.183,-0.198l-0.185,-0.197l-0.186,-0.197l-0.187,-0.195l-0.188,-0.193l-0.19,-0.193l-0.19,-0.192l-0.192,-0.19l-0.193,-0.19l-0.193,-0.188l-0.195,-0.187l-0.197,-0.186l-0.197,-0.185l-0.198,-0.183l-0.2,-0.182l-0.2,-0.182l-0.202,-0.18l-0.203,-0.179l-0.203,-0.177l-0.205,-0.176l-0.206,-0.176l-0.207,-0.174l-0.208,-0.172l-0.209,-0.172l-0.21,-0.17l-0.211,-0.169l-0.212,-0.168l-0.214,-0.167l-0.214,-0.165l-0.215,-0.164l-0.216,-0.163l-0.217,-0.161l-0.219,-0.16l-0.219,-0.159l-0.22,-0.158l-0.221,-0.156l-0.222,-0.155l-0.223,-0.154l-0.224,-0.152l-0.225,-0.151l-0.226,-0.15l-0.227,-0.149l-0.228,-0.147l-0.229,-0.145l-0.23,-0.145l-0.23,-0.143l-0.232,-0.142l-0.232,-0.14l-0.233,-0.139l-0.235,-0.137l-0.235,-0.137l-0.236,-0.134l-0.237,-0.134l-0.237,-0.132l-0.239,-0.13l-0.239,-0.13l-0.241,-0.128l-0.241,-0.126l-0.242,-0.125l-0.243,-0.123l-0.244,-0.123l-0.244,-0.12l-0.246,-0.119l-0.246,-0.118l-0.247,-0.117l-0.248,-0.114l-0.248,-0.114l-0.25,-0.112l-0.25,-0.11l-0.251,-0.109l-0.252,-0.108l-0.252,-0.106l-0.253,-0.104l-0.254,-0.103l-0.255,-0.101l-0.256,-0.101l-0.256,-0.098l-0.257,-0.097l-0.258,-0.095l-0.259,-0.094l-0.259,-0.092l-0.26,-0.091l-0.261,-0.089l-0.261,-0.088l-0.262,-0.086l-0.263,-0.085l-0.264,-0.082l-0.264,-0.082l-0.265,-0.08l-0.265,-0.078l-0.267,-0.076l-0.267,-0.075l-0.267,-0.074l-0.269,-0.072l-0.268,-0.07l-0.27,-0.068l-0.27,-0.067l-0.271,-0.065l-0.272,-0.064l-0.272,-0.062l-0.273,-0.06l-0.273,-0.059l-0.274,-0.057l-0.275,-0.055l-0.275,-0.054l-0.276,-0.052l-0.276,-0.051l-0.277,-0.048l-0.278,-0.047l-0.278,-0.045l-0.279,-0.044l-0.279,-0.042l-0.28,-0.04l-0.281,-0.038l-0.281,-0.037l-0.281,-0.035l-0.283,-0.033l-0.282,-0.032l-0.284,-0.029l-0.283,-0.028l-0.285,-0.026l-0.285,-0.025l-0.285,-0.023l-0.286,-0.02l-0.287,-0.019l-0.286,-0.018l-0.288,-0.015l-0.288,-0.014l-0.289,-0.012l-0.289,-0.01l-0.289,-0.008l-0.29,-0.007l-0.291,-0.004l-0.291,-0.003l-0.291,-0.001l-0.291,0.001Z"/></svg>