<?xml version="1.0" encoding="UTF-8" standalone="no"?>
<!DOCTYPE svg PUBLIC "-//W3C//DTD SVG 1.1//EN" "http://www.w3.org/Graphics/SVG/1.1/DTD/svg11.dtd">
<svg width="100%" height="100%" viewBox="0 0 640 100" version="1.1" xmlns="http://www.w3.org/2000/svg" xmlns:xlink="http://www.w3.org/1999/xlink" xml:space="preserve" xmlns:serif="http://www.serif.com/" style="fill-rule:evenodd;clip-rule:evenodd;stroke-linejoin:round;stroke-miterlimit:2;">
    <g transform="matrix(1,0,0,1,-2120,-325)">
        <g id="Final-serif-wide--mark-and-text-" serif:id="Final serif wide (mark and text)" transform="matrix(0.919121,0,0,0.207717,776.645,268.034)">
            <rect x="1461.67" y="276.248" width="696.318" height="481.424" style="fill:none;"/>
            <clipPath id="_clip1">
                <rect x="1461.67" y="276.248" width="696.318" height="481.424"/>
            </clipPath>
            <g clip-path="url(#_clip1)">
                <g id="Mark" transform="matrix(1.088,0,0,4.81424,-259.935,-1259.94)">
                    <path d="M1674.86,374.093L1700.57,322.67C1700.91,321.993 1701.6,321.565 1702.36,321.565C1703.12,321.565 1703.81,321.993 1704.15,322.67L1744.86,404.093C1750.05,414.093 1757.36,414.093 1757.36,414.093C1757.36,414.093 1757.36,419.093 1757.36,419.093L1682.36,419.093L1682.36,414.093C1682.36,414.093 1689.86,414.101 1684.86,404.093L1674.86,384.093C1673.61,381.628 1672.36,381.593 1672.36,381.593C1672.36,381.593 1671.12,381.628 1669.87,384.064L1669.86,384.093L1659.86,404.093C1654.86,414.101 1662.36,414.093 1662.36,414.093C1662.36,414.093 1662.36,419.093 1662.36,419.093L1587.36,419.093L1587.36,414.093C1587.36,414.093 1594.67,414.093 1599.86,404.093L1640.57,322.67C1640.91,321.993 1641.6,321.565 1642.36,321.565C1643.12,321.565 1643.81,321.993 1644.15,322.67L1644.93,324.228C1644.93,324.236 1644.93,324.245 1644.94,324.253L1669.86,374.095C1671.11,376.557 1672.36,376.593 1672.36,376.593C1672.36,376.593 1673.61,376.557 1674.86,374.093Z"/>
                </g>
                <g transform="matrix(1.088,0,0,4.81424,1322.34,-2363.84)">
                    <text x="335.71px" y="608.248px" style="font-family:'PTSerif-Bold', 'PT Serif', sans-serif;font-weight:700;font-size:28px;">M<tspan x="375.05px 408.762px 441.578px 474.758px 504.97px 538.878px 567.802px 602.214px 635.03px 668.938px 700.41px 734.822px " y="608.248px 608.248px 608.248px 608.248px 608.248px 608.248px 608.248px 608.248px 608.248px 608.248px 608.248px 608.248px ">ARKEDSORDBOK</tspan></text>
                </g>
            </g>
        </g>
    </g>
</svg>
