<?xml version="1.0" encoding="UTF-8" standalone="no"?>
<!DOCTYPE svg PUBLIC "-//W3C//DTD SVG 1.1//EN" "http://www.w3.org/Graphics/SVG/1.1/DTD/svg11.dtd">
<svg width="100%" height="100%" viewBox="0 0 190 190" version="1.1" xmlns="http://www.w3.org/2000/svg" xmlns:xlink="http://www.w3.org/1999/xlink" xml:space="preserve" xmlns:serif="http://www.serif.com/" style="fill-rule:evenodd;clip-rule:evenodd;stroke-linejoin:round;stroke-miterlimit:1.5;">
    <g transform="matrix(0.95,0,0,0.95,-304,-190)">
        <path d="M423.645,399.934C422.945,399.96 422.243,399.978 421.54,399.988L421.524,398.936C422.22,398.925 422.914,398.908 423.607,398.883L423.645,399.934ZM416.278,399.932L416.316,398.88C417.009,398.905 417.703,398.924 418.399,398.935L418.382,399.987C417.68,399.975 416.979,399.957 416.278,399.932ZM428.897,399.609C428.199,399.67 427.5,399.725 426.798,399.772L426.728,398.722C427.422,398.675 428.114,398.621 428.805,398.56L428.897,399.609ZM411.025,399.602L411.119,398.553C411.809,398.615 412.502,398.669 413.196,398.717L413.124,399.766C412.422,399.719 411.723,399.664 411.025,399.602ZM434.125,399.008C433.432,399.106 432.736,399.197 432.038,399.281L431.912,398.236C432.603,398.153 433.291,398.063 433.978,397.966L434.125,399.008ZM405.798,398.997L405.946,397.955C406.632,398.053 407.321,398.144 408.011,398.227L407.885,399.272C407.187,399.188 406.492,399.096 405.798,398.997ZM439.314,398.132C438.627,398.267 437.937,398.395 437.244,398.516L437.064,397.479C437.749,397.36 438.432,397.233 439.112,397.1L439.314,398.132ZM400.609,398.118L400.813,397.085C401.493,397.219 402.175,397.346 402.861,397.466L402.679,398.502C401.989,398.381 401.301,398.254 400.609,398.118ZM444.45,396.984C443.771,397.155 443.089,397.319 442.403,397.476L442.168,396.45C442.846,396.295 443.521,396.133 444.193,395.963L444.45,396.984ZM395.475,396.965L395.732,395.945C396.404,396.114 397.079,396.277 397.757,396.433L397.521,397.459C396.838,397.301 396.157,397.137 395.475,396.965ZM449.518,395.564C448.848,395.771 448.176,395.971 447.5,396.164L447.21,395.153C447.879,394.962 448.544,394.764 449.207,394.559L449.518,395.564ZM390.408,395.541L390.72,394.536C391.382,394.742 392.047,394.94 392.715,395.131L392.426,396.143C391.748,395.949 391.074,395.748 390.408,395.541ZM454.503,393.878C453.845,394.121 453.183,394.356 452.519,394.584L452.177,393.589C452.834,393.363 453.488,393.13 454.139,392.891L454.503,393.878ZM385.425,393.851L385.789,392.864C386.439,393.104 387.093,393.338 387.75,393.564L387.407,394.559C386.744,394.331 386.085,394.095 385.425,393.851ZM459.391,391.93C458.747,392.207 458.099,392.477 457.448,392.74L457.054,391.765C457.698,391.504 458.339,391.237 458.976,390.963L459.391,391.93ZM380.537,391.9L380.953,390.933C381.59,391.207 382.231,391.475 382.875,391.736L382.48,392.711C381.828,392.447 381.179,392.176 380.537,391.9ZM464.17,389.726C463.541,390.037 462.909,390.341 462.273,390.638L461.827,389.685C462.456,389.391 463.082,389.09 463.704,388.783L464.17,389.726ZM375.76,389.692L376.227,388.749C376.849,389.056 377.474,389.357 378.103,389.652L377.657,390.605C377.02,390.307 376.387,390.002 375.76,389.692ZM468.826,387.273C468.215,387.616 467.6,387.952 466.979,388.284L466.484,387.355C467.097,387.028 467.706,386.695 468.311,386.355L468.826,387.273ZM371.106,387.235L371.622,386.318C372.227,386.658 372.836,386.992 373.448,387.319L372.952,388.247C372.332,387.915 371.715,387.577 371.106,387.235ZM473.346,384.578C472.753,384.953 472.156,385.322 471.555,385.684L471.011,384.784C471.606,384.425 472.197,384.06 472.784,383.689L473.346,384.578ZM366.588,384.537L367.152,383.648C367.738,384.019 368.328,384.385 368.923,384.744L368.379,385.644C367.779,385.282 367.183,384.913 366.588,384.537ZM477.718,381.649C477.146,382.055 476.569,382.455 475.988,382.848L475.398,381.977C475.973,381.588 476.544,381.192 477.11,380.791L477.718,381.649ZM362.218,381.605L362.827,380.746C363.393,381.148 363.964,381.544 364.539,381.934L363.948,382.805C363.367,382.411 362.791,382.011 362.218,381.605ZM481.931,378.496C481.381,378.93 480.826,379.36 480.266,379.784L479.631,378.944C480.185,378.525 480.734,378.1 481.279,377.67L481.931,378.496ZM358.008,378.447L358.661,377.622C359.205,378.053 359.754,378.478 360.308,378.898L359.672,379.737C359.113,379.313 358.559,378.884 358.008,378.447ZM485.973,375.126C485.446,375.589 484.915,376.046 484.377,376.499L483.699,375.694C484.231,375.247 484.757,374.794 485.278,374.335L485.973,375.126ZM353.969,375.074L354.664,374.285C355.185,374.743 355.711,375.197 356.242,375.645L355.563,376.449C355.026,375.996 354.494,375.537 353.969,375.074ZM489.834,371.549C489.331,372.04 488.823,372.526 488.312,373.004L487.593,372.236C488.1,371.761 488.602,371.281 489.099,370.796L489.834,371.549ZM350.111,371.495L350.847,370.743C351.343,371.228 351.845,371.708 352.351,372.183L351.632,372.951C351.12,372.471 350.613,371.986 350.111,371.495ZM493.502,367.776C493.027,368.291 492.546,368.801 492.058,369.308L491.3,368.579C491.782,368.078 492.258,367.573 492.729,367.062L493.502,367.776ZM346.445,367.719L347.219,367.006C347.69,367.517 348.166,368.023 348.647,368.523L347.888,369.252C347.403,368.747 346.923,368.237 346.445,367.719ZM496.968,363.816C496.521,364.356 496.067,364.89 495.607,365.422L494.811,364.733C495.266,364.208 495.715,363.678 496.159,363.144L496.968,363.816ZM342.982,363.757L343.792,363.085C344.235,363.62 344.684,364.15 345.138,364.675L344.342,365.363C343.883,364.832 343.429,364.296 342.982,363.757ZM500.223,359.681C499.803,360.244 499.378,360.802 498.947,361.355L498.117,360.709C498.543,360.161 498.964,359.609 499.379,359.052L500.223,359.681ZM339.731,359.619L340.575,358.99C340.99,359.548 341.41,360.1 341.836,360.648L341.005,361.294C340.575,360.74 340.15,360.182 339.731,359.619ZM503.257,355.381C502.868,355.964 502.472,356.544 502.07,357.12L501.207,356.518C501.604,355.948 501.996,355.375 502.381,354.797L503.257,355.381ZM336.7,355.316L337.576,354.733C337.961,355.311 338.352,355.885 338.749,356.455L337.885,357.056C337.484,356.48 337.089,355.899 336.7,355.316ZM506.06,350.927C505.701,351.532 505.336,352.133 504.967,352.726L504.073,352.17C504.44,351.581 504.801,350.988 505.155,350.39L506.06,350.927ZM333.9,350.86L334.805,350.324C335.16,350.922 335.52,351.515 335.886,352.105L334.992,352.66C334.623,352.065 334.259,351.466 333.9,350.86ZM508.626,346.332C508.3,346.954 507.967,347.572 507.629,348.187L506.707,347.678C507.042,347.071 507.371,346.459 507.694,345.844L508.626,346.332ZM331.338,346.264L332.27,345.776C332.593,346.391 332.921,347.003 333.256,347.611L332.334,348.119C331.996,347.505 331.664,346.887 331.338,346.264ZM510.946,341.609C510.653,342.246 510.354,342.88 510.048,343.513L509.101,343.054C509.403,342.43 509.699,341.802 509.989,341.17L510.946,341.609ZM329.022,341.538L329.979,341.1C330.268,341.732 330.564,342.36 330.866,342.985L329.918,343.443C329.613,342.812 329.315,342.178 329.022,341.538ZM513.012,336.769C512.754,337.421 512.49,338.069 512.216,338.718L511.246,338.31C511.516,337.671 511.778,337.028 512.034,336.382L513.012,336.769ZM326.959,336.697L327.938,336.31C328.193,336.956 328.455,337.599 328.724,338.239L327.754,338.646C327.482,338 327.217,337.349 326.959,336.697ZM514.82,331.827C514.596,332.492 514.366,333.155 514.129,333.816L513.138,333.459C513.373,332.807 513.601,332.151 513.822,331.492L514.82,331.827ZM325.155,331.753L326.153,331.419C326.374,332.078 326.601,332.734 326.836,333.387L325.845,333.742C325.608,333.082 325.378,332.419 325.155,331.753ZM516.363,326.796C516.176,327.471 515.981,328.143 515.778,328.818L514.77,328.515C514.97,327.851 515.163,327.184 515.349,326.514L516.363,326.796ZM323.616,326.721L324.63,326.44C324.816,327.11 325.008,327.777 325.208,328.441L324.2,328.743C323.999,328.072 323.804,327.398 323.616,326.721ZM517.637,321.69C517.485,322.375 517.326,323.057 517.16,323.74L516.137,323.491C516.302,322.817 516.459,322.141 516.609,321.462L517.637,321.69ZM322.347,321.614L323.374,321.387C323.524,322.066 323.681,322.742 323.844,323.416L322.822,323.664C322.656,322.984 322.498,322.3 322.347,321.614ZM518.639,316.524C518.523,317.215 518.401,317.904 518.27,318.596L517.236,318.402C517.365,317.72 517.486,317.037 517.6,316.351L518.639,316.524ZM321.349,316.447L322.387,316.274C322.501,316.961 322.621,317.644 322.749,318.326L321.715,318.52C321.586,317.831 321.464,317.139 321.349,316.447ZM519.366,311.312C519.287,312.01 519.201,312.706 519.108,313.401L518.065,313.261C518.157,312.574 518.242,311.885 518.32,311.194L519.366,311.312ZM320.626,311.234L321.671,311.117C321.749,311.808 321.833,312.497 321.925,313.184L320.882,313.323C320.789,312.629 320.704,311.932 320.626,311.234ZM519.818,306.069C519.776,306.77 519.727,307.47 519.67,308.169L518.621,308.084C518.677,307.393 518.726,306.7 518.768,306.006L519.818,306.069ZM320.177,305.99L321.228,305.928C321.269,306.623 321.317,307.316 321.372,308.006L320.324,308.091C320.268,307.392 320.219,306.692 320.177,305.99ZM519.996,300.809C519.991,301.511 519.978,302.211 519.958,302.914L518.906,302.884C518.926,302.191 518.939,301.497 518.944,300.801L519.996,300.809ZM320.003,300.731L321.055,300.723C321.06,301.419 321.072,302.114 321.092,302.806L320.04,302.836C320.02,302.137 320.008,301.435 320.003,300.731ZM519.902,295.547C519.933,296.248 519.957,296.949 519.972,297.651L518.921,297.676C518.904,296.98 518.881,296.286 518.851,295.594L519.902,295.547ZM320.101,295.469L321.153,295.516C321.122,296.208 321.098,296.902 321.081,297.598L320.029,297.573C320.046,296.87 320.07,296.169 320.101,295.469ZM519.534,290.298C519.601,290.995 519.662,291.694 519.714,292.395L518.665,292.474C518.613,291.78 518.553,291.089 518.487,290.399L519.534,290.298ZM320.474,290.22L321.521,290.321C321.454,291.011 321.394,291.703 321.341,292.397L320.291,292.317C320.345,291.615 320.405,290.915 320.474,290.22ZM518.891,285.075C518.995,285.767 519.092,286.463 519.181,287.16L518.138,287.294C518.049,286.604 517.953,285.916 517.851,285.231L518.891,285.075ZM321.121,284.997L322.161,285.154C322.058,285.839 321.961,286.527 321.872,287.217L320.829,287.082C320.919,286.385 321.016,285.69 321.121,284.997ZM517.974,279.893C518.114,280.579 518.248,281.268 518.374,281.96L517.338,282.149C517.214,281.464 517.082,280.783 516.943,280.103L517.974,279.893ZM322.042,279.816L323.073,280.027C322.933,280.706 322.801,281.388 322.676,282.072L321.641,281.882C321.767,281.193 321.9,280.507 322.042,279.816ZM516.783,274.767C516.96,275.445 517.129,276.126 517.292,276.809L516.268,277.053C516.107,276.376 515.94,275.703 515.765,275.032L516.783,274.767ZM323.237,274.691L324.255,274.956C324.079,275.627 323.911,276.301 323.75,276.977L322.726,276.733C322.889,276.051 323.058,275.372 323.237,274.691ZM515.323,269.711C515.535,270.379 515.741,271.049 515.939,271.724L514.93,272.021C514.733,271.354 514.53,270.691 514.32,270.03L515.323,269.711ZM324.701,269.636L325.704,269.956C325.493,270.616 325.289,271.28 325.092,271.947L324.083,271.649C324.283,270.974 324.489,270.302 324.701,269.636ZM513.596,264.74C513.843,265.396 514.084,266.055 514.318,266.717L513.326,267.068C513.094,266.412 512.856,265.76 512.611,265.111L513.596,264.74ZM326.432,264.666L327.416,265.038C327.171,265.687 326.932,266.339 326.7,266.994L325.708,266.643C325.943,265.979 326.185,265.319 326.432,264.666ZM511.608,259.867C511.89,260.509 512.166,261.155 512.434,261.803L511.462,262.206C511.196,261.564 510.924,260.925 510.645,260.29L511.608,259.867ZM328.424,259.795L329.387,260.219C329.107,260.854 328.834,261.492 328.568,262.134L327.596,261.731C327.865,261.082 328.141,260.437 328.424,259.795ZM509.366,255.106C509.681,255.733 509.99,256.363 510.293,256.996L509.343,257.45C509.044,256.823 508.738,256.199 508.426,255.58L509.366,255.106ZM330.67,255.036L331.609,255.51C331.297,256.13 330.99,256.753 330.69,257.38L329.741,256.925C330.044,256.293 330.354,255.664 330.67,255.036ZM506.874,250.471C507.223,251.08 507.565,251.693 507.9,252.309L506.976,252.812C506.644,252.202 506.306,251.595 505.961,250.993L506.874,250.471ZM333.165,250.402L334.078,250.925C333.733,251.527 333.394,252.134 333.061,252.744L332.137,252.24C332.473,251.624 332.815,251.012 333.165,250.402ZM504.143,245.972C504.522,246.562 504.896,247.155 505.264,247.754L504.367,248.305C504.004,247.713 503.634,247.126 503.258,246.542L504.143,245.972ZM335.9,245.906L336.784,246.477C336.408,247.06 336.037,247.647 335.673,248.239L334.777,247.687C335.145,247.089 335.519,246.496 335.9,245.906ZM501.18,241.624C501.589,242.192 501.993,242.766 502.392,243.345L501.526,243.942C501.132,243.37 500.731,242.802 500.326,242.239L501.18,241.624ZM338.867,241.56L339.72,242.176C339.314,242.739 338.913,243.306 338.518,243.878L337.653,243.28C338.051,242.702 338.456,242.129 338.867,241.56ZM497.992,237.436C498.431,237.983 498.864,238.534 499.293,239.091L498.459,239.733C498.035,239.183 497.606,238.637 497.171,238.096L497.992,237.436ZM342.057,237.375L342.877,238.035C342.442,238.576 342.012,239.121 341.588,239.671L340.755,239.029C341.183,238.474 341.617,237.923 342.057,237.375ZM494.589,233.422C495.057,233.945 495.519,234.474 495.976,235.006L495.176,235.691C494.724,235.163 494.267,234.64 493.805,234.123L494.589,233.422ZM345.463,233.363L346.247,234.065C345.784,234.582 345.327,235.105 344.874,235.632L344.076,234.946C344.532,234.414 344.995,233.886 345.463,233.363ZM490.982,229.59C491.477,230.089 491.967,230.593 492.449,231.1L491.687,231.825C491.208,231.322 490.724,230.824 490.235,230.331L490.982,229.59ZM349.073,229.534L349.82,230.276C349.33,230.769 348.846,231.266 348.367,231.769L347.605,231.043C348.09,230.534 348.58,230.031 349.073,229.534ZM487.18,225.952C487.7,226.424 488.215,226.902 488.723,227.383L488,228.147C487.496,227.67 486.986,227.198 486.472,226.731L487.18,225.952ZM352.879,225.899L353.585,226.679C353.071,227.145 352.561,227.617 352.057,228.094L351.334,227.329C351.844,226.847 352.36,226.369 352.879,225.899ZM483.192,222.517C483.736,222.961 484.274,223.411 484.808,223.866L484.126,224.667C483.598,224.217 483.064,223.772 482.526,223.333L483.192,222.517ZM356.869,222.468L357.534,223.283C356.996,223.722 356.462,224.167 355.933,224.617L355.251,223.815C355.785,223.361 356.324,222.912 356.869,222.468ZM479.031,219.296C479.597,219.711 480.158,220.132 480.715,220.559L480.076,221.394C479.524,220.972 478.969,220.556 478.409,220.145L479.031,219.296ZM361.033,219.25L361.654,220.099C361.094,220.509 360.538,220.925 359.986,221.347L359.347,220.511C359.904,220.085 360.465,219.665 361.033,219.25ZM474.706,216.298C475.292,216.682 475.874,217.072 476.455,217.47L475.86,218.338C475.287,217.945 474.71,217.558 474.129,217.178L474.706,216.298ZM365.36,216.255L365.936,217.135C365.354,217.515 364.777,217.902 364.205,218.294L363.61,217.425C364.19,217.028 364.774,216.637 365.36,216.255ZM470.23,213.53C470.837,213.883 471.44,214.243 472.038,214.609L471.489,215.507C470.897,215.145 470.301,214.789 469.7,214.439L470.23,213.53ZM369.838,213.49L370.367,214.4C369.766,214.749 369.17,215.105 368.577,215.466L368.029,214.568C368.627,214.203 369.23,213.844 369.838,213.49ZM465.615,211.001C466.238,211.322 466.857,211.648 467.477,211.984L466.976,212.909C466.366,212.579 465.752,212.255 465.134,211.937L465.615,211.001ZM374.455,210.965L374.935,211.902C374.317,212.219 373.703,212.543 373.092,212.872L372.592,211.946C373.209,211.613 373.83,211.287 374.455,210.965ZM460.872,208.72C461.513,209.008 462.151,209.303 462.784,209.602L462.333,210.553C461.706,210.256 461.075,209.965 460.441,209.68L460.872,208.72ZM379.199,208.688L379.629,209.648C378.995,209.933 378.365,210.223 377.738,210.52L377.287,209.569C377.921,209.269 378.558,208.975 379.199,208.688ZM456.016,206.693C456.671,206.946 457.322,207.206 457.971,207.473L457.571,208.446C456.93,208.182 456.285,207.925 455.637,207.674L456.016,206.693ZM384.057,206.665L384.436,207.646C383.787,207.897 383.142,208.153 382.501,208.417L382.101,207.443C382.75,207.177 383.402,206.917 384.057,206.665ZM451.059,204.926C451.727,205.144 452.392,205.369 453.053,205.601L452.705,206.594C452.051,206.365 451.393,206.142 450.732,205.926L451.059,204.926ZM389.015,204.901L389.342,205.902C388.681,206.117 388.023,206.339 387.368,206.568L387.021,205.575C387.683,205.344 388.348,205.119 389.015,204.901ZM446.015,203.424C446.693,203.606 447.367,203.795 448.042,203.992L447.747,205.002C447.082,204.808 446.413,204.621 445.742,204.44L446.015,203.424ZM394.06,203.404L394.333,204.42C393.661,204.6 392.993,204.787 392.327,204.981L392.033,203.97C392.705,203.774 393.381,203.585 394.06,203.404ZM440.899,202.192C441.586,202.338 442.27,202.491 442.953,202.652L442.713,203.676C442.038,203.517 441.36,203.366 440.68,203.221L440.899,202.192ZM399.177,202.175L399.396,203.205C398.716,203.349 398.038,203.5 397.363,203.658L397.123,202.634C397.805,202.474 398.489,202.321 399.177,202.175ZM435.725,201.232C436.417,201.341 437.107,201.458 437.801,201.583L437.615,202.619C436.932,202.496 436.248,202.38 435.561,202.271L435.725,201.232ZM404.352,201.22L404.516,202.259C403.829,202.367 403.144,202.483 402.462,202.605L402.276,201.569C402.966,201.445 403.658,201.329 404.352,201.22ZM430.507,200.547C431.206,200.62 431.902,200.7 432.599,200.788L432.467,201.832C431.78,201.745 431.09,201.666 430.398,201.593L430.507,200.547ZM409.571,200.539L409.679,201.585C408.987,201.657 408.298,201.736 407.61,201.822L407.479,200.778C408.174,200.691 408.871,200.611 409.571,200.539ZM425.261,200.137C425.962,200.173 426.662,200.217 427.362,200.268L427.286,201.317C426.594,201.267 425.901,201.224 425.206,201.188L425.261,200.137ZM414.818,200.132L414.871,201.184C414.176,201.219 413.483,201.262 412.792,201.312L412.716,200.262C413.414,200.212 414.115,200.168 414.818,200.132ZM417.973,200.02C418.644,200.007 419.321,200 420,200C420.701,200 421.4,200.007 422.105,200.022L422.083,201.074C421.391,201.06 420.696,201.053 420,201.053L419.498,201.054C418.996,201.056 418.495,201.063 417.994,201.073L417.973,200.02Z"/>
    </g>
    <g transform="matrix(1,0,0,1,-305,-195)">
        <path d="M370,340L320,240L420,240L370,340Z"/>
    </g>
    <g transform="matrix(1,0,0,1,-305,-195)">
        <path d="M322,340L320,340L320,339L322,339L322,340ZM327,340L325,340L325,339L327,339L327,340ZM332,340L330,340L330,339L332,339L332,340ZM337,340L335,340L335,339L337,339L337,340ZM342,340L340,340L340,339L342,339L342,340ZM347,340L345,340L345,339L347,339L347,340ZM352,340L350,340L350,339L352,339L352,340ZM357,340L355,340L355,339L357,339L357,340ZM362,340L360,340L360,339L362,339L362,340ZM367,340L365,340L365,339L367,339L367,340ZM370,340L370,339L372,339L372,340L370,340ZM377,340L375,340L375,339L377,339L377,340ZM382,340L380,340L380,339L382,339L382,340ZM387,340L385,340L385,339L387,339L387,340ZM392,340L390,340L390,339L392,339L392,340ZM397,340L395,340L395,339L397,339L397,340ZM402,340L400,340L400,339L402,339L402,340ZM407,340L405,340L405,339L407,339L407,340ZM412,340L410,340L410,339L412,339L412,340ZM417,340L415,340L415,339L417,339L417,340ZM422,340L420,340L420,339L422,339L422,340ZM427,340L425,340L425,339L427,339L427,340ZM432,340L430,340L430,339L432,339L432,340ZM437,340L435,340L435,339L437,339L437,340ZM442,340L440,340L440,339L442,339L442,340ZM447,340L445,340L445,339L447,339L447,340ZM452,340L450,340L450,339L452,339L452,340ZM457,340L455,340L455,339L457,339L457,340ZM462,340L460,340L460,339L462,339L462,340ZM465,340L465,339L467,339L467,340L465,340ZM472,340L470,340L470,339L472,339L472,340ZM477,340L475,340L475,339L477,339L477,340ZM480,338L480,340L479,340L479,338L480,338ZM320,335.001L321,335.001L321,337.001L320,337.001L320,335.001ZM480,333L480,335L479,335L479,333L480,333ZM320,330.001L321,330.001L321,332.001L320,332.001L320,330.001ZM480,328L480,330L479,330L479,328L480,328ZM320,325.001L321,325.001L321,327.001L320,327.001L320,325.001ZM480,323L480,325L479,325L479,323L480,323ZM320,320.001L321,320.001L321,322.001L320,322.001L320,320.001ZM480,318L480,320L479,320L479,318L480,318ZM320,315.001L321,315.001L321,317.001L320,317.001L320,315.001ZM480,313L480,315L479,315L479,313L480,313ZM320,310.001L321,310.001L321,312.001L320,312.001L320,310.001ZM480,308L480,310L479,310L479,308L480,308ZM320,305.001L321,305.001L321,307.001L320,307.001L320,305.001ZM480,303L480,305L479,305L479,303L480,303ZM320,300.001L321,300.001L321,302.001L320,302.001L320,300.001ZM480,297.999L480,299.999L479,299.999L479,297.999L480,297.999ZM320,295.001L321,295.001L321,297.001L320,297.001L320,295.001ZM480,292.999L480,294.999L479,294.999L479,292.999L480,292.999ZM320,290.001L321,290.001L321,292.001L320,292.001L320,290.001ZM480,287.999L480,289.999L479,289.999L479,287.999L480,287.999ZM320,285.001L321,285.001L321,287.001L320,287.001L320,285.001ZM480,282.999L480,284.999L479,284.999L479,282.999L480,282.999ZM320,280.001L321,280.001L321,282.001L320,282.001L320,280.001ZM480,277.999L480,279.999L479,279.999L479,277.999L480,277.999ZM320,275.001L321,275.001L321,277.001L320,277.001L320,275.001ZM480,272.999L480,274.999L479,274.999L479,272.999L480,272.999ZM320,270.001L321,270.001L321,272.001L320,272.001L320,270.001ZM480,267.999L480,269.999L479,269.999L479,267.999L480,267.999ZM320,265.001L321,265.001L321,267.001L320,267.001L320,265.001ZM480,262.999L480,264.999L479,264.999L479,262.999L480,262.999ZM320,260.001L321,260.001L321,262.001L320,262.001L320,260.001ZM480,257.999L480,259.999L479,259.999L479,257.999L480,257.999ZM320,255.001L321,255.001L321,257.001L320,257.001L320,255.001ZM480,252.999L480,254.999L479,254.999L479,252.999L480,252.999ZM320,250.001L321,250.001L321,252.001L320,252.001L320,250.001ZM480,247.999L480,249.999L479,249.999L479,247.999L480,247.999ZM320,245.001L321,245.001L321,247.001L320,247.001L320,245.001ZM480,242.999L480,244.999L479,244.999L479,242.999L480,242.999ZM320,240.001L321,240.001L321,242.001L320,242.001L320,240.001ZM330,240L330,241L328,241L328,240L330,240ZM479.999,240L479.999,241L477.999,241L477.999,240L479.999,240ZM335,240L335,241L332.999,241L332.999,240L335,240ZM324.999,240L324.999,241L322.999,241L322.999,240L324.999,240ZM469.999,240L469.999,241L467.999,241L467.999,240L469.999,240ZM474.999,240L474.999,241L472.999,241L472.999,240L474.999,240ZM349.999,240L349.999,241L347.999,241L347.999,240L349.999,240ZM340,240L340,241L338,241L338,240L340,240ZM379.999,240L379.999,241L377.999,241L377.999,240L379.999,240ZM384.999,240L384.999,241L382.999,241L382.999,240L384.999,240ZM444.999,240L444.999,241L442.999,241L442.999,240L444.999,240ZM449.999,240L449.999,241L447.999,241L447.999,240L449.999,240ZM455,240L455,241L452.999,241L452.999,240L455,240ZM459.999,240L459.999,241L457.999,241L457.999,240L459.999,240ZM464.999,240L464.999,241L462.999,241L462.999,240L464.999,240ZM344.999,240L344.999,241L342.999,241L342.999,240L344.999,240ZM364.999,240L364.999,241L362.999,241L362.999,240L364.999,240ZM359.999,240L359.999,241L357.999,241L357.999,240L359.999,240ZM354.999,240L354.999,241L352.999,241L352.999,240L354.999,240ZM390,240L390,241L387.999,241L387.999,240L390,240ZM374.999,240L374.999,241L372.999,241L372.999,240L374.999,240ZM399.999,240L399.999,241L398,241L398,240L399.999,240ZM404.999,240L404.999,241L403,241L403,240L404.999,240ZM409.999,240L409.999,241L407.999,241L407.999,240L409.999,240ZM429.999,240L429.999,241L428,241L428,240L429.999,240ZM435,240L435,241L433,241L433,240L435,240ZM439.999,240L439.999,241L437.999,241L437.999,240L439.999,240ZM395,240L395,241L393,241L393,240L395,240ZM369.999,240L369.999,241L367.999,241L367.999,240L369.999,240ZM415,240L415,241L412.999,241L412.999,240L415,240ZM420,240L420,241L418,241L418,240L420,240ZM425,240L425,241L422.999,241L422.999,240L425,240Z"/>
    </g>
    <g transform="matrix(6.12323e-17,1,-1,6.12323e-17,385,-305)">
        <path d="M480,338L480,340L479,340L479,338L480,338ZM480,333L480,335L479,335L479,333L480,333ZM480,328L480,330L479,330L479,328L480,328ZM480,325L479,325L479,323L480,323L480,325ZM480,318L480,320L479,320L479,318L480,318ZM480,313L480,315L479,315L479,313L480,313ZM480,308L480,310L479,310L479,308L480,308ZM480,305L479,305L479,303L480,303L480,305ZM480,297.999L480,299.999L479,299.999L479,297.999L480,297.999ZM480,294.999L479,294.999L479,292.999L480,292.999L480,294.999ZM480,287.999L480,289.999L479,289.999L479,287.999L480,287.999ZM480,282.999L480,284.999L479,284.999L479,282.999L480,282.999ZM480,277.999L480,279.999L479,279.999L479,277.999L480,277.999ZM480,274.999L479,274.999L479,272.999L480,272.999L480,274.999ZM480,267.999L480,269.999L479,269.999L479,267.999L480,267.999ZM480,262.999L480,264.999L479,264.999L479,262.999L480,262.999ZM480,257.999L480,259.999L479,259.999L479,257.999L480,257.999ZM480,252.999L480,254.999L479,254.999L479,252.999L480,252.999ZM480,247.999L480,249.999L479,249.999L479,247.999L480,247.999ZM480,244.999L479,244.999L479,242.999L480,242.999L480,244.999ZM477.999,240L479.999,240L479.999,241L477.999,241L477.999,240ZM475,340L475,339L477,339L477,340L475,340ZM472.999,240L474.999,240L474.999,241L472.999,241L472.999,240ZM470,340L470,339L472,339L472,340L470,340ZM467.999,240L469.999,240L469.999,241L467.999,241L467.999,240ZM465,340L465,339L467,339L467,340L465,340ZM462.999,240L464.999,240L464.999,241L462.999,241L462.999,240ZM460,340L460,339L462,339L462,340L460,340ZM457.999,240L459.999,240L459.999,241L457.999,241L457.999,240ZM455,340L455,339L457,339L457,340L455,340ZM452.999,240L455,240L455,241L452.999,241L452.999,240ZM450,340L450,339L452,339L452,340L450,340ZM447.999,240L449.999,240L449.999,241L447.999,241L447.999,240ZM445,340L445,339L447,339L447,340L445,340ZM442.999,240L444.999,240L444.999,241L442.999,241L442.999,240ZM440,340L440,339L442,339L442,340L440,340ZM437.999,240L439.999,240L439.999,241L437.999,241L437.999,240ZM435,340L435,339L437,339L437,340L435,340ZM433,240L435,240L435,241L433,241L433,240ZM430,340L430,339L432,339L432,340L430,340ZM428,240L429.999,240L429.999,241L428,241L428,240ZM425,340L425,339L427,339L427,340L425,340ZM422.999,240L425,240L425,241L422.999,241L422.999,240ZM420,340L420,339L422,339L422,340L420,340ZM418,240L420,240L420,241L418,241L418,240ZM415,340L415,339L417,339L417,340L415,340ZM412.999,240L415,240L415,241L412.999,241L412.999,240ZM410,340L410,339L412,339L412,340L410,340ZM407.999,240L409.999,240L409.999,241L407.999,241L407.999,240ZM405,340L405,339L407,339L407,340L405,340ZM403,240L404.999,240L404.999,241L403,241L403,240ZM400,340L400,339L402,339L402,340L400,340ZM398,240L399.999,240L399.999,241L398,241L398,240ZM395,340L395,339L397,339L397,340L395,340ZM393,240L395,240L395,241L393,241L393,240ZM390,340L390,339L392,339L392,340L390,340ZM387.999,240L390,240L390,241L387.999,241L387.999,240ZM385,340L385,339L387,339L387,340L385,340ZM382.999,240L384.999,240L384.999,241L382.999,241L382.999,240ZM380,340L380,339L382,339L382,340L380,340ZM377.999,240L379.999,240L379.999,241L377.999,241L377.999,240ZM375,340L375,339L377,339L377,340L375,340ZM372.999,240L374.999,240L374.999,241L372.999,241L372.999,240ZM370,340L370,339L372,339L372,340L370,340ZM367.999,240L369.999,240L369.999,241L367.999,241L367.999,240ZM365,340L365,339L367,339L367,340L365,340ZM362.999,240L364.999,240L364.999,241L362.999,241L362.999,240ZM360,340L360,339L362,339L362,340L360,340ZM357.999,240L359.999,240L359.999,241L357.999,241L357.999,240ZM355,340L355,339L357,339L357,340L355,340ZM352.999,240L354.999,240L354.999,241L352.999,241L352.999,240ZM350,340L350,339L352,339L352,340L350,340ZM347.999,240L349.999,240L349.999,241L347.999,241L347.999,240ZM345,340L345,339L347,339L347,340L345,340ZM342.999,240L344.999,240L344.999,241L342.999,241L342.999,240ZM340,340L340,339L342,339L342,340L340,340ZM338,240L340,240L340,241L338,241L338,240ZM335,340L335,339L337,339L337,340L335,340ZM332.999,240L335,240L335,241L332.999,241L332.999,240ZM330,340L330,339L332,339L332,340L330,340ZM328,240L330,240L330,241L328,241L328,240ZM325,340L325,339L327,339L327,340L325,340ZM322.999,240L324.999,240L324.999,241L322.999,241L322.999,240ZM320,340L320,339L322,339L322,340L320,340ZM320,240.001L321,240.001L321,242.001L320,242.001L320,240.001ZM320,260.001L321,260.001L321,262.001L320,262.001L320,260.001ZM320,265.001L321,265.001L321,267.001L320,267.001L320,265.001ZM320,270.001L321,270.001L321,272.001L320,272.001L320,270.001ZM320,275.001L321,275.001L321,277.001L320,277.001L320,275.001ZM320,280.001L321,280.001L321,282.001L320,282.001L320,280.001ZM320,285.001L321,285.001L321,287.001L320,287.001L320,285.001ZM320,290.001L321,290.001L321,292.001L320,292.001L320,290.001ZM320,295.001L321,295.001L321,297.001L320,297.001L320,295.001ZM320,300.001L321,300.001L321,302.001L320,302.001L320,300.001ZM320,305.001L321,305.001L321,307.001L320,307.001L320,305.001ZM320,310.001L321,310.001L321,312.001L320,312.001L320,310.001ZM320,315.001L321,315.001L321,317.001L320,317.001L320,315.001ZM320,320.001L321,320.001L321,322.001L320,322.001L320,320.001ZM320,330.001L321,330.001L321,332.001L320,332.001L320,330.001ZM320,335.001L321,335.001L321,337.001L320,337.001L320,335.001ZM320,250.001L321,250.001L321,252.001L320,252.001L320,250.001ZM320,245.001L321,245.001L321,247.001L320,247.001L320,245.001ZM320,255.001L321,255.001L321,257.001L320,257.001L320,255.001ZM320,325.001L321,325.001L321,327.001L320,327.001L320,325.001Z"/>
    </g>
    <g transform="matrix(1,0,0,1,-305,-195)">
        <path d="M480,340L430,240L380,340L480,340ZM384.854,337L475.146,337L430,246.708L384.854,337Z"/>
    </g>
    <g transform="matrix(1,0,0,1,-305,-195)">
        <g transform="matrix(1.05263,0,0,1.05263,172.632,134.737)">
            <path d="M140,195C140,142.568 182.568,100 235,100" style="fill:none;stroke:black;stroke-width:0.95px;stroke-dasharray:1.9,2.85,0,0;"/>
        </g>
        <g transform="matrix(1,0,0,1,285,200)">
            <path d="M135,40C168.115,40 195,66.885 195,100" style="fill:none;stroke:black;stroke-width:1px;stroke-dasharray:2,3,0,0;"/>
        </g>
        <g transform="matrix(1,0,0,1,285,200)">
            <path d="M195,100C195,122.077 177.077,140 155,140" style="fill:none;stroke:black;stroke-width:1px;stroke-dasharray:2,3,0,0;"/>
        </g>
        <g transform="matrix(1,0,0,1,280,200)">
            <path d="M160,140C148.962,140 140,131.038 140,120" style="fill:none;stroke:black;stroke-width:1px;stroke-dasharray:2,3,0,0;"/>
        </g>
        <g transform="matrix(6.12323e-17,1,-1,6.12323e-17,560,160)">
            <path d="M160,140C148.962,140 140,131.038 140,120" style="fill:none;stroke:black;stroke-width:1px;stroke-dasharray:2,3,0,0;"/>
        </g>
    </g>
</svg>
